%TF.GenerationSoftware,KiCad,Pcbnew,9.0.7*%
%TF.CreationDate,2026-07-10T16:18:20+02:00*%
%TF.ProjectId,forZero,666f725a-6572-46f2-9e6b-696361645f70,rev?*%
%TF.SameCoordinates,Original*%
%TF.FileFunction,Soldermask,Bot*%
%TF.FilePolarity,Negative*%
%FSLAX46Y46*%
G04 Gerber Fmt 4.6, Leading zero omitted, Abs format (unit mm)*
G04 Created by KiCad (PCBNEW 9.0.7) date 2026-07-10 16:18:20*
%MOMM*%
%LPD*%
G01*
G04 APERTURE LIST*
%ADD10C,3.174100*%
%ADD11R,1.520000X1.520000*%
%ADD12C,1.520000*%
%ADD13C,2.910000*%
%ADD14C,3.000000*%
%ADD15R,4.600000X2.000000*%
%ADD16O,4.200000X2.000000*%
%ADD17O,2.000000X4.200000*%
%ADD18C,0.650000*%
%ADD19O,2.100000X1.000000*%
%ADD20O,1.800000X1.000000*%
G04 APERTURE END LIST*
D10*
X140187050Y-130400000D02*
G75*
G02*
X137012950Y-130400000I-1587050J0D01*
G01*
X137012950Y-130400000D02*
G75*
G02*
X140187050Y-130400000I1587050J0D01*
G01*
X75111150Y-59524100D02*
G75*
G02*
X71937050Y-59524100I-1587050J0D01*
G01*
X71937050Y-59524100D02*
G75*
G02*
X75111150Y-59524100I1587050J0D01*
G01*
X75160262Y-130461891D02*
G75*
G02*
X71986162Y-130461891I-1587050J0D01*
G01*
X71986162Y-130461891D02*
G75*
G02*
X75160262Y-130461891I1587050J0D01*
G01*
X140311150Y-59524100D02*
G75*
G02*
X137137050Y-59524100I-1587050J0D01*
G01*
X137137050Y-59524100D02*
G75*
G02*
X140311150Y-59524100I1587050J0D01*
G01*
D11*
%TO.C,J3*%
X124350000Y-66255400D03*
D12*
X127350000Y-66255400D03*
X130350000Y-66255400D03*
X124350000Y-69255400D03*
X127350000Y-69255400D03*
X130350000Y-69255400D03*
D13*
X122200000Y-61935400D03*
X132500000Y-61935400D03*
%TD*%
D14*
%TO.C,J2*%
X112280000Y-61680000D03*
X107600000Y-61680000D03*
D11*
X105440000Y-66000000D03*
D12*
X108440000Y-66000000D03*
X111440000Y-66000000D03*
X114440000Y-66000000D03*
X105440000Y-69000000D03*
X108440000Y-69000000D03*
X111440000Y-69000000D03*
X114440000Y-69000000D03*
%TD*%
D15*
%TO.C,J5*%
X82600000Y-70300000D03*
D16*
X82600000Y-64000000D03*
D17*
X77800000Y-67400000D03*
%TD*%
D14*
%TO.C,J4*%
X94200000Y-61680000D03*
D11*
X92700000Y-66000000D03*
D12*
X95700000Y-66000000D03*
X92700000Y-69000000D03*
X95700000Y-69000000D03*
%TD*%
D18*
%TO.C,J1*%
X76680000Y-100590000D03*
X76680000Y-106370000D03*
D19*
X77180000Y-99160000D03*
D20*
X73000000Y-99160000D03*
D19*
X77180000Y-107800000D03*
D20*
X73000000Y-107800000D03*
%TD*%
M02*
