%TF.GenerationSoftware,KiCad,Pcbnew,9.0.7*%
%TF.CreationDate,2026-07-10T16:18:20+02:00*%
%TF.ProjectId,forZero,666f725a-6572-46f2-9e6b-696361645f70,rev?*%
%TF.SameCoordinates,Original*%
%TF.FileFunction,Copper,L2,Bot*%
%TF.FilePolarity,Positive*%
%FSLAX46Y46*%
G04 Gerber Fmt 4.6, Leading zero omitted, Abs format (unit mm)*
G04 Created by KiCad (PCBNEW 9.0.7) date 2026-07-10 16:18:20*
%MOMM*%
%LPD*%
G01*
G04 APERTURE LIST*
%TA.AperFunction,ComponentPad*%
%ADD10R,1.520000X1.520000*%
%TD*%
%TA.AperFunction,ComponentPad*%
%ADD11C,1.520000*%
%TD*%
%TA.AperFunction,ComponentPad*%
%ADD12C,2.910000*%
%TD*%
%TA.AperFunction,ComponentPad*%
%ADD13R,4.600000X2.000000*%
%TD*%
%TA.AperFunction,ComponentPad*%
%ADD14O,4.200000X2.000000*%
%TD*%
%TA.AperFunction,ComponentPad*%
%ADD15O,2.000000X4.200000*%
%TD*%
%TA.AperFunction,HeatsinkPad*%
%ADD16O,2.100000X1.000000*%
%TD*%
%TA.AperFunction,HeatsinkPad*%
%ADD17O,1.800000X1.000000*%
%TD*%
%TA.AperFunction,ViaPad*%
%ADD18C,0.600000*%
%TD*%
%TA.AperFunction,Conductor*%
%ADD19C,0.300000*%
%TD*%
%TA.AperFunction,Conductor*%
%ADD20C,0.700000*%
%TD*%
G04 APERTURE END LIST*
D10*
%TO.P,J3,1,1*%
%TO.N,unconnected-(J3-Pad1)*%
X124350000Y-66255400D03*
D11*
%TO.P,J3,2,2*%
%TO.N,CLUSTER_CAN_H*%
X127350000Y-66255400D03*
%TO.P,J3,3,3*%
%TO.N,CLUSTER_FUEL_LVL*%
X130350000Y-66255400D03*
%TO.P,J3,4,4*%
%TO.N,CLUSTER_SPEED*%
X124350000Y-69255400D03*
%TO.P,J3,5,5*%
%TO.N,CLUSTER_CAN_L*%
X127350000Y-69255400D03*
%TO.P,J3,6,6*%
%TO.N,CLUSTER_TEMP_LVL*%
X130350000Y-69255400D03*
D12*
%TO.P,J3,7,7*%
%TO.N,unconnected-(J3-Pad7)*%
X122200000Y-61935400D03*
%TO.P,J3,8,8*%
%TO.N,unconnected-(J3-Pad8)*%
X132500000Y-61935400D03*
%TD*%
D10*
%TO.P,J2,1,1*%
%TO.N,CLUSTER_BREMSE*%
X105440000Y-66000000D03*
D11*
%TO.P,J2,2,2*%
%TO.N,CLUSTER_AIR_BAG*%
X108440000Y-66000000D03*
%TO.P,J2,3,3*%
%TO.N,CLUSTER_ABS*%
X111440000Y-66000000D03*
%TO.P,J2,4,4*%
%TO.N,CLUSTER_SENSOR*%
X114440000Y-66000000D03*
%TO.P,J2,5,5*%
%TO.N,CLUSTER_WIPER_FLUID*%
X105440000Y-69000000D03*
%TO.P,J2,6,6*%
%TO.N,CLUSTER_COOL_LVL*%
X108440000Y-69000000D03*
%TO.P,J2,7,7*%
%TO.N,CLUSTER_BRAKE_PADS*%
X111440000Y-69000000D03*
%TO.P,J2,8,8*%
%TO.N,CLUSTER_TCR*%
X114440000Y-69000000D03*
%TD*%
D13*
%TO.P,J5,1*%
%TO.N,Net-(F2-Pad1)*%
X82600000Y-70300000D03*
D14*
%TO.P,J5,2*%
%TO.N,GND*%
X82600000Y-64000000D03*
D15*
%TO.P,J5,3*%
X77800000Y-67400000D03*
%TD*%
D10*
%TO.P,J4,1,1*%
%TO.N,12V*%
X92700000Y-66000000D03*
D11*
%TO.P,J4,2,2*%
X95700000Y-66000000D03*
%TO.P,J4,3,3*%
%TO.N,GND*%
X92700000Y-69000000D03*
%TO.P,J4,4,4*%
X95700000Y-69000000D03*
%TD*%
D16*
%TO.P,J1,S1,SHIELD*%
%TO.N,GND*%
X77180000Y-99160000D03*
D17*
X73000000Y-99160000D03*
D16*
X77180000Y-107800000D03*
D17*
X73000000Y-107800000D03*
%TD*%
D18*
%TO.N,GND*%
X79312000Y-100350000D03*
X71200000Y-60600000D03*
X120900000Y-74337500D03*
X136200000Y-59600000D03*
X72449112Y-128137791D03*
X96112000Y-120750000D03*
X97300000Y-77537500D03*
X75449112Y-128737791D03*
X73049112Y-132937791D03*
X138500000Y-127700000D03*
X104112000Y-124750000D03*
X137050888Y-132362209D03*
X84912000Y-108750000D03*
X75800000Y-60800000D03*
X140300000Y-132500000D03*
X84712000Y-102200000D03*
X136800000Y-57800000D03*
X103400000Y-84400000D03*
X138100000Y-132900000D03*
X74600000Y-57000000D03*
X84462000Y-105700000D03*
X140500000Y-128700000D03*
X139800000Y-57000000D03*
X76249112Y-130737791D03*
X74712000Y-97550000D03*
X137500000Y-128100000D03*
X101200000Y-96400000D03*
X141300000Y-130700000D03*
X73400000Y-56800000D03*
X74649112Y-127937791D03*
X120512000Y-117350000D03*
X99512000Y-120750000D03*
X124700000Y-77300000D03*
X72400000Y-57200000D03*
X71000000Y-58600000D03*
X74512000Y-109750000D03*
X116312000Y-126150000D03*
X118312000Y-126150000D03*
X97200000Y-92262500D03*
X76049112Y-129737791D03*
X95000000Y-108000000D03*
X94300000Y-82000000D03*
X75249112Y-132537791D03*
X120912000Y-106550000D03*
X130400000Y-84400000D03*
X138200000Y-62000000D03*
X112786985Y-107836985D03*
X136400000Y-60600000D03*
X108349500Y-117387500D03*
X101200000Y-84400000D03*
X136100000Y-130500000D03*
X92000000Y-84400000D03*
X112400000Y-84400000D03*
X75849112Y-131737791D03*
X112500000Y-82000000D03*
X91712000Y-118950000D03*
X73449112Y-127737791D03*
X114800000Y-114000000D03*
X111547000Y-118115000D03*
X141400000Y-59800000D03*
X139300000Y-132900000D03*
X137150888Y-61462209D03*
X71049112Y-130537791D03*
X141100000Y-129700000D03*
X91712000Y-126950000D03*
X75200000Y-61600000D03*
X71600000Y-57800000D03*
X121500000Y-82000000D03*
X139700000Y-127900000D03*
X90512000Y-110950000D03*
X76712000Y-97550000D03*
X140900000Y-131700000D03*
X114312000Y-126150000D03*
X73512000Y-109750000D03*
X75512000Y-109750000D03*
X97112000Y-129750000D03*
X140400000Y-61600000D03*
X76000000Y-58800000D03*
X141200000Y-58800000D03*
X76512000Y-109750000D03*
X108100000Y-99150000D03*
X136700000Y-128700000D03*
X72512000Y-109750000D03*
X101312000Y-120750000D03*
X75400000Y-57800000D03*
X80312000Y-107950000D03*
X71049112Y-129537791D03*
X74200000Y-62000000D03*
X72712000Y-97550000D03*
X137600000Y-57200000D03*
X128200000Y-84400000D03*
X100512000Y-120750000D03*
X133600000Y-95000000D03*
X103300000Y-82000000D03*
X119200000Y-84400000D03*
X71000000Y-59600000D03*
X138600000Y-56800000D03*
X136100000Y-129500000D03*
X115600000Y-92400000D03*
X102700000Y-74337500D03*
X136200000Y-58600000D03*
X106400000Y-77337500D03*
X122800000Y-104000000D03*
X124400000Y-92262500D03*
X93200000Y-111800000D03*
X133400000Y-92262500D03*
X104712000Y-120150000D03*
X109512000Y-126950000D03*
X100512000Y-121400000D03*
X110200000Y-84400000D03*
X108712000Y-104950000D03*
X73712000Y-97550000D03*
X75712000Y-97550000D03*
X124800000Y-110400000D03*
X76200000Y-59800000D03*
X94200000Y-84400000D03*
X72000000Y-132400000D03*
X120912000Y-108750000D03*
X111937500Y-74581250D03*
X74249112Y-132937791D03*
X109440620Y-114159380D03*
X115537500Y-77581250D03*
X71249112Y-131537791D03*
X93700000Y-74337500D03*
X71649112Y-128737791D03*
X135200000Y-105020000D03*
X139400000Y-62000000D03*
X101312000Y-121400000D03*
X99512000Y-121400000D03*
X141000000Y-60800000D03*
X71950888Y-61462209D03*
X87400000Y-99000000D03*
X121400000Y-84400000D03*
X106400000Y-92400000D03*
X136300000Y-131500000D03*
X140600000Y-57800000D03*
X103400000Y-130200000D03*
X73000000Y-62000000D03*
%TO.N,POT_fuel_lvl*%
X99586000Y-126276000D03*
X99586000Y-123276000D03*
%TO.N,POT_Temp_lvl*%
X101186000Y-123276000D03*
X101186000Y-126276000D03*
%TO.N,3V3*%
X99000000Y-96400000D03*
X93000000Y-96400000D03*
X89600000Y-96400000D03*
X96000000Y-96400000D03*
%TO.N,5V*%
X110712000Y-128150000D03*
X110712000Y-130150000D03*
X110712000Y-124350000D03*
X112112000Y-122750000D03*
%TO.N,SENSOR*%
X105200000Y-95600000D03*
X109600000Y-95600000D03*
%TO.N,BOOT0*%
X110000000Y-111400000D03*
X106512000Y-109950000D03*
%TO.N,CLUSTER_FUEL_LVL*%
X88312000Y-131950000D03*
X88312000Y-130350000D03*
%TO.N,12V*%
X125000000Y-83000000D03*
X109200000Y-83000000D03*
X106400000Y-83000000D03*
X88800000Y-83000000D03*
X126600000Y-83000000D03*
X98200000Y-83000000D03*
X115600000Y-83000000D03*
X91400000Y-83000000D03*
X100800000Y-83000000D03*
X118400000Y-83000000D03*
%TO.N,Net-(IC3-PB2)*%
X108512000Y-102350000D03*
X106712000Y-102350000D03*
%TD*%
D19*
%TO.N,POT_fuel_lvl*%
X99571625Y-126261625D02*
X99571625Y-123539375D01*
X99586000Y-126276000D02*
X99571625Y-126261625D01*
X99586000Y-123525000D02*
X99586000Y-123276000D01*
X99571625Y-123539375D02*
X99586000Y-123525000D01*
%TO.N,POT_Temp_lvl*%
X101186000Y-123276000D02*
X101186000Y-126276000D01*
%TO.N,3V3*%
X96000000Y-96400000D02*
X99000000Y-96400000D01*
X93000000Y-96400000D02*
X89600000Y-96400000D01*
%TO.N,5V*%
X110712000Y-124350000D02*
X110712000Y-124150000D01*
X110712000Y-130150000D02*
X110712000Y-128150000D01*
X110712000Y-124150000D02*
X112112000Y-122750000D01*
%TO.N,SENSOR*%
X109600000Y-95600000D02*
X105200000Y-95600000D01*
%TO.N,BOOT0*%
X110000000Y-111400000D02*
X108550000Y-109950000D01*
X108550000Y-109950000D02*
X106512000Y-109950000D01*
%TO.N,CLUSTER_FUEL_LVL*%
X88312000Y-131950000D02*
X88312000Y-130350000D01*
D20*
%TO.N,12V*%
X115600000Y-83000000D02*
X118400000Y-83000000D01*
X88800000Y-83000000D02*
X91400000Y-83000000D01*
X98200000Y-83000000D02*
X100800000Y-83000000D01*
X106400000Y-83000000D02*
X109200000Y-83000000D01*
X125000000Y-83000000D02*
X126600000Y-83000000D01*
D19*
%TO.N,Net-(IC3-PB2)*%
X108512000Y-102350000D02*
X106712000Y-102350000D01*
%TD*%
%TA.AperFunction,Conductor*%
%TO.N,GND*%
G36*
X142143039Y-56019685D02*
G01*
X142188794Y-56072489D01*
X142200000Y-56124000D01*
X142200000Y-133876000D01*
X142180315Y-133943039D01*
X142127511Y-133988794D01*
X142076000Y-134000000D01*
X70124000Y-134000000D01*
X70056961Y-133980315D01*
X70011206Y-133927511D01*
X70000000Y-133876000D01*
X70000000Y-130293569D01*
X71348612Y-130293569D01*
X71348612Y-130582012D01*
X71348613Y-130582029D01*
X71386261Y-130867997D01*
X71386262Y-130868002D01*
X71386263Y-130868008D01*
X71450795Y-131108844D01*
X71460921Y-131146635D01*
X71460926Y-131146651D01*
X71571303Y-131413127D01*
X71571311Y-131413143D01*
X71715532Y-131662939D01*
X71715543Y-131662955D01*
X71891136Y-131891793D01*
X71891142Y-131891800D01*
X72095102Y-132095760D01*
X72095108Y-132095765D01*
X72323956Y-132271366D01*
X72323963Y-132271370D01*
X72573759Y-132415591D01*
X72573775Y-132415599D01*
X72840251Y-132525976D01*
X72840257Y-132525977D01*
X72840267Y-132525982D01*
X73118895Y-132600640D01*
X73404884Y-132638291D01*
X73404891Y-132638291D01*
X73693333Y-132638291D01*
X73693340Y-132638291D01*
X73979329Y-132600640D01*
X74257957Y-132525982D01*
X74257969Y-132525976D01*
X74257972Y-132525976D01*
X74524448Y-132415599D01*
X74524451Y-132415597D01*
X74524457Y-132415595D01*
X74774268Y-132271366D01*
X75003116Y-132095765D01*
X75207086Y-131891795D01*
X75382687Y-131662947D01*
X75526916Y-131413136D01*
X75542570Y-131375345D01*
X75637297Y-131146651D01*
X75637297Y-131146648D01*
X75637303Y-131146636D01*
X75711961Y-130868008D01*
X75749612Y-130582019D01*
X75749612Y-130293563D01*
X75746662Y-130271153D01*
X87511500Y-130271153D01*
X87511500Y-130428846D01*
X87542261Y-130583489D01*
X87542264Y-130583501D01*
X87602602Y-130729172D01*
X87602606Y-130729179D01*
X87640602Y-130786044D01*
X87661480Y-130852721D01*
X87661500Y-130854935D01*
X87661500Y-131445064D01*
X87641815Y-131512103D01*
X87640603Y-131513954D01*
X87602608Y-131570817D01*
X87602602Y-131570828D01*
X87542264Y-131716498D01*
X87542261Y-131716510D01*
X87511500Y-131871153D01*
X87511500Y-132028846D01*
X87542261Y-132183489D01*
X87542264Y-132183501D01*
X87602602Y-132329172D01*
X87602609Y-132329185D01*
X87690210Y-132460288D01*
X87690213Y-132460292D01*
X87801707Y-132571786D01*
X87801711Y-132571789D01*
X87932814Y-132659390D01*
X87932827Y-132659397D01*
X88078498Y-132719735D01*
X88078503Y-132719737D01*
X88233153Y-132750499D01*
X88233156Y-132750500D01*
X88233158Y-132750500D01*
X88390844Y-132750500D01*
X88390845Y-132750499D01*
X88545497Y-132719737D01*
X88691179Y-132659394D01*
X88822289Y-132571789D01*
X88933789Y-132460289D01*
X89021394Y-132329179D01*
X89081737Y-132183497D01*
X89112500Y-132028842D01*
X89112500Y-131871158D01*
X89112500Y-131871155D01*
X89112499Y-131871153D01*
X89081738Y-131716510D01*
X89081737Y-131716503D01*
X89047395Y-131633593D01*
X89021397Y-131570828D01*
X89021396Y-131570827D01*
X89021394Y-131570821D01*
X88983396Y-131513953D01*
X88962520Y-131447276D01*
X88962500Y-131445064D01*
X88962500Y-130854935D01*
X88982185Y-130787896D01*
X88983366Y-130786090D01*
X89021394Y-130729179D01*
X89081737Y-130583497D01*
X89112500Y-130428842D01*
X89112500Y-130271158D01*
X89112500Y-130271155D01*
X89112499Y-130271153D01*
X89109441Y-130255778D01*
X89081737Y-130116503D01*
X89062955Y-130071158D01*
X89021397Y-129970827D01*
X89021390Y-129970814D01*
X88933789Y-129839711D01*
X88933786Y-129839707D01*
X88822292Y-129728213D01*
X88822288Y-129728210D01*
X88691185Y-129640609D01*
X88691172Y-129640602D01*
X88545501Y-129580264D01*
X88545489Y-129580261D01*
X88390845Y-129549500D01*
X88390842Y-129549500D01*
X88233158Y-129549500D01*
X88233155Y-129549500D01*
X88078510Y-129580261D01*
X88078498Y-129580264D01*
X87932827Y-129640602D01*
X87932814Y-129640609D01*
X87801711Y-129728210D01*
X87801707Y-129728213D01*
X87690213Y-129839707D01*
X87690210Y-129839711D01*
X87602609Y-129970814D01*
X87602602Y-129970827D01*
X87542264Y-130116498D01*
X87542261Y-130116510D01*
X87511500Y-130271153D01*
X75746662Y-130271153D01*
X75711961Y-130007574D01*
X75637303Y-129728946D01*
X75637298Y-129728936D01*
X75637297Y-129728930D01*
X75526920Y-129462454D01*
X75526912Y-129462438D01*
X75382691Y-129212642D01*
X75382687Y-129212635D01*
X75207086Y-128983787D01*
X75207081Y-128983781D01*
X75003121Y-128779821D01*
X75003114Y-128779815D01*
X74774276Y-128604222D01*
X74774274Y-128604220D01*
X74774268Y-128604216D01*
X74774263Y-128604213D01*
X74774260Y-128604211D01*
X74524464Y-128459990D01*
X74524448Y-128459982D01*
X74257972Y-128349605D01*
X74257960Y-128349601D01*
X74257957Y-128349600D01*
X73979329Y-128274942D01*
X73979323Y-128274941D01*
X73979318Y-128274940D01*
X73693350Y-128237292D01*
X73693345Y-128237291D01*
X73693340Y-128237291D01*
X73404884Y-128237291D01*
X73404878Y-128237291D01*
X73404873Y-128237292D01*
X73118905Y-128274940D01*
X73118898Y-128274941D01*
X73118895Y-128274942D01*
X72981287Y-128311814D01*
X72840267Y-128349600D01*
X72840251Y-128349605D01*
X72573775Y-128459982D01*
X72573759Y-128459990D01*
X72323963Y-128604211D01*
X72323947Y-128604222D01*
X72095109Y-128779815D01*
X72095102Y-128779821D01*
X71891142Y-128983781D01*
X71891136Y-128983788D01*
X71715543Y-129212626D01*
X71715532Y-129212642D01*
X71571311Y-129462438D01*
X71571303Y-129462454D01*
X71460926Y-129728930D01*
X71460921Y-129728946D01*
X71396387Y-129969793D01*
X71386264Y-130007571D01*
X71386261Y-130007584D01*
X71348613Y-130293552D01*
X71348613Y-130293560D01*
X71348612Y-130293569D01*
X70000000Y-130293569D01*
X70000000Y-128071153D01*
X109911500Y-128071153D01*
X109911500Y-128228846D01*
X109942261Y-128383489D01*
X109942264Y-128383501D01*
X110002602Y-128529172D01*
X110002606Y-128529179D01*
X110040602Y-128586044D01*
X110061480Y-128652721D01*
X110061500Y-128654935D01*
X110061500Y-129645064D01*
X110041815Y-129712103D01*
X110040603Y-129713954D01*
X110002608Y-129770817D01*
X110002602Y-129770828D01*
X109942264Y-129916498D01*
X109942261Y-129916510D01*
X109911500Y-130071153D01*
X109911500Y-130228846D01*
X109942261Y-130383489D01*
X109942264Y-130383501D01*
X110002602Y-130529172D01*
X110002609Y-130529185D01*
X110090210Y-130660288D01*
X110090213Y-130660292D01*
X110201707Y-130771786D01*
X110201711Y-130771789D01*
X110332814Y-130859390D01*
X110332827Y-130859397D01*
X110478498Y-130919735D01*
X110478503Y-130919737D01*
X110633153Y-130950499D01*
X110633156Y-130950500D01*
X110633158Y-130950500D01*
X110790844Y-130950500D01*
X110790845Y-130950499D01*
X110945497Y-130919737D01*
X111091179Y-130859394D01*
X111222289Y-130771789D01*
X111333789Y-130660289D01*
X111421394Y-130529179D01*
X111481737Y-130383497D01*
X111507142Y-130255778D01*
X136399500Y-130255778D01*
X136399500Y-130544221D01*
X136399501Y-130544238D01*
X136437149Y-130830206D01*
X136437150Y-130830211D01*
X136437151Y-130830217D01*
X136511809Y-131108844D01*
X136511814Y-131108860D01*
X136622191Y-131375336D01*
X136622199Y-131375352D01*
X136766420Y-131625148D01*
X136766431Y-131625164D01*
X136942024Y-131854002D01*
X136942030Y-131854009D01*
X137145990Y-132057969D01*
X137145997Y-132057975D01*
X137308953Y-132183015D01*
X137374844Y-132233575D01*
X137374851Y-132233579D01*
X137624647Y-132377800D01*
X137624663Y-132377808D01*
X137891139Y-132488185D01*
X137891145Y-132488186D01*
X137891155Y-132488191D01*
X138169783Y-132562849D01*
X138455772Y-132600500D01*
X138455779Y-132600500D01*
X138744221Y-132600500D01*
X138744228Y-132600500D01*
X139030217Y-132562849D01*
X139308845Y-132488191D01*
X139308857Y-132488185D01*
X139308860Y-132488185D01*
X139575336Y-132377808D01*
X139575339Y-132377806D01*
X139575345Y-132377804D01*
X139825156Y-132233575D01*
X140054004Y-132057974D01*
X140257974Y-131854004D01*
X140433575Y-131625156D01*
X140577804Y-131375345D01*
X140588345Y-131349898D01*
X140688185Y-131108860D01*
X140688185Y-131108857D01*
X140688191Y-131108845D01*
X140762849Y-130830217D01*
X140800500Y-130544228D01*
X140800500Y-130255772D01*
X140762849Y-129969783D01*
X140688191Y-129691155D01*
X140688186Y-129691145D01*
X140688185Y-129691139D01*
X140577808Y-129424663D01*
X140577800Y-129424647D01*
X140433579Y-129174851D01*
X140433575Y-129174844D01*
X140286972Y-128983787D01*
X140257975Y-128945997D01*
X140257969Y-128945990D01*
X140054009Y-128742030D01*
X140054002Y-128742024D01*
X139825164Y-128566431D01*
X139825162Y-128566429D01*
X139825156Y-128566425D01*
X139825151Y-128566422D01*
X139825148Y-128566420D01*
X139575352Y-128422199D01*
X139575336Y-128422191D01*
X139308860Y-128311814D01*
X139308848Y-128311810D01*
X139308845Y-128311809D01*
X139030217Y-128237151D01*
X139030211Y-128237150D01*
X139030206Y-128237149D01*
X138744238Y-128199501D01*
X138744233Y-128199500D01*
X138744228Y-128199500D01*
X138455772Y-128199500D01*
X138455766Y-128199500D01*
X138455761Y-128199501D01*
X138169793Y-128237149D01*
X138169786Y-128237150D01*
X138169783Y-128237151D01*
X138028745Y-128274942D01*
X137891155Y-128311809D01*
X137891139Y-128311814D01*
X137624663Y-128422191D01*
X137624647Y-128422199D01*
X137374851Y-128566420D01*
X137374835Y-128566431D01*
X137145997Y-128742024D01*
X137145990Y-128742030D01*
X136942030Y-128945990D01*
X136942024Y-128945997D01*
X136766431Y-129174835D01*
X136766420Y-129174851D01*
X136622199Y-129424647D01*
X136622191Y-129424663D01*
X136511814Y-129691139D01*
X136511809Y-129691155D01*
X136451426Y-129916510D01*
X136437152Y-129969780D01*
X136437149Y-129969793D01*
X136399501Y-130255761D01*
X136399500Y-130255778D01*
X111507142Y-130255778D01*
X111507143Y-130255772D01*
X111512500Y-130228844D01*
X111512500Y-130071155D01*
X111512499Y-130071153D01*
X111492543Y-129970827D01*
X111481737Y-129916503D01*
X111421394Y-129770821D01*
X111383396Y-129713953D01*
X111362520Y-129647276D01*
X111362500Y-129645064D01*
X111362500Y-128654935D01*
X111382185Y-128587896D01*
X111383366Y-128586090D01*
X111421394Y-128529179D01*
X111481737Y-128383497D01*
X111512500Y-128228842D01*
X111512500Y-128071158D01*
X111512500Y-128071155D01*
X111512499Y-128071153D01*
X111481738Y-127916510D01*
X111481737Y-127916503D01*
X111481735Y-127916498D01*
X111421397Y-127770827D01*
X111421390Y-127770814D01*
X111333789Y-127639711D01*
X111333786Y-127639707D01*
X111222292Y-127528213D01*
X111222288Y-127528210D01*
X111091185Y-127440609D01*
X111091172Y-127440602D01*
X110945501Y-127380264D01*
X110945489Y-127380261D01*
X110790845Y-127349500D01*
X110790842Y-127349500D01*
X110633158Y-127349500D01*
X110633155Y-127349500D01*
X110478510Y-127380261D01*
X110478498Y-127380264D01*
X110332827Y-127440602D01*
X110332814Y-127440609D01*
X110201711Y-127528210D01*
X110201707Y-127528213D01*
X110090213Y-127639707D01*
X110090210Y-127639711D01*
X110002609Y-127770814D01*
X110002602Y-127770827D01*
X109942264Y-127916498D01*
X109942261Y-127916510D01*
X109911500Y-128071153D01*
X70000000Y-128071153D01*
X70000000Y-123197153D01*
X98785500Y-123197153D01*
X98785500Y-123354846D01*
X98816261Y-123509489D01*
X98816264Y-123509501D01*
X98876602Y-123655172D01*
X98876610Y-123655186D01*
X98900226Y-123690529D01*
X98921105Y-123757206D01*
X98921125Y-123759421D01*
X98921125Y-125792578D01*
X98901440Y-125859617D01*
X98900228Y-125861468D01*
X98876608Y-125896817D01*
X98876602Y-125896828D01*
X98816264Y-126042498D01*
X98816261Y-126042510D01*
X98785500Y-126197153D01*
X98785500Y-126354846D01*
X98816261Y-126509489D01*
X98816264Y-126509501D01*
X98876602Y-126655172D01*
X98876609Y-126655185D01*
X98964210Y-126786288D01*
X98964213Y-126786292D01*
X99075707Y-126897786D01*
X99075711Y-126897789D01*
X99206814Y-126985390D01*
X99206827Y-126985397D01*
X99352498Y-127045735D01*
X99352503Y-127045737D01*
X99507153Y-127076499D01*
X99507156Y-127076500D01*
X99507158Y-127076500D01*
X99664844Y-127076500D01*
X99664845Y-127076499D01*
X99819497Y-127045737D01*
X99965179Y-126985394D01*
X100096289Y-126897789D01*
X100207789Y-126786289D01*
X100282898Y-126673881D01*
X100336510Y-126629076D01*
X100405835Y-126620369D01*
X100468863Y-126650523D01*
X100489102Y-126673881D01*
X100564210Y-126786288D01*
X100564213Y-126786292D01*
X100675707Y-126897786D01*
X100675711Y-126897789D01*
X100806814Y-126985390D01*
X100806827Y-126985397D01*
X100952498Y-127045735D01*
X100952503Y-127045737D01*
X101107153Y-127076499D01*
X101107156Y-127076500D01*
X101107158Y-127076500D01*
X101264844Y-127076500D01*
X101264845Y-127076499D01*
X101419497Y-127045737D01*
X101565179Y-126985394D01*
X101696289Y-126897789D01*
X101807789Y-126786289D01*
X101895394Y-126655179D01*
X101955737Y-126509497D01*
X101986500Y-126354842D01*
X101986500Y-126197158D01*
X101986500Y-126197155D01*
X101986499Y-126197153D01*
X101955738Y-126042510D01*
X101955737Y-126042503D01*
X101895394Y-125896821D01*
X101857396Y-125839953D01*
X101836520Y-125773276D01*
X101836500Y-125771064D01*
X101836500Y-124271153D01*
X109911500Y-124271153D01*
X109911500Y-124428846D01*
X109942261Y-124583489D01*
X109942264Y-124583501D01*
X110002602Y-124729172D01*
X110002609Y-124729185D01*
X110090210Y-124860288D01*
X110090213Y-124860292D01*
X110201707Y-124971786D01*
X110201711Y-124971789D01*
X110332814Y-125059390D01*
X110332827Y-125059397D01*
X110478498Y-125119735D01*
X110478503Y-125119737D01*
X110633153Y-125150499D01*
X110633156Y-125150500D01*
X110633158Y-125150500D01*
X110790844Y-125150500D01*
X110790845Y-125150499D01*
X110945497Y-125119737D01*
X111091179Y-125059394D01*
X111222289Y-124971789D01*
X111333789Y-124860289D01*
X111421394Y-124729179D01*
X111481737Y-124583497D01*
X111512500Y-124428842D01*
X111512500Y-124320807D01*
X111532185Y-124253768D01*
X111548819Y-124233126D01*
X111811131Y-123970814D01*
X112214931Y-123567013D01*
X112276252Y-123533530D01*
X112278317Y-123533099D01*
X112345497Y-123519737D01*
X112491179Y-123459394D01*
X112622289Y-123371789D01*
X112733789Y-123260289D01*
X112821394Y-123129179D01*
X112881737Y-122983497D01*
X112912500Y-122828842D01*
X112912500Y-122671158D01*
X112912500Y-122671155D01*
X112912499Y-122671153D01*
X112881738Y-122516510D01*
X112881738Y-122516508D01*
X112881737Y-122516503D01*
X112877496Y-122506264D01*
X112821397Y-122370827D01*
X112821390Y-122370814D01*
X112733789Y-122239711D01*
X112733786Y-122239707D01*
X112622292Y-122128213D01*
X112622288Y-122128210D01*
X112491185Y-122040609D01*
X112491172Y-122040602D01*
X112345501Y-121980264D01*
X112345489Y-121980261D01*
X112190845Y-121949500D01*
X112190842Y-121949500D01*
X112033158Y-121949500D01*
X112033155Y-121949500D01*
X111878510Y-121980261D01*
X111878498Y-121980264D01*
X111732827Y-122040602D01*
X111732814Y-122040609D01*
X111601711Y-122128210D01*
X111601707Y-122128213D01*
X111490213Y-122239707D01*
X111490210Y-122239711D01*
X111402609Y-122370814D01*
X111402602Y-122370827D01*
X111342264Y-122516498D01*
X111342261Y-122516508D01*
X111328920Y-122583579D01*
X111296535Y-122645490D01*
X111294984Y-122647068D01*
X110246907Y-123695145D01*
X110228119Y-123710565D01*
X110201713Y-123728209D01*
X110090209Y-123839712D01*
X110002609Y-123970814D01*
X110002602Y-123970827D01*
X109942264Y-124116498D01*
X109942261Y-124116510D01*
X109911500Y-124271153D01*
X101836500Y-124271153D01*
X101836500Y-123780935D01*
X101856185Y-123713896D01*
X101857366Y-123712090D01*
X101895394Y-123655179D01*
X101955737Y-123509497D01*
X101986500Y-123354842D01*
X101986500Y-123197158D01*
X101986500Y-123197155D01*
X101986499Y-123197153D01*
X101972978Y-123129179D01*
X101955737Y-123042503D01*
X101931293Y-122983489D01*
X101895397Y-122896827D01*
X101895390Y-122896814D01*
X101807789Y-122765711D01*
X101807786Y-122765707D01*
X101696292Y-122654213D01*
X101696288Y-122654210D01*
X101565185Y-122566609D01*
X101565172Y-122566602D01*
X101419501Y-122506264D01*
X101419489Y-122506261D01*
X101264845Y-122475500D01*
X101264842Y-122475500D01*
X101107158Y-122475500D01*
X101107155Y-122475500D01*
X100952510Y-122506261D01*
X100952498Y-122506264D01*
X100806827Y-122566602D01*
X100806814Y-122566609D01*
X100675711Y-122654210D01*
X100675707Y-122654213D01*
X100564213Y-122765707D01*
X100564210Y-122765711D01*
X100489102Y-122878118D01*
X100435490Y-122922923D01*
X100366165Y-122931630D01*
X100303137Y-122901475D01*
X100282898Y-122878118D01*
X100207789Y-122765711D01*
X100207786Y-122765707D01*
X100096292Y-122654213D01*
X100096288Y-122654210D01*
X99965185Y-122566609D01*
X99965172Y-122566602D01*
X99819501Y-122506264D01*
X99819489Y-122506261D01*
X99664845Y-122475500D01*
X99664842Y-122475500D01*
X99507158Y-122475500D01*
X99507155Y-122475500D01*
X99352510Y-122506261D01*
X99352498Y-122506264D01*
X99206827Y-122566602D01*
X99206814Y-122566609D01*
X99075711Y-122654210D01*
X99075707Y-122654213D01*
X98964213Y-122765707D01*
X98964210Y-122765711D01*
X98876609Y-122896814D01*
X98876602Y-122896827D01*
X98816264Y-123042498D01*
X98816261Y-123042510D01*
X98785500Y-123197153D01*
X70000000Y-123197153D01*
X70000000Y-109871153D01*
X105711500Y-109871153D01*
X105711500Y-110028846D01*
X105742261Y-110183489D01*
X105742264Y-110183501D01*
X105802602Y-110329172D01*
X105802609Y-110329185D01*
X105890210Y-110460288D01*
X105890213Y-110460292D01*
X106001707Y-110571786D01*
X106001711Y-110571789D01*
X106132814Y-110659390D01*
X106132827Y-110659397D01*
X106208181Y-110690609D01*
X106278503Y-110719737D01*
X106433153Y-110750499D01*
X106433156Y-110750500D01*
X106433158Y-110750500D01*
X106590844Y-110750500D01*
X106590845Y-110750499D01*
X106745497Y-110719737D01*
X106891179Y-110659394D01*
X106948044Y-110621397D01*
X107014721Y-110600520D01*
X107016935Y-110600500D01*
X108229192Y-110600500D01*
X108296231Y-110620185D01*
X108316873Y-110636819D01*
X109182984Y-111502930D01*
X109216469Y-111564253D01*
X109216920Y-111566420D01*
X109230261Y-111633489D01*
X109230264Y-111633501D01*
X109290602Y-111779172D01*
X109290609Y-111779185D01*
X109378210Y-111910288D01*
X109378213Y-111910292D01*
X109489707Y-112021786D01*
X109489711Y-112021789D01*
X109620814Y-112109390D01*
X109620827Y-112109397D01*
X109766498Y-112169735D01*
X109766503Y-112169737D01*
X109921153Y-112200499D01*
X109921156Y-112200500D01*
X109921158Y-112200500D01*
X110078844Y-112200500D01*
X110078845Y-112200499D01*
X110233497Y-112169737D01*
X110379179Y-112109394D01*
X110510289Y-112021789D01*
X110621789Y-111910289D01*
X110709394Y-111779179D01*
X110769737Y-111633497D01*
X110800500Y-111478842D01*
X110800500Y-111321158D01*
X110800500Y-111321155D01*
X110800499Y-111321153D01*
X110769738Y-111166510D01*
X110769737Y-111166503D01*
X110769735Y-111166498D01*
X110709397Y-111020827D01*
X110709390Y-111020814D01*
X110621789Y-110889711D01*
X110621786Y-110889707D01*
X110510292Y-110778213D01*
X110510288Y-110778210D01*
X110379185Y-110690609D01*
X110379172Y-110690602D01*
X110233501Y-110630264D01*
X110233489Y-110630261D01*
X110166420Y-110616920D01*
X110104509Y-110584535D01*
X110102930Y-110582984D01*
X108964674Y-109444727D01*
X108964673Y-109444726D01*
X108964669Y-109444723D01*
X108858127Y-109373535D01*
X108739744Y-109324499D01*
X108739738Y-109324497D01*
X108614071Y-109299500D01*
X108614069Y-109299500D01*
X107016935Y-109299500D01*
X106949896Y-109279815D01*
X106948090Y-109278633D01*
X106891179Y-109240606D01*
X106891172Y-109240602D01*
X106745501Y-109180264D01*
X106745489Y-109180261D01*
X106590845Y-109149500D01*
X106590842Y-109149500D01*
X106433158Y-109149500D01*
X106433155Y-109149500D01*
X106278510Y-109180261D01*
X106278498Y-109180264D01*
X106132827Y-109240602D01*
X106132814Y-109240609D01*
X106001711Y-109328210D01*
X106001707Y-109328213D01*
X105890213Y-109439707D01*
X105890210Y-109439711D01*
X105802609Y-109570814D01*
X105802602Y-109570827D01*
X105742264Y-109716498D01*
X105742261Y-109716510D01*
X105711500Y-109871153D01*
X70000000Y-109871153D01*
X70000000Y-107550000D01*
X71630138Y-107550000D01*
X72433012Y-107550000D01*
X72415795Y-107559940D01*
X72359940Y-107615795D01*
X72320444Y-107684204D01*
X72300000Y-107760504D01*
X72300000Y-107839496D01*
X72320444Y-107915796D01*
X72359940Y-107984205D01*
X72415795Y-108040060D01*
X72433012Y-108050000D01*
X71630138Y-108050000D01*
X71638430Y-108091690D01*
X71638430Y-108091692D01*
X71713807Y-108273671D01*
X71713814Y-108273684D01*
X71823248Y-108437462D01*
X71823251Y-108437466D01*
X71962533Y-108576748D01*
X71962537Y-108576751D01*
X72126315Y-108686185D01*
X72126328Y-108686192D01*
X72308306Y-108761569D01*
X72308318Y-108761572D01*
X72501504Y-108799999D01*
X72501508Y-108800000D01*
X72750000Y-108800000D01*
X72750000Y-108100000D01*
X73250000Y-108100000D01*
X73250000Y-108800000D01*
X73498492Y-108800000D01*
X73498495Y-108799999D01*
X73691681Y-108761572D01*
X73691693Y-108761569D01*
X73873671Y-108686192D01*
X73873684Y-108686185D01*
X74037462Y-108576751D01*
X74037466Y-108576748D01*
X74176748Y-108437466D01*
X74176751Y-108437462D01*
X74286185Y-108273684D01*
X74286192Y-108273671D01*
X74361569Y-108091692D01*
X74361569Y-108091690D01*
X74369862Y-108050000D01*
X73566988Y-108050000D01*
X73584205Y-108040060D01*
X73640060Y-107984205D01*
X73679556Y-107915796D01*
X73700000Y-107839496D01*
X73700000Y-107760504D01*
X73679556Y-107684204D01*
X73640060Y-107615795D01*
X73584205Y-107559940D01*
X73566988Y-107550000D01*
X74369862Y-107550000D01*
X75660138Y-107550000D01*
X76463012Y-107550000D01*
X76445795Y-107559940D01*
X76389940Y-107615795D01*
X76350444Y-107684204D01*
X76330000Y-107760504D01*
X76330000Y-107839496D01*
X76350444Y-107915796D01*
X76389940Y-107984205D01*
X76445795Y-108040060D01*
X76463012Y-108050000D01*
X75660138Y-108050000D01*
X75668430Y-108091690D01*
X75668430Y-108091692D01*
X75743807Y-108273671D01*
X75743814Y-108273684D01*
X75853248Y-108437462D01*
X75853251Y-108437466D01*
X75992533Y-108576748D01*
X75992537Y-108576751D01*
X76156315Y-108686185D01*
X76156328Y-108686192D01*
X76338306Y-108761569D01*
X76338318Y-108761572D01*
X76531504Y-108799999D01*
X76531508Y-108800000D01*
X76930000Y-108800000D01*
X76930000Y-108100000D01*
X77430000Y-108100000D01*
X77430000Y-108800000D01*
X77828492Y-108800000D01*
X77828495Y-108799999D01*
X78021681Y-108761572D01*
X78021693Y-108761569D01*
X78203671Y-108686192D01*
X78203684Y-108686185D01*
X78367462Y-108576751D01*
X78367466Y-108576748D01*
X78506748Y-108437466D01*
X78506751Y-108437462D01*
X78616185Y-108273684D01*
X78616192Y-108273671D01*
X78691569Y-108091692D01*
X78691569Y-108091690D01*
X78699862Y-108050000D01*
X77896988Y-108050000D01*
X77914205Y-108040060D01*
X77970060Y-107984205D01*
X78009556Y-107915796D01*
X78030000Y-107839496D01*
X78030000Y-107760504D01*
X78009556Y-107684204D01*
X77970060Y-107615795D01*
X77914205Y-107559940D01*
X77896988Y-107550000D01*
X78699862Y-107550000D01*
X78691569Y-107508309D01*
X78691569Y-107508307D01*
X78616192Y-107326328D01*
X78616185Y-107326315D01*
X78506751Y-107162537D01*
X78506748Y-107162533D01*
X78367466Y-107023251D01*
X78367462Y-107023248D01*
X78203684Y-106913814D01*
X78203671Y-106913807D01*
X78021693Y-106838430D01*
X78021681Y-106838427D01*
X77828495Y-106800000D01*
X77430000Y-106800000D01*
X77430000Y-107500000D01*
X76930000Y-107500000D01*
X76930000Y-106961784D01*
X76949685Y-106894745D01*
X76992000Y-106854397D01*
X77033365Y-106830515D01*
X77140515Y-106723365D01*
X77141372Y-106721879D01*
X77161721Y-106686637D01*
X77216279Y-106592138D01*
X77216281Y-106592135D01*
X77255500Y-106445766D01*
X77255500Y-106294234D01*
X77216281Y-106147865D01*
X77140515Y-106016635D01*
X77033365Y-105909485D01*
X76967750Y-105871602D01*
X76902136Y-105833719D01*
X76828950Y-105814109D01*
X76755766Y-105794500D01*
X76604234Y-105794500D01*
X76457863Y-105833719D01*
X76326635Y-105909485D01*
X76326632Y-105909487D01*
X76219487Y-106016632D01*
X76219485Y-106016635D01*
X76143719Y-106147863D01*
X76104500Y-106294234D01*
X76104500Y-106445765D01*
X76143719Y-106592136D01*
X76183153Y-106660437D01*
X76219485Y-106723365D01*
X76219486Y-106723366D01*
X76223549Y-106730403D01*
X76221346Y-106731674D01*
X76241959Y-106784983D01*
X76227923Y-106853428D01*
X76179112Y-106903420D01*
X76165845Y-106909866D01*
X76156324Y-106913809D01*
X76156315Y-106913814D01*
X75992537Y-107023248D01*
X75992533Y-107023251D01*
X75853251Y-107162533D01*
X75853248Y-107162537D01*
X75743814Y-107326315D01*
X75743807Y-107326328D01*
X75668430Y-107508307D01*
X75668430Y-107508309D01*
X75660138Y-107550000D01*
X74369862Y-107550000D01*
X74361569Y-107508309D01*
X74361569Y-107508307D01*
X74286192Y-107326328D01*
X74286185Y-107326315D01*
X74176751Y-107162537D01*
X74176748Y-107162533D01*
X74037466Y-107023251D01*
X74037462Y-107023248D01*
X73873684Y-106913814D01*
X73873671Y-106913807D01*
X73691693Y-106838430D01*
X73691681Y-106838427D01*
X73498495Y-106800000D01*
X73250000Y-106800000D01*
X73250000Y-107500000D01*
X72750000Y-107500000D01*
X72750000Y-106800000D01*
X72501504Y-106800000D01*
X72308318Y-106838427D01*
X72308306Y-106838430D01*
X72126328Y-106913807D01*
X72126315Y-106913814D01*
X71962537Y-107023248D01*
X71962533Y-107023251D01*
X71823251Y-107162533D01*
X71823248Y-107162537D01*
X71713814Y-107326315D01*
X71713807Y-107326328D01*
X71638430Y-107508307D01*
X71638430Y-107508309D01*
X71630138Y-107550000D01*
X70000000Y-107550000D01*
X70000000Y-102271153D01*
X105911500Y-102271153D01*
X105911500Y-102428846D01*
X105942261Y-102583489D01*
X105942264Y-102583501D01*
X106002602Y-102729172D01*
X106002609Y-102729185D01*
X106090210Y-102860288D01*
X106090213Y-102860292D01*
X106201707Y-102971786D01*
X106201711Y-102971789D01*
X106332814Y-103059390D01*
X106332827Y-103059397D01*
X106478498Y-103119735D01*
X106478503Y-103119737D01*
X106633153Y-103150499D01*
X106633156Y-103150500D01*
X106633158Y-103150500D01*
X106790844Y-103150500D01*
X106790845Y-103150499D01*
X106945497Y-103119737D01*
X107091179Y-103059394D01*
X107148044Y-103021397D01*
X107214721Y-103000520D01*
X107216935Y-103000500D01*
X108007065Y-103000500D01*
X108074104Y-103020185D01*
X108075909Y-103021366D01*
X108132821Y-103059394D01*
X108132823Y-103059395D01*
X108132827Y-103059397D01*
X108278498Y-103119735D01*
X108278503Y-103119737D01*
X108433153Y-103150499D01*
X108433156Y-103150500D01*
X108433158Y-103150500D01*
X108590844Y-103150500D01*
X108590845Y-103150499D01*
X108745497Y-103119737D01*
X108891179Y-103059394D01*
X109022289Y-102971789D01*
X109133789Y-102860289D01*
X109221394Y-102729179D01*
X109281737Y-102583497D01*
X109312500Y-102428842D01*
X109312500Y-102271158D01*
X109312500Y-102271155D01*
X109312499Y-102271153D01*
X109281738Y-102116510D01*
X109281737Y-102116503D01*
X109281735Y-102116498D01*
X109221397Y-101970827D01*
X109221390Y-101970814D01*
X109133789Y-101839711D01*
X109133786Y-101839707D01*
X109022292Y-101728213D01*
X109022288Y-101728210D01*
X108891185Y-101640609D01*
X108891172Y-101640602D01*
X108745501Y-101580264D01*
X108745489Y-101580261D01*
X108590845Y-101549500D01*
X108590842Y-101549500D01*
X108433158Y-101549500D01*
X108433155Y-101549500D01*
X108278510Y-101580261D01*
X108278498Y-101580264D01*
X108132827Y-101640602D01*
X108132820Y-101640606D01*
X108103928Y-101659911D01*
X108075955Y-101678602D01*
X108009279Y-101699480D01*
X108007065Y-101699500D01*
X107216935Y-101699500D01*
X107149896Y-101679815D01*
X107148090Y-101678633D01*
X107091179Y-101640606D01*
X107091172Y-101640602D01*
X106945501Y-101580264D01*
X106945489Y-101580261D01*
X106790845Y-101549500D01*
X106790842Y-101549500D01*
X106633158Y-101549500D01*
X106633155Y-101549500D01*
X106478510Y-101580261D01*
X106478498Y-101580264D01*
X106332827Y-101640602D01*
X106332814Y-101640609D01*
X106201711Y-101728210D01*
X106201707Y-101728213D01*
X106090213Y-101839707D01*
X106090210Y-101839711D01*
X106002609Y-101970814D01*
X106002602Y-101970827D01*
X105942264Y-102116498D01*
X105942261Y-102116510D01*
X105911500Y-102271153D01*
X70000000Y-102271153D01*
X70000000Y-98910000D01*
X71630138Y-98910000D01*
X72433012Y-98910000D01*
X72415795Y-98919940D01*
X72359940Y-98975795D01*
X72320444Y-99044204D01*
X72300000Y-99120504D01*
X72300000Y-99199496D01*
X72320444Y-99275796D01*
X72359940Y-99344205D01*
X72415795Y-99400060D01*
X72433012Y-99410000D01*
X71630138Y-99410000D01*
X71638430Y-99451690D01*
X71638430Y-99451692D01*
X71713807Y-99633671D01*
X71713814Y-99633684D01*
X71823248Y-99797462D01*
X71823251Y-99797466D01*
X71962533Y-99936748D01*
X71962537Y-99936751D01*
X72126315Y-100046185D01*
X72126328Y-100046192D01*
X72308306Y-100121569D01*
X72308318Y-100121572D01*
X72501504Y-100159999D01*
X72501508Y-100160000D01*
X72750000Y-100160000D01*
X72750000Y-99460000D01*
X73250000Y-99460000D01*
X73250000Y-100160000D01*
X73498492Y-100160000D01*
X73498495Y-100159999D01*
X73691681Y-100121572D01*
X73691693Y-100121569D01*
X73873671Y-100046192D01*
X73873684Y-100046185D01*
X74037462Y-99936751D01*
X74037466Y-99936748D01*
X74176748Y-99797466D01*
X74176751Y-99797462D01*
X74286185Y-99633684D01*
X74286192Y-99633671D01*
X74361569Y-99451692D01*
X74361569Y-99451690D01*
X74369862Y-99410000D01*
X73566988Y-99410000D01*
X73584205Y-99400060D01*
X73640060Y-99344205D01*
X73679556Y-99275796D01*
X73700000Y-99199496D01*
X73700000Y-99120504D01*
X73679556Y-99044204D01*
X73640060Y-98975795D01*
X73584205Y-98919940D01*
X73566988Y-98910000D01*
X74369862Y-98910000D01*
X75660138Y-98910000D01*
X76463012Y-98910000D01*
X76445795Y-98919940D01*
X76389940Y-98975795D01*
X76350444Y-99044204D01*
X76330000Y-99120504D01*
X76330000Y-99199496D01*
X76350444Y-99275796D01*
X76389940Y-99344205D01*
X76445795Y-99400060D01*
X76463012Y-99410000D01*
X75660138Y-99410000D01*
X75668430Y-99451690D01*
X75668430Y-99451692D01*
X75743807Y-99633671D01*
X75743814Y-99633684D01*
X75853248Y-99797462D01*
X75853251Y-99797466D01*
X75992533Y-99936748D01*
X75992537Y-99936751D01*
X76156315Y-100046185D01*
X76156328Y-100046192D01*
X76165838Y-100050131D01*
X76220243Y-100093970D01*
X76242310Y-100160264D01*
X76225033Y-100227963D01*
X76221350Y-100233405D01*
X76143719Y-100367863D01*
X76104500Y-100514234D01*
X76104500Y-100665765D01*
X76143719Y-100812136D01*
X76181602Y-100877750D01*
X76219485Y-100943365D01*
X76326635Y-101050515D01*
X76457865Y-101126281D01*
X76604234Y-101165500D01*
X76604236Y-101165500D01*
X76755764Y-101165500D01*
X76755766Y-101165500D01*
X76902135Y-101126281D01*
X77033365Y-101050515D01*
X77140515Y-100943365D01*
X77216281Y-100812135D01*
X77255500Y-100665766D01*
X77255500Y-100514234D01*
X77216281Y-100367865D01*
X77140515Y-100236635D01*
X77033365Y-100129485D01*
X77019654Y-100121569D01*
X76991998Y-100105601D01*
X76943784Y-100055033D01*
X76930000Y-99998215D01*
X76930000Y-99460000D01*
X77430000Y-99460000D01*
X77430000Y-100160000D01*
X77828492Y-100160000D01*
X77828495Y-100159999D01*
X78021681Y-100121572D01*
X78021693Y-100121569D01*
X78203671Y-100046192D01*
X78203684Y-100046185D01*
X78367462Y-99936751D01*
X78367466Y-99936748D01*
X78506748Y-99797466D01*
X78506751Y-99797462D01*
X78616185Y-99633684D01*
X78616192Y-99633671D01*
X78691569Y-99451692D01*
X78691569Y-99451690D01*
X78699862Y-99410000D01*
X77896988Y-99410000D01*
X77914205Y-99400060D01*
X77970060Y-99344205D01*
X78009556Y-99275796D01*
X78030000Y-99199496D01*
X78030000Y-99120504D01*
X78009556Y-99044204D01*
X77970060Y-98975795D01*
X77914205Y-98919940D01*
X77896988Y-98910000D01*
X78699862Y-98910000D01*
X78691569Y-98868309D01*
X78691569Y-98868307D01*
X78616192Y-98686328D01*
X78616185Y-98686315D01*
X78506751Y-98522537D01*
X78506748Y-98522533D01*
X78367466Y-98383251D01*
X78367462Y-98383248D01*
X78203684Y-98273814D01*
X78203671Y-98273807D01*
X78021693Y-98198430D01*
X78021681Y-98198427D01*
X77828495Y-98160000D01*
X77430000Y-98160000D01*
X77430000Y-98860000D01*
X76930000Y-98860000D01*
X76930000Y-98160000D01*
X76531504Y-98160000D01*
X76338318Y-98198427D01*
X76338306Y-98198430D01*
X76156328Y-98273807D01*
X76156315Y-98273814D01*
X75992537Y-98383248D01*
X75992533Y-98383251D01*
X75853251Y-98522533D01*
X75853248Y-98522537D01*
X75743814Y-98686315D01*
X75743807Y-98686328D01*
X75668430Y-98868307D01*
X75668430Y-98868309D01*
X75660138Y-98910000D01*
X74369862Y-98910000D01*
X74361569Y-98868309D01*
X74361569Y-98868307D01*
X74286192Y-98686328D01*
X74286185Y-98686315D01*
X74176751Y-98522537D01*
X74176748Y-98522533D01*
X74037466Y-98383251D01*
X74037462Y-98383248D01*
X73873684Y-98273814D01*
X73873671Y-98273807D01*
X73691693Y-98198430D01*
X73691681Y-98198427D01*
X73498495Y-98160000D01*
X73250000Y-98160000D01*
X73250000Y-98860000D01*
X72750000Y-98860000D01*
X72750000Y-98160000D01*
X72501504Y-98160000D01*
X72308318Y-98198427D01*
X72308306Y-98198430D01*
X72126328Y-98273807D01*
X72126315Y-98273814D01*
X71962537Y-98383248D01*
X71962533Y-98383251D01*
X71823251Y-98522533D01*
X71823248Y-98522537D01*
X71713814Y-98686315D01*
X71713807Y-98686328D01*
X71638430Y-98868307D01*
X71638430Y-98868309D01*
X71630138Y-98910000D01*
X70000000Y-98910000D01*
X70000000Y-96321153D01*
X88799500Y-96321153D01*
X88799500Y-96478846D01*
X88830261Y-96633489D01*
X88830264Y-96633501D01*
X88890602Y-96779172D01*
X88890609Y-96779185D01*
X88978210Y-96910288D01*
X88978213Y-96910292D01*
X89089707Y-97021786D01*
X89089711Y-97021789D01*
X89220814Y-97109390D01*
X89220827Y-97109397D01*
X89366498Y-97169735D01*
X89366503Y-97169737D01*
X89521153Y-97200499D01*
X89521156Y-97200500D01*
X89521158Y-97200500D01*
X89678844Y-97200500D01*
X89678845Y-97200499D01*
X89833497Y-97169737D01*
X89979179Y-97109394D01*
X90036044Y-97071397D01*
X90102721Y-97050520D01*
X90104935Y-97050500D01*
X92495065Y-97050500D01*
X92562104Y-97070185D01*
X92563909Y-97071366D01*
X92620821Y-97109394D01*
X92620823Y-97109395D01*
X92620827Y-97109397D01*
X92766498Y-97169735D01*
X92766503Y-97169737D01*
X92921153Y-97200499D01*
X92921156Y-97200500D01*
X92921158Y-97200500D01*
X93078844Y-97200500D01*
X93078845Y-97200499D01*
X93233497Y-97169737D01*
X93379179Y-97109394D01*
X93510289Y-97021789D01*
X93621789Y-96910289D01*
X93709394Y-96779179D01*
X93769737Y-96633497D01*
X93800500Y-96478842D01*
X93800500Y-96321158D01*
X93800500Y-96321155D01*
X93800499Y-96321153D01*
X95199500Y-96321153D01*
X95199500Y-96478846D01*
X95230261Y-96633489D01*
X95230264Y-96633501D01*
X95290602Y-96779172D01*
X95290609Y-96779185D01*
X95378210Y-96910288D01*
X95378213Y-96910292D01*
X95489707Y-97021786D01*
X95489711Y-97021789D01*
X95620814Y-97109390D01*
X95620827Y-97109397D01*
X95766498Y-97169735D01*
X95766503Y-97169737D01*
X95921153Y-97200499D01*
X95921156Y-97200500D01*
X95921158Y-97200500D01*
X96078844Y-97200500D01*
X96078845Y-97200499D01*
X96233497Y-97169737D01*
X96379179Y-97109394D01*
X96436044Y-97071397D01*
X96502721Y-97050520D01*
X96504935Y-97050500D01*
X98495065Y-97050500D01*
X98562104Y-97070185D01*
X98563909Y-97071366D01*
X98620821Y-97109394D01*
X98620823Y-97109395D01*
X98620827Y-97109397D01*
X98766498Y-97169735D01*
X98766503Y-97169737D01*
X98921153Y-97200499D01*
X98921156Y-97200500D01*
X98921158Y-97200500D01*
X99078844Y-97200500D01*
X99078845Y-97200499D01*
X99233497Y-97169737D01*
X99379179Y-97109394D01*
X99510289Y-97021789D01*
X99621789Y-96910289D01*
X99709394Y-96779179D01*
X99769737Y-96633497D01*
X99800500Y-96478842D01*
X99800500Y-96321158D01*
X99800500Y-96321155D01*
X99800499Y-96321153D01*
X99780734Y-96221789D01*
X99769737Y-96166503D01*
X99746452Y-96110288D01*
X99709397Y-96020827D01*
X99709390Y-96020814D01*
X99621789Y-95889711D01*
X99621786Y-95889707D01*
X99510292Y-95778213D01*
X99510288Y-95778210D01*
X99379185Y-95690609D01*
X99379172Y-95690602D01*
X99233501Y-95630264D01*
X99233489Y-95630261D01*
X99078845Y-95599500D01*
X99078842Y-95599500D01*
X98921158Y-95599500D01*
X98921155Y-95599500D01*
X98766510Y-95630261D01*
X98766498Y-95630264D01*
X98620827Y-95690602D01*
X98620820Y-95690606D01*
X98591928Y-95709911D01*
X98563955Y-95728602D01*
X98497279Y-95749480D01*
X98495065Y-95749500D01*
X96504935Y-95749500D01*
X96437896Y-95729815D01*
X96436090Y-95728633D01*
X96379179Y-95690606D01*
X96379172Y-95690602D01*
X96233501Y-95630264D01*
X96233489Y-95630261D01*
X96078845Y-95599500D01*
X96078842Y-95599500D01*
X95921158Y-95599500D01*
X95921155Y-95599500D01*
X95766510Y-95630261D01*
X95766498Y-95630264D01*
X95620827Y-95690602D01*
X95620814Y-95690609D01*
X95489711Y-95778210D01*
X95489707Y-95778213D01*
X95378213Y-95889707D01*
X95378210Y-95889711D01*
X95290609Y-96020814D01*
X95290602Y-96020827D01*
X95230264Y-96166498D01*
X95230261Y-96166510D01*
X95199500Y-96321153D01*
X93800499Y-96321153D01*
X93780734Y-96221789D01*
X93769737Y-96166503D01*
X93746452Y-96110288D01*
X93709397Y-96020827D01*
X93709390Y-96020814D01*
X93621789Y-95889711D01*
X93621786Y-95889707D01*
X93510292Y-95778213D01*
X93510288Y-95778210D01*
X93379185Y-95690609D01*
X93379172Y-95690602D01*
X93233501Y-95630264D01*
X93233489Y-95630261D01*
X93078845Y-95599500D01*
X93078842Y-95599500D01*
X92921158Y-95599500D01*
X92921155Y-95599500D01*
X92766510Y-95630261D01*
X92766498Y-95630264D01*
X92620827Y-95690602D01*
X92620820Y-95690606D01*
X92591928Y-95709911D01*
X92563955Y-95728602D01*
X92497279Y-95749480D01*
X92495065Y-95749500D01*
X90104935Y-95749500D01*
X90037896Y-95729815D01*
X90036090Y-95728633D01*
X89979179Y-95690606D01*
X89979172Y-95690602D01*
X89833501Y-95630264D01*
X89833489Y-95630261D01*
X89678845Y-95599500D01*
X89678842Y-95599500D01*
X89521158Y-95599500D01*
X89521155Y-95599500D01*
X89366510Y-95630261D01*
X89366498Y-95630264D01*
X89220827Y-95690602D01*
X89220814Y-95690609D01*
X89089711Y-95778210D01*
X89089707Y-95778213D01*
X88978213Y-95889707D01*
X88978210Y-95889711D01*
X88890609Y-96020814D01*
X88890602Y-96020827D01*
X88830264Y-96166498D01*
X88830261Y-96166510D01*
X88799500Y-96321153D01*
X70000000Y-96321153D01*
X70000000Y-95521153D01*
X104399500Y-95521153D01*
X104399500Y-95678846D01*
X104430261Y-95833489D01*
X104430264Y-95833501D01*
X104490602Y-95979172D01*
X104490609Y-95979185D01*
X104578210Y-96110288D01*
X104578213Y-96110292D01*
X104689707Y-96221786D01*
X104689711Y-96221789D01*
X104820814Y-96309390D01*
X104820827Y-96309397D01*
X104966498Y-96369735D01*
X104966503Y-96369737D01*
X105121153Y-96400499D01*
X105121156Y-96400500D01*
X105121158Y-96400500D01*
X105278844Y-96400500D01*
X105278845Y-96400499D01*
X105433497Y-96369737D01*
X105579179Y-96309394D01*
X105636044Y-96271397D01*
X105702721Y-96250520D01*
X105704935Y-96250500D01*
X109095065Y-96250500D01*
X109162104Y-96270185D01*
X109163909Y-96271366D01*
X109220821Y-96309394D01*
X109220823Y-96309395D01*
X109220827Y-96309397D01*
X109366498Y-96369735D01*
X109366503Y-96369737D01*
X109521153Y-96400499D01*
X109521156Y-96400500D01*
X109521158Y-96400500D01*
X109678844Y-96400500D01*
X109678845Y-96400499D01*
X109833497Y-96369737D01*
X109979179Y-96309394D01*
X110110289Y-96221789D01*
X110221789Y-96110289D01*
X110309394Y-95979179D01*
X110369737Y-95833497D01*
X110400500Y-95678842D01*
X110400500Y-95521158D01*
X110400500Y-95521155D01*
X110400499Y-95521153D01*
X110369738Y-95366510D01*
X110369737Y-95366503D01*
X110369735Y-95366498D01*
X110309397Y-95220827D01*
X110309390Y-95220814D01*
X110221789Y-95089711D01*
X110221786Y-95089707D01*
X110110292Y-94978213D01*
X110110288Y-94978210D01*
X109979185Y-94890609D01*
X109979172Y-94890602D01*
X109833501Y-94830264D01*
X109833489Y-94830261D01*
X109678845Y-94799500D01*
X109678842Y-94799500D01*
X109521158Y-94799500D01*
X109521155Y-94799500D01*
X109366510Y-94830261D01*
X109366498Y-94830264D01*
X109220827Y-94890602D01*
X109220820Y-94890606D01*
X109191928Y-94909911D01*
X109163955Y-94928602D01*
X109097279Y-94949480D01*
X109095065Y-94949500D01*
X105704935Y-94949500D01*
X105637896Y-94929815D01*
X105636090Y-94928633D01*
X105579179Y-94890606D01*
X105579172Y-94890602D01*
X105433501Y-94830264D01*
X105433489Y-94830261D01*
X105278845Y-94799500D01*
X105278842Y-94799500D01*
X105121158Y-94799500D01*
X105121155Y-94799500D01*
X104966510Y-94830261D01*
X104966498Y-94830264D01*
X104820827Y-94890602D01*
X104820814Y-94890609D01*
X104689711Y-94978210D01*
X104689707Y-94978213D01*
X104578213Y-95089707D01*
X104578210Y-95089711D01*
X104490609Y-95220814D01*
X104490602Y-95220827D01*
X104430264Y-95366498D01*
X104430261Y-95366510D01*
X104399500Y-95521153D01*
X70000000Y-95521153D01*
X70000000Y-82916228D01*
X87949500Y-82916228D01*
X87949500Y-83083771D01*
X87982182Y-83248074D01*
X87982184Y-83248082D01*
X88046295Y-83402860D01*
X88139373Y-83542162D01*
X88257837Y-83660626D01*
X88350494Y-83722537D01*
X88397137Y-83753703D01*
X88551918Y-83817816D01*
X88716228Y-83850499D01*
X88716232Y-83850500D01*
X88716233Y-83850500D01*
X91483768Y-83850500D01*
X91483769Y-83850499D01*
X91648082Y-83817816D01*
X91802863Y-83753703D01*
X91942162Y-83660626D01*
X92060626Y-83542162D01*
X92153703Y-83402863D01*
X92217816Y-83248082D01*
X92250500Y-83083767D01*
X92250500Y-82916233D01*
X92250499Y-82916228D01*
X97349500Y-82916228D01*
X97349500Y-83083771D01*
X97382182Y-83248074D01*
X97382184Y-83248082D01*
X97446295Y-83402860D01*
X97539373Y-83542162D01*
X97657837Y-83660626D01*
X97750494Y-83722537D01*
X97797137Y-83753703D01*
X97951918Y-83817816D01*
X98116228Y-83850499D01*
X98116232Y-83850500D01*
X98116233Y-83850500D01*
X100883768Y-83850500D01*
X100883769Y-83850499D01*
X101048082Y-83817816D01*
X101202863Y-83753703D01*
X101342162Y-83660626D01*
X101460626Y-83542162D01*
X101553703Y-83402863D01*
X101617816Y-83248082D01*
X101650500Y-83083767D01*
X101650500Y-82916233D01*
X101650499Y-82916228D01*
X105549500Y-82916228D01*
X105549500Y-83083771D01*
X105582182Y-83248074D01*
X105582184Y-83248082D01*
X105646295Y-83402860D01*
X105739373Y-83542162D01*
X105857837Y-83660626D01*
X105950494Y-83722537D01*
X105997137Y-83753703D01*
X106151918Y-83817816D01*
X106316228Y-83850499D01*
X106316232Y-83850500D01*
X106316233Y-83850500D01*
X109283768Y-83850500D01*
X109283769Y-83850499D01*
X109448082Y-83817816D01*
X109602863Y-83753703D01*
X109742162Y-83660626D01*
X109860626Y-83542162D01*
X109953703Y-83402863D01*
X110017816Y-83248082D01*
X110050500Y-83083767D01*
X110050500Y-82916233D01*
X110050499Y-82916228D01*
X114749500Y-82916228D01*
X114749500Y-83083771D01*
X114782182Y-83248074D01*
X114782184Y-83248082D01*
X114846295Y-83402860D01*
X114939373Y-83542162D01*
X115057837Y-83660626D01*
X115150494Y-83722537D01*
X115197137Y-83753703D01*
X115351918Y-83817816D01*
X115516228Y-83850499D01*
X115516232Y-83850500D01*
X115516233Y-83850500D01*
X118483768Y-83850500D01*
X118483769Y-83850499D01*
X118648082Y-83817816D01*
X118802863Y-83753703D01*
X118942162Y-83660626D01*
X119060626Y-83542162D01*
X119153703Y-83402863D01*
X119217816Y-83248082D01*
X119250500Y-83083767D01*
X119250500Y-82916233D01*
X119250499Y-82916228D01*
X124149500Y-82916228D01*
X124149500Y-83083771D01*
X124182182Y-83248074D01*
X124182184Y-83248082D01*
X124246295Y-83402860D01*
X124339373Y-83542162D01*
X124457837Y-83660626D01*
X124550494Y-83722537D01*
X124597137Y-83753703D01*
X124751918Y-83817816D01*
X124916228Y-83850499D01*
X124916232Y-83850500D01*
X124916233Y-83850500D01*
X126683768Y-83850500D01*
X126683769Y-83850499D01*
X126848082Y-83817816D01*
X127002863Y-83753703D01*
X127142162Y-83660626D01*
X127260626Y-83542162D01*
X127353703Y-83402863D01*
X127417816Y-83248082D01*
X127450500Y-83083767D01*
X127450500Y-82916233D01*
X127417816Y-82751918D01*
X127353703Y-82597137D01*
X127322537Y-82550494D01*
X127260626Y-82457837D01*
X127142162Y-82339373D01*
X127002860Y-82246295D01*
X126848082Y-82182184D01*
X126848074Y-82182182D01*
X126683771Y-82149500D01*
X126683767Y-82149500D01*
X124916233Y-82149500D01*
X124916228Y-82149500D01*
X124751925Y-82182182D01*
X124751917Y-82182184D01*
X124597139Y-82246295D01*
X124457837Y-82339373D01*
X124339373Y-82457837D01*
X124246295Y-82597139D01*
X124182184Y-82751917D01*
X124182182Y-82751925D01*
X124149500Y-82916228D01*
X119250499Y-82916228D01*
X119217816Y-82751918D01*
X119153703Y-82597137D01*
X119122537Y-82550494D01*
X119060626Y-82457837D01*
X118942162Y-82339373D01*
X118802860Y-82246295D01*
X118648082Y-82182184D01*
X118648074Y-82182182D01*
X118483771Y-82149500D01*
X118483767Y-82149500D01*
X115516233Y-82149500D01*
X115516228Y-82149500D01*
X115351925Y-82182182D01*
X115351917Y-82182184D01*
X115197139Y-82246295D01*
X115057837Y-82339373D01*
X114939373Y-82457837D01*
X114846295Y-82597139D01*
X114782184Y-82751917D01*
X114782182Y-82751925D01*
X114749500Y-82916228D01*
X110050499Y-82916228D01*
X110017816Y-82751918D01*
X109953703Y-82597137D01*
X109922537Y-82550494D01*
X109860626Y-82457837D01*
X109742162Y-82339373D01*
X109602860Y-82246295D01*
X109448082Y-82182184D01*
X109448074Y-82182182D01*
X109283771Y-82149500D01*
X109283767Y-82149500D01*
X106316233Y-82149500D01*
X106316228Y-82149500D01*
X106151925Y-82182182D01*
X106151917Y-82182184D01*
X105997139Y-82246295D01*
X105857837Y-82339373D01*
X105739373Y-82457837D01*
X105646295Y-82597139D01*
X105582184Y-82751917D01*
X105582182Y-82751925D01*
X105549500Y-82916228D01*
X101650499Y-82916228D01*
X101617816Y-82751918D01*
X101553703Y-82597137D01*
X101522537Y-82550494D01*
X101460626Y-82457837D01*
X101342162Y-82339373D01*
X101202860Y-82246295D01*
X101048082Y-82182184D01*
X101048074Y-82182182D01*
X100883771Y-82149500D01*
X100883767Y-82149500D01*
X98116233Y-82149500D01*
X98116228Y-82149500D01*
X97951925Y-82182182D01*
X97951917Y-82182184D01*
X97797139Y-82246295D01*
X97657837Y-82339373D01*
X97539373Y-82457837D01*
X97446295Y-82597139D01*
X97382184Y-82751917D01*
X97382182Y-82751925D01*
X97349500Y-82916228D01*
X92250499Y-82916228D01*
X92217816Y-82751918D01*
X92153703Y-82597137D01*
X92122537Y-82550494D01*
X92060626Y-82457837D01*
X91942162Y-82339373D01*
X91802860Y-82246295D01*
X91648082Y-82182184D01*
X91648074Y-82182182D01*
X91483771Y-82149500D01*
X91483767Y-82149500D01*
X88716233Y-82149500D01*
X88716228Y-82149500D01*
X88551925Y-82182182D01*
X88551917Y-82182184D01*
X88397139Y-82246295D01*
X88257837Y-82339373D01*
X88139373Y-82457837D01*
X88046295Y-82597139D01*
X87982184Y-82751917D01*
X87982182Y-82751925D01*
X87949500Y-82916228D01*
X70000000Y-82916228D01*
X70000000Y-66181947D01*
X76300000Y-66181947D01*
X76300000Y-67150000D01*
X77300000Y-67150000D01*
X77300000Y-67650000D01*
X76300000Y-67650000D01*
X76300000Y-68618052D01*
X76336934Y-68851247D01*
X76409897Y-69075802D01*
X76517085Y-69286171D01*
X76655866Y-69477186D01*
X76822813Y-69644133D01*
X77013828Y-69782914D01*
X77224195Y-69890102D01*
X77448744Y-69963063D01*
X77448750Y-69963065D01*
X77550000Y-69979101D01*
X77550000Y-68933012D01*
X77607007Y-68965925D01*
X77734174Y-69000000D01*
X77865826Y-69000000D01*
X77992993Y-68965925D01*
X78050000Y-68933012D01*
X78050000Y-69979100D01*
X78151249Y-69963065D01*
X78151255Y-69963063D01*
X78375804Y-69890102D01*
X78586171Y-69782914D01*
X78777186Y-69644133D01*
X78944133Y-69477186D01*
X79082914Y-69286171D01*
X79100257Y-69252135D01*
X79799500Y-69252135D01*
X79799500Y-71347870D01*
X79799501Y-71347876D01*
X79805908Y-71407483D01*
X79856202Y-71542328D01*
X79856206Y-71542335D01*
X79942452Y-71657544D01*
X79942455Y-71657547D01*
X80057664Y-71743793D01*
X80057671Y-71743797D01*
X80192517Y-71794091D01*
X80192516Y-71794091D01*
X80199444Y-71794835D01*
X80252127Y-71800500D01*
X84947872Y-71800499D01*
X85007483Y-71794091D01*
X85142331Y-71743796D01*
X85257546Y-71657546D01*
X85343796Y-71542331D01*
X85394091Y-71407483D01*
X85400500Y-71347873D01*
X85400499Y-69252128D01*
X85394091Y-69192517D01*
X85359289Y-69099209D01*
X85343797Y-69057671D01*
X85343795Y-69057668D01*
X85300624Y-68999999D01*
X85257546Y-68942454D01*
X85257544Y-68942452D01*
X85257543Y-68942451D01*
X85201953Y-68900836D01*
X91440000Y-68900836D01*
X91440000Y-69099163D01*
X91471026Y-69295052D01*
X91532310Y-69483669D01*
X91532311Y-69483672D01*
X91622350Y-69660380D01*
X91649161Y-69697283D01*
X92208871Y-69137574D01*
X92224755Y-69196853D01*
X92291898Y-69313147D01*
X92386853Y-69408102D01*
X92503147Y-69475245D01*
X92562424Y-69491128D01*
X92002714Y-70050837D01*
X92002715Y-70050838D01*
X92039612Y-70077645D01*
X92216327Y-70167688D01*
X92216330Y-70167689D01*
X92404947Y-70228973D01*
X92600837Y-70260000D01*
X92799163Y-70260000D01*
X92995052Y-70228973D01*
X93183669Y-70167689D01*
X93183672Y-70167688D01*
X93360382Y-70077648D01*
X93397283Y-70050837D01*
X93397284Y-70050836D01*
X92837575Y-69491127D01*
X92896853Y-69475245D01*
X93013147Y-69408102D01*
X93108102Y-69313147D01*
X93175245Y-69196853D01*
X93191128Y-69137575D01*
X93750836Y-69697284D01*
X93750837Y-69697283D01*
X93777648Y-69660382D01*
X93867688Y-69483672D01*
X93867689Y-69483669D01*
X93928973Y-69295052D01*
X93960000Y-69099163D01*
X93960000Y-68900836D01*
X94440000Y-68900836D01*
X94440000Y-69099163D01*
X94471026Y-69295052D01*
X94532310Y-69483669D01*
X94532311Y-69483672D01*
X94622350Y-69660380D01*
X94649161Y-69697283D01*
X95208871Y-69137574D01*
X95224755Y-69196853D01*
X95291898Y-69313147D01*
X95386853Y-69408102D01*
X95503147Y-69475245D01*
X95562424Y-69491128D01*
X95002714Y-70050837D01*
X95002715Y-70050838D01*
X95039612Y-70077645D01*
X95216327Y-70167688D01*
X95216330Y-70167689D01*
X95404947Y-70228973D01*
X95600837Y-70260000D01*
X95799163Y-70260000D01*
X95995052Y-70228973D01*
X96183669Y-70167689D01*
X96183672Y-70167688D01*
X96360382Y-70077648D01*
X96397283Y-70050837D01*
X96397284Y-70050836D01*
X95837575Y-69491127D01*
X95896853Y-69475245D01*
X96013147Y-69408102D01*
X96108102Y-69313147D01*
X96175245Y-69196853D01*
X96191128Y-69137575D01*
X96750836Y-69697284D01*
X96750837Y-69697283D01*
X96777648Y-69660382D01*
X96867688Y-69483672D01*
X96867689Y-69483669D01*
X96928973Y-69295052D01*
X96960000Y-69099163D01*
X96960000Y-68900836D01*
X96959993Y-68900790D01*
X104179500Y-68900790D01*
X104179500Y-69099209D01*
X104203718Y-69252116D01*
X104210537Y-69295168D01*
X104229851Y-69354609D01*
X104271850Y-69483868D01*
X104305833Y-69550562D01*
X104361923Y-69660646D01*
X104478544Y-69821161D01*
X104618839Y-69961456D01*
X104779354Y-70078077D01*
X104892800Y-70135880D01*
X104956131Y-70168149D01*
X104956133Y-70168149D01*
X104956136Y-70168151D01*
X105144832Y-70229463D01*
X105242814Y-70244981D01*
X105340791Y-70260500D01*
X105340796Y-70260500D01*
X105539209Y-70260500D01*
X105628278Y-70246392D01*
X105735168Y-70229463D01*
X105923864Y-70168151D01*
X106100646Y-70078077D01*
X106261161Y-69961456D01*
X106401456Y-69821161D01*
X106518077Y-69660646D01*
X106608151Y-69483864D01*
X106669463Y-69295168D01*
X106691474Y-69156196D01*
X106700500Y-69099209D01*
X106700500Y-68900790D01*
X107179500Y-68900790D01*
X107179500Y-69099209D01*
X107203718Y-69252116D01*
X107210537Y-69295168D01*
X107229851Y-69354609D01*
X107271850Y-69483868D01*
X107305833Y-69550562D01*
X107361923Y-69660646D01*
X107478544Y-69821161D01*
X107618839Y-69961456D01*
X107779354Y-70078077D01*
X107892800Y-70135880D01*
X107956131Y-70168149D01*
X107956133Y-70168149D01*
X107956136Y-70168151D01*
X108144832Y-70229463D01*
X108242814Y-70244981D01*
X108340791Y-70260500D01*
X108340796Y-70260500D01*
X108539209Y-70260500D01*
X108628278Y-70246392D01*
X108735168Y-70229463D01*
X108923864Y-70168151D01*
X109100646Y-70078077D01*
X109261161Y-69961456D01*
X109401456Y-69821161D01*
X109518077Y-69660646D01*
X109608151Y-69483864D01*
X109669463Y-69295168D01*
X109691474Y-69156196D01*
X109700500Y-69099209D01*
X109700500Y-68900790D01*
X110179500Y-68900790D01*
X110179500Y-69099209D01*
X110203718Y-69252116D01*
X110210537Y-69295168D01*
X110229851Y-69354609D01*
X110271850Y-69483868D01*
X110305833Y-69550562D01*
X110361923Y-69660646D01*
X110478544Y-69821161D01*
X110618839Y-69961456D01*
X110779354Y-70078077D01*
X110892800Y-70135880D01*
X110956131Y-70168149D01*
X110956133Y-70168149D01*
X110956136Y-70168151D01*
X111144832Y-70229463D01*
X111242814Y-70244981D01*
X111340791Y-70260500D01*
X111340796Y-70260500D01*
X111539209Y-70260500D01*
X111628278Y-70246392D01*
X111735168Y-70229463D01*
X111923864Y-70168151D01*
X112100646Y-70078077D01*
X112261161Y-69961456D01*
X112401456Y-69821161D01*
X112518077Y-69660646D01*
X112608151Y-69483864D01*
X112669463Y-69295168D01*
X112691474Y-69156196D01*
X112700500Y-69099209D01*
X112700500Y-68900790D01*
X113179500Y-68900790D01*
X113179500Y-69099209D01*
X113203718Y-69252116D01*
X113210537Y-69295168D01*
X113229851Y-69354609D01*
X113271850Y-69483868D01*
X113305833Y-69550562D01*
X113361923Y-69660646D01*
X113478544Y-69821161D01*
X113618839Y-69961456D01*
X113779354Y-70078077D01*
X113892800Y-70135880D01*
X113956131Y-70168149D01*
X113956133Y-70168149D01*
X113956136Y-70168151D01*
X114144832Y-70229463D01*
X114242814Y-70244981D01*
X114340791Y-70260500D01*
X114340796Y-70260500D01*
X114539209Y-70260500D01*
X114628278Y-70246392D01*
X114735168Y-70229463D01*
X114923864Y-70168151D01*
X115100646Y-70078077D01*
X115261161Y-69961456D01*
X115401456Y-69821161D01*
X115518077Y-69660646D01*
X115608151Y-69483864D01*
X115669463Y-69295168D01*
X115691474Y-69156196D01*
X115691475Y-69156190D01*
X123089500Y-69156190D01*
X123089500Y-69354609D01*
X123109941Y-69483669D01*
X123120537Y-69550568D01*
X123167140Y-69693996D01*
X123181850Y-69739268D01*
X123223578Y-69821163D01*
X123271923Y-69916046D01*
X123388544Y-70076561D01*
X123528839Y-70216856D01*
X123689354Y-70333477D01*
X123802800Y-70391280D01*
X123866131Y-70423549D01*
X123866133Y-70423549D01*
X123866136Y-70423551D01*
X124054832Y-70484863D01*
X124152814Y-70500381D01*
X124250791Y-70515900D01*
X124250796Y-70515900D01*
X124449209Y-70515900D01*
X124538278Y-70501792D01*
X124645168Y-70484863D01*
X124833864Y-70423551D01*
X125010646Y-70333477D01*
X125171161Y-70216856D01*
X125311456Y-70076561D01*
X125428077Y-69916046D01*
X125518151Y-69739264D01*
X125579463Y-69550568D01*
X125602027Y-69408102D01*
X125610500Y-69354609D01*
X125610500Y-69156190D01*
X126089500Y-69156190D01*
X126089500Y-69354609D01*
X126109941Y-69483669D01*
X126120537Y-69550568D01*
X126167140Y-69693996D01*
X126181850Y-69739268D01*
X126223578Y-69821163D01*
X126271923Y-69916046D01*
X126388544Y-70076561D01*
X126528839Y-70216856D01*
X126689354Y-70333477D01*
X126802800Y-70391280D01*
X126866131Y-70423549D01*
X126866133Y-70423549D01*
X126866136Y-70423551D01*
X127054832Y-70484863D01*
X127152814Y-70500381D01*
X127250791Y-70515900D01*
X127250796Y-70515900D01*
X127449209Y-70515900D01*
X127538278Y-70501792D01*
X127645168Y-70484863D01*
X127833864Y-70423551D01*
X128010646Y-70333477D01*
X128171161Y-70216856D01*
X128311456Y-70076561D01*
X128428077Y-69916046D01*
X128518151Y-69739264D01*
X128579463Y-69550568D01*
X128602027Y-69408102D01*
X128610500Y-69354609D01*
X128610500Y-69156190D01*
X129089500Y-69156190D01*
X129089500Y-69354609D01*
X129109941Y-69483669D01*
X129120537Y-69550568D01*
X129167140Y-69693996D01*
X129181850Y-69739268D01*
X129223578Y-69821163D01*
X129271923Y-69916046D01*
X129388544Y-70076561D01*
X129528839Y-70216856D01*
X129689354Y-70333477D01*
X129802800Y-70391280D01*
X129866131Y-70423549D01*
X129866133Y-70423549D01*
X129866136Y-70423551D01*
X130054832Y-70484863D01*
X130152814Y-70500381D01*
X130250791Y-70515900D01*
X130250796Y-70515900D01*
X130449209Y-70515900D01*
X130538278Y-70501792D01*
X130645168Y-70484863D01*
X130833864Y-70423551D01*
X131010646Y-70333477D01*
X131171161Y-70216856D01*
X131311456Y-70076561D01*
X131428077Y-69916046D01*
X131518151Y-69739264D01*
X131579463Y-69550568D01*
X131602027Y-69408102D01*
X131610500Y-69354609D01*
X131610500Y-69156190D01*
X131593570Y-69049306D01*
X131579463Y-68960232D01*
X131518151Y-68771536D01*
X131518149Y-68771533D01*
X131518149Y-68771531D01*
X131484223Y-68704947D01*
X131428077Y-68594754D01*
X131311456Y-68434239D01*
X131171161Y-68293944D01*
X131010646Y-68177323D01*
X130953922Y-68148421D01*
X130833868Y-68087250D01*
X130788596Y-68072540D01*
X130645168Y-68025937D01*
X130645162Y-68025936D01*
X130449209Y-67994900D01*
X130449204Y-67994900D01*
X130250796Y-67994900D01*
X130250791Y-67994900D01*
X130054837Y-68025936D01*
X130054835Y-68025936D01*
X130054832Y-68025937D01*
X129960484Y-68056593D01*
X129866131Y-68087250D01*
X129689352Y-68177324D01*
X129689349Y-68177326D01*
X129687267Y-68178839D01*
X129528839Y-68293944D01*
X129528837Y-68293946D01*
X129528836Y-68293946D01*
X129388546Y-68434236D01*
X129388546Y-68434237D01*
X129388544Y-68434239D01*
X129348031Y-68490000D01*
X129271926Y-68594749D01*
X129271924Y-68594752D01*
X129181850Y-68771531D01*
X129155949Y-68851247D01*
X129120537Y-68960232D01*
X129120536Y-68960235D01*
X129120536Y-68960237D01*
X129089500Y-69156190D01*
X128610500Y-69156190D01*
X128593570Y-69049306D01*
X128579463Y-68960232D01*
X128518151Y-68771536D01*
X128518149Y-68771533D01*
X128518149Y-68771531D01*
X128484223Y-68704947D01*
X128428077Y-68594754D01*
X128311456Y-68434239D01*
X128171161Y-68293944D01*
X128010646Y-68177323D01*
X127953922Y-68148421D01*
X127833868Y-68087250D01*
X127788596Y-68072540D01*
X127645168Y-68025937D01*
X127645162Y-68025936D01*
X127449209Y-67994900D01*
X127449204Y-67994900D01*
X127250796Y-67994900D01*
X127250791Y-67994900D01*
X127054837Y-68025936D01*
X127054835Y-68025936D01*
X127054832Y-68025937D01*
X126960484Y-68056593D01*
X126866131Y-68087250D01*
X126689352Y-68177324D01*
X126689349Y-68177326D01*
X126687267Y-68178839D01*
X126528839Y-68293944D01*
X126528837Y-68293946D01*
X126528836Y-68293946D01*
X126388546Y-68434236D01*
X126388546Y-68434237D01*
X126388544Y-68434239D01*
X126348031Y-68490000D01*
X126271926Y-68594749D01*
X126271924Y-68594752D01*
X126181850Y-68771531D01*
X126155949Y-68851247D01*
X126120537Y-68960232D01*
X126120536Y-68960235D01*
X126120536Y-68960237D01*
X126089500Y-69156190D01*
X125610500Y-69156190D01*
X125593570Y-69049306D01*
X125579463Y-68960232D01*
X125518151Y-68771536D01*
X125518149Y-68771533D01*
X125518149Y-68771531D01*
X125484223Y-68704947D01*
X125428077Y-68594754D01*
X125311456Y-68434239D01*
X125171161Y-68293944D01*
X125010646Y-68177323D01*
X124953922Y-68148421D01*
X124833868Y-68087250D01*
X124788596Y-68072540D01*
X124645168Y-68025937D01*
X124645162Y-68025936D01*
X124449209Y-67994900D01*
X124449204Y-67994900D01*
X124250796Y-67994900D01*
X124250791Y-67994900D01*
X124054837Y-68025936D01*
X124054835Y-68025936D01*
X124054832Y-68025937D01*
X123960484Y-68056593D01*
X123866131Y-68087250D01*
X123689352Y-68177324D01*
X123689349Y-68177326D01*
X123687267Y-68178839D01*
X123528839Y-68293944D01*
X123528837Y-68293946D01*
X123528836Y-68293946D01*
X123388546Y-68434236D01*
X123388546Y-68434237D01*
X123388544Y-68434239D01*
X123348031Y-68490000D01*
X123271926Y-68594749D01*
X123271924Y-68594752D01*
X123181850Y-68771531D01*
X123155949Y-68851247D01*
X123120537Y-68960232D01*
X123120536Y-68960235D01*
X123120536Y-68960237D01*
X123089500Y-69156190D01*
X115691475Y-69156190D01*
X115695318Y-69131926D01*
X115695318Y-69131925D01*
X115700500Y-69099208D01*
X115700500Y-68900790D01*
X115683570Y-68793906D01*
X115669463Y-68704832D01*
X115608151Y-68516136D01*
X115608149Y-68516133D01*
X115608149Y-68516131D01*
X115566421Y-68434236D01*
X115518077Y-68339354D01*
X115401456Y-68178839D01*
X115261161Y-68038544D01*
X115100646Y-67921923D01*
X115043922Y-67893021D01*
X114923868Y-67831850D01*
X114878596Y-67817140D01*
X114735168Y-67770537D01*
X114735162Y-67770536D01*
X114539209Y-67739500D01*
X114539204Y-67739500D01*
X114340796Y-67739500D01*
X114340791Y-67739500D01*
X114144837Y-67770536D01*
X114144835Y-67770536D01*
X114144832Y-67770537D01*
X114050484Y-67801193D01*
X113956131Y-67831850D01*
X113779352Y-67921924D01*
X113779349Y-67921926D01*
X113741865Y-67949160D01*
X113618839Y-68038544D01*
X113618837Y-68038546D01*
X113618836Y-68038546D01*
X113478546Y-68178836D01*
X113478546Y-68178837D01*
X113478544Y-68178839D01*
X113424477Y-68253255D01*
X113361926Y-68339349D01*
X113361924Y-68339352D01*
X113271850Y-68516131D01*
X113269048Y-68524755D01*
X113210537Y-68704832D01*
X113210536Y-68704835D01*
X113210536Y-68704837D01*
X113179500Y-68900790D01*
X112700500Y-68900790D01*
X112683570Y-68793906D01*
X112669463Y-68704832D01*
X112608151Y-68516136D01*
X112608149Y-68516133D01*
X112608149Y-68516131D01*
X112566421Y-68434236D01*
X112518077Y-68339354D01*
X112401456Y-68178839D01*
X112261161Y-68038544D01*
X112100646Y-67921923D01*
X112043922Y-67893021D01*
X111923868Y-67831850D01*
X111878596Y-67817140D01*
X111735168Y-67770537D01*
X111735162Y-67770536D01*
X111539209Y-67739500D01*
X111539204Y-67739500D01*
X111340796Y-67739500D01*
X111340791Y-67739500D01*
X111144837Y-67770536D01*
X111144835Y-67770536D01*
X111144832Y-67770537D01*
X111050484Y-67801193D01*
X110956131Y-67831850D01*
X110779352Y-67921924D01*
X110779349Y-67921926D01*
X110741865Y-67949160D01*
X110618839Y-68038544D01*
X110618837Y-68038546D01*
X110618836Y-68038546D01*
X110478546Y-68178836D01*
X110478546Y-68178837D01*
X110478544Y-68178839D01*
X110424477Y-68253255D01*
X110361926Y-68339349D01*
X110361924Y-68339352D01*
X110271850Y-68516131D01*
X110269048Y-68524755D01*
X110210537Y-68704832D01*
X110210536Y-68704835D01*
X110210536Y-68704837D01*
X110179500Y-68900790D01*
X109700500Y-68900790D01*
X109683570Y-68793906D01*
X109669463Y-68704832D01*
X109608151Y-68516136D01*
X109608149Y-68516133D01*
X109608149Y-68516131D01*
X109566421Y-68434236D01*
X109518077Y-68339354D01*
X109401456Y-68178839D01*
X109261161Y-68038544D01*
X109100646Y-67921923D01*
X109043922Y-67893021D01*
X108923868Y-67831850D01*
X108878596Y-67817140D01*
X108735168Y-67770537D01*
X108735162Y-67770536D01*
X108539209Y-67739500D01*
X108539204Y-67739500D01*
X108340796Y-67739500D01*
X108340791Y-67739500D01*
X108144837Y-67770536D01*
X108144835Y-67770536D01*
X108144832Y-67770537D01*
X108050484Y-67801193D01*
X107956131Y-67831850D01*
X107779352Y-67921924D01*
X107779349Y-67921926D01*
X107741865Y-67949160D01*
X107618839Y-68038544D01*
X107618837Y-68038546D01*
X107618836Y-68038546D01*
X107478546Y-68178836D01*
X107478546Y-68178837D01*
X107478544Y-68178839D01*
X107424477Y-68253255D01*
X107361926Y-68339349D01*
X107361924Y-68339352D01*
X107271850Y-68516131D01*
X107269048Y-68524755D01*
X107210537Y-68704832D01*
X107210536Y-68704835D01*
X107210536Y-68704837D01*
X107179500Y-68900790D01*
X106700500Y-68900790D01*
X106683570Y-68793906D01*
X106669463Y-68704832D01*
X106608151Y-68516136D01*
X106608149Y-68516133D01*
X106608149Y-68516131D01*
X106566421Y-68434236D01*
X106518077Y-68339354D01*
X106401456Y-68178839D01*
X106261161Y-68038544D01*
X106100646Y-67921923D01*
X106043922Y-67893021D01*
X105923868Y-67831850D01*
X105878596Y-67817140D01*
X105735168Y-67770537D01*
X105735162Y-67770536D01*
X105539209Y-67739500D01*
X105539204Y-67739500D01*
X105340796Y-67739500D01*
X105340791Y-67739500D01*
X105144837Y-67770536D01*
X105144835Y-67770536D01*
X105144832Y-67770537D01*
X105050484Y-67801193D01*
X104956131Y-67831850D01*
X104779352Y-67921924D01*
X104779349Y-67921926D01*
X104741865Y-67949160D01*
X104618839Y-68038544D01*
X104618837Y-68038546D01*
X104618836Y-68038546D01*
X104478546Y-68178836D01*
X104478546Y-68178837D01*
X104478544Y-68178839D01*
X104424477Y-68253255D01*
X104361926Y-68339349D01*
X104361924Y-68339352D01*
X104271850Y-68516131D01*
X104269048Y-68524755D01*
X104210537Y-68704832D01*
X104210536Y-68704835D01*
X104210536Y-68704837D01*
X104179500Y-68900790D01*
X96959993Y-68900790D01*
X96928973Y-68704947D01*
X96867689Y-68516330D01*
X96867688Y-68516327D01*
X96777645Y-68339612D01*
X96750838Y-68302715D01*
X96750837Y-68302714D01*
X96191127Y-68862423D01*
X96175245Y-68803147D01*
X96108102Y-68686853D01*
X96013147Y-68591898D01*
X95896853Y-68524755D01*
X95837574Y-68508871D01*
X96397283Y-67949161D01*
X96360380Y-67922350D01*
X96183672Y-67832311D01*
X96183669Y-67832310D01*
X95995052Y-67771026D01*
X95799163Y-67740000D01*
X95600837Y-67740000D01*
X95404947Y-67771026D01*
X95216330Y-67832310D01*
X95216322Y-67832313D01*
X95039615Y-67922352D01*
X95002715Y-67949160D01*
X95002715Y-67949161D01*
X95562425Y-68508871D01*
X95503147Y-68524755D01*
X95386853Y-68591898D01*
X95291898Y-68686853D01*
X95224755Y-68803147D01*
X95208871Y-68862425D01*
X94649161Y-68302715D01*
X94649160Y-68302715D01*
X94622352Y-68339615D01*
X94532313Y-68516322D01*
X94532310Y-68516330D01*
X94471026Y-68704947D01*
X94440000Y-68900836D01*
X93960000Y-68900836D01*
X93928973Y-68704947D01*
X93867689Y-68516330D01*
X93867688Y-68516327D01*
X93777645Y-68339612D01*
X93750838Y-68302715D01*
X93750837Y-68302714D01*
X93191127Y-68862423D01*
X93175245Y-68803147D01*
X93108102Y-68686853D01*
X93013147Y-68591898D01*
X92896853Y-68524755D01*
X92837574Y-68508871D01*
X93397283Y-67949161D01*
X93360380Y-67922350D01*
X93183672Y-67832311D01*
X93183669Y-67832310D01*
X92995052Y-67771026D01*
X92799163Y-67740000D01*
X92600837Y-67740000D01*
X92404947Y-67771026D01*
X92216330Y-67832310D01*
X92216322Y-67832313D01*
X92039615Y-67922352D01*
X92002715Y-67949160D01*
X92002715Y-67949161D01*
X92562425Y-68508871D01*
X92503147Y-68524755D01*
X92386853Y-68591898D01*
X92291898Y-68686853D01*
X92224755Y-68803147D01*
X92208871Y-68862425D01*
X91649161Y-68302715D01*
X91649160Y-68302715D01*
X91622352Y-68339615D01*
X91532313Y-68516322D01*
X91532310Y-68516330D01*
X91471026Y-68704947D01*
X91440000Y-68900836D01*
X85201953Y-68900836D01*
X85142335Y-68856206D01*
X85142328Y-68856202D01*
X85007482Y-68805908D01*
X85007483Y-68805908D01*
X84947883Y-68799501D01*
X84947881Y-68799500D01*
X84947873Y-68799500D01*
X84947864Y-68799500D01*
X80252129Y-68799500D01*
X80252123Y-68799501D01*
X80192516Y-68805908D01*
X80057671Y-68856202D01*
X80057664Y-68856206D01*
X79942455Y-68942452D01*
X79942452Y-68942455D01*
X79856206Y-69057664D01*
X79856202Y-69057671D01*
X79805908Y-69192517D01*
X79799501Y-69252116D01*
X79799501Y-69252123D01*
X79799500Y-69252135D01*
X79100257Y-69252135D01*
X79130637Y-69192511D01*
X79190102Y-69075802D01*
X79263065Y-68851247D01*
X79300000Y-68618052D01*
X79300000Y-67650000D01*
X78300000Y-67650000D01*
X78300000Y-67150000D01*
X79300000Y-67150000D01*
X79300000Y-66181947D01*
X79263065Y-65948752D01*
X79190102Y-65724197D01*
X79082914Y-65513828D01*
X78944133Y-65322813D01*
X78777186Y-65155866D01*
X78586171Y-65017085D01*
X78375802Y-64909897D01*
X78151247Y-64836934D01*
X78050000Y-64820897D01*
X78050000Y-65866988D01*
X77992993Y-65834075D01*
X77865826Y-65800000D01*
X77734174Y-65800000D01*
X77607007Y-65834075D01*
X77550000Y-65866988D01*
X77550000Y-64820897D01*
X77448752Y-64836934D01*
X77224197Y-64909897D01*
X77013828Y-65017085D01*
X76822813Y-65155866D01*
X76655866Y-65322813D01*
X76517085Y-65513828D01*
X76409897Y-65724197D01*
X76336934Y-65948752D01*
X76300000Y-66181947D01*
X70000000Y-66181947D01*
X70000000Y-63750000D01*
X80020898Y-63750000D01*
X81066988Y-63750000D01*
X81034075Y-63807007D01*
X81000000Y-63934174D01*
X81000000Y-64065826D01*
X81034075Y-64192993D01*
X81066988Y-64250000D01*
X80020898Y-64250000D01*
X80036934Y-64351247D01*
X80109897Y-64575802D01*
X80217085Y-64786171D01*
X80355866Y-64977186D01*
X80522813Y-65144133D01*
X80713828Y-65282914D01*
X80924197Y-65390102D01*
X81148752Y-65463065D01*
X81148751Y-65463065D01*
X81381948Y-65500000D01*
X82350000Y-65500000D01*
X82350000Y-64500000D01*
X82850000Y-64500000D01*
X82850000Y-65500000D01*
X83818052Y-65500000D01*
X84051247Y-65463065D01*
X84275802Y-65390102D01*
X84486171Y-65282914D01*
X84611117Y-65192135D01*
X91439500Y-65192135D01*
X91439500Y-66807870D01*
X91439501Y-66807876D01*
X91445908Y-66867483D01*
X91496202Y-67002328D01*
X91496206Y-67002335D01*
X91582452Y-67117544D01*
X91582455Y-67117547D01*
X91697664Y-67203793D01*
X91697671Y-67203797D01*
X91832517Y-67254091D01*
X91832516Y-67254091D01*
X91839444Y-67254835D01*
X91892127Y-67260500D01*
X93507872Y-67260499D01*
X93567483Y-67254091D01*
X93702331Y-67203796D01*
X93817546Y-67117546D01*
X93903796Y-67002331D01*
X93954091Y-66867483D01*
X93960500Y-66807873D01*
X93960499Y-65900790D01*
X94439500Y-65900790D01*
X94439500Y-66099209D01*
X94470536Y-66295162D01*
X94470537Y-66295168D01*
X94489851Y-66354609D01*
X94531850Y-66483868D01*
X94565833Y-66550562D01*
X94621923Y-66660646D01*
X94738544Y-66821161D01*
X94878839Y-66961456D01*
X95039354Y-67078077D01*
X95127290Y-67122882D01*
X95216131Y-67168149D01*
X95216133Y-67168149D01*
X95216136Y-67168151D01*
X95404832Y-67229463D01*
X95502814Y-67244981D01*
X95600791Y-67260500D01*
X95600796Y-67260500D01*
X95799209Y-67260500D01*
X95888278Y-67246392D01*
X95995168Y-67229463D01*
X96183864Y-67168151D01*
X96360646Y-67078077D01*
X96521161Y-66961456D01*
X96661456Y-66821161D01*
X96778077Y-66660646D01*
X96868151Y-66483864D01*
X96929463Y-66295168D01*
X96951474Y-66156196D01*
X96960500Y-66099209D01*
X96960500Y-65900790D01*
X96943570Y-65793906D01*
X96929463Y-65704832D01*
X96868151Y-65516136D01*
X96868149Y-65516133D01*
X96868149Y-65516131D01*
X96803934Y-65390102D01*
X96778077Y-65339354D01*
X96671116Y-65192135D01*
X104179500Y-65192135D01*
X104179500Y-66807870D01*
X104179501Y-66807876D01*
X104185908Y-66867483D01*
X104236202Y-67002328D01*
X104236206Y-67002335D01*
X104322452Y-67117544D01*
X104322455Y-67117547D01*
X104437664Y-67203793D01*
X104437671Y-67203797D01*
X104572517Y-67254091D01*
X104572516Y-67254091D01*
X104579444Y-67254835D01*
X104632127Y-67260500D01*
X106247872Y-67260499D01*
X106307483Y-67254091D01*
X106442331Y-67203796D01*
X106557546Y-67117546D01*
X106643796Y-67002331D01*
X106694091Y-66867483D01*
X106700500Y-66807873D01*
X106700499Y-65900790D01*
X107179500Y-65900790D01*
X107179500Y-66099209D01*
X107210536Y-66295162D01*
X107210537Y-66295168D01*
X107229851Y-66354609D01*
X107271850Y-66483868D01*
X107305833Y-66550562D01*
X107361923Y-66660646D01*
X107478544Y-66821161D01*
X107618839Y-66961456D01*
X107779354Y-67078077D01*
X107867290Y-67122882D01*
X107956131Y-67168149D01*
X107956133Y-67168149D01*
X107956136Y-67168151D01*
X108144832Y-67229463D01*
X108242814Y-67244981D01*
X108340791Y-67260500D01*
X108340796Y-67260500D01*
X108539209Y-67260500D01*
X108628278Y-67246392D01*
X108735168Y-67229463D01*
X108923864Y-67168151D01*
X109100646Y-67078077D01*
X109261161Y-66961456D01*
X109401456Y-66821161D01*
X109518077Y-66660646D01*
X109608151Y-66483864D01*
X109669463Y-66295168D01*
X109691474Y-66156196D01*
X109700500Y-66099209D01*
X109700500Y-65900790D01*
X110179500Y-65900790D01*
X110179500Y-66099209D01*
X110210536Y-66295162D01*
X110210537Y-66295168D01*
X110229851Y-66354609D01*
X110271850Y-66483868D01*
X110305833Y-66550562D01*
X110361923Y-66660646D01*
X110478544Y-66821161D01*
X110618839Y-66961456D01*
X110779354Y-67078077D01*
X110867290Y-67122882D01*
X110956131Y-67168149D01*
X110956133Y-67168149D01*
X110956136Y-67168151D01*
X111144832Y-67229463D01*
X111242814Y-67244981D01*
X111340791Y-67260500D01*
X111340796Y-67260500D01*
X111539209Y-67260500D01*
X111628278Y-67246392D01*
X111735168Y-67229463D01*
X111923864Y-67168151D01*
X112100646Y-67078077D01*
X112261161Y-66961456D01*
X112401456Y-66821161D01*
X112518077Y-66660646D01*
X112608151Y-66483864D01*
X112669463Y-66295168D01*
X112691474Y-66156196D01*
X112700500Y-66099209D01*
X112700500Y-65900790D01*
X113179500Y-65900790D01*
X113179500Y-66099209D01*
X113210536Y-66295162D01*
X113210537Y-66295168D01*
X113229851Y-66354609D01*
X113271850Y-66483868D01*
X113305833Y-66550562D01*
X113361923Y-66660646D01*
X113478544Y-66821161D01*
X113618839Y-66961456D01*
X113779354Y-67078077D01*
X113867290Y-67122882D01*
X113956131Y-67168149D01*
X113956133Y-67168149D01*
X113956136Y-67168151D01*
X114144832Y-67229463D01*
X114242814Y-67244981D01*
X114340791Y-67260500D01*
X114340796Y-67260500D01*
X114539209Y-67260500D01*
X114628278Y-67246392D01*
X114735168Y-67229463D01*
X114923864Y-67168151D01*
X115100646Y-67078077D01*
X115261161Y-66961456D01*
X115401456Y-66821161D01*
X115518077Y-66660646D01*
X115608151Y-66483864D01*
X115669463Y-66295168D01*
X115691474Y-66156196D01*
X115700500Y-66099209D01*
X115700500Y-65900790D01*
X115683570Y-65793906D01*
X115669463Y-65704832D01*
X115608151Y-65516136D01*
X115608149Y-65516133D01*
X115608148Y-65516128D01*
X115600186Y-65500502D01*
X115600185Y-65500501D01*
X115573198Y-65447535D01*
X123089500Y-65447535D01*
X123089500Y-67063270D01*
X123089501Y-67063276D01*
X123095908Y-67122883D01*
X123146202Y-67257728D01*
X123146206Y-67257735D01*
X123232452Y-67372944D01*
X123232455Y-67372947D01*
X123347664Y-67459193D01*
X123347671Y-67459197D01*
X123482517Y-67509491D01*
X123482516Y-67509491D01*
X123489444Y-67510235D01*
X123542127Y-67515900D01*
X125157872Y-67515899D01*
X125217483Y-67509491D01*
X125352331Y-67459196D01*
X125467546Y-67372946D01*
X125553796Y-67257731D01*
X125604091Y-67122883D01*
X125610500Y-67063273D01*
X125610499Y-66156190D01*
X126089500Y-66156190D01*
X126089500Y-66354609D01*
X126109972Y-66483864D01*
X126120537Y-66550568D01*
X126167140Y-66693996D01*
X126181850Y-66739268D01*
X126223578Y-66821163D01*
X126271923Y-66916046D01*
X126388544Y-67076561D01*
X126528839Y-67216856D01*
X126689354Y-67333477D01*
X126802800Y-67391280D01*
X126866131Y-67423549D01*
X126866133Y-67423549D01*
X126866136Y-67423551D01*
X127054832Y-67484863D01*
X127152814Y-67500381D01*
X127250791Y-67515900D01*
X127250796Y-67515900D01*
X127449209Y-67515900D01*
X127538278Y-67501792D01*
X127645168Y-67484863D01*
X127833864Y-67423551D01*
X128010646Y-67333477D01*
X128171161Y-67216856D01*
X128311456Y-67076561D01*
X128428077Y-66916046D01*
X128518151Y-66739264D01*
X128579463Y-66550568D01*
X128596392Y-66443678D01*
X128610500Y-66354609D01*
X128610500Y-66156190D01*
X129089500Y-66156190D01*
X129089500Y-66354609D01*
X129109972Y-66483864D01*
X129120537Y-66550568D01*
X129167140Y-66693996D01*
X129181850Y-66739268D01*
X129223578Y-66821163D01*
X129271923Y-66916046D01*
X129388544Y-67076561D01*
X129528839Y-67216856D01*
X129689354Y-67333477D01*
X129802800Y-67391280D01*
X129866131Y-67423549D01*
X129866133Y-67423549D01*
X129866136Y-67423551D01*
X130054832Y-67484863D01*
X130152814Y-67500381D01*
X130250791Y-67515900D01*
X130250796Y-67515900D01*
X130449209Y-67515900D01*
X130538278Y-67501792D01*
X130645168Y-67484863D01*
X130833864Y-67423551D01*
X131010646Y-67333477D01*
X131171161Y-67216856D01*
X131311456Y-67076561D01*
X131428077Y-66916046D01*
X131518151Y-66739264D01*
X131579463Y-66550568D01*
X131596392Y-66443678D01*
X131610500Y-66354609D01*
X131610500Y-66156190D01*
X131593570Y-66049306D01*
X131579463Y-65960232D01*
X131518151Y-65771536D01*
X131518149Y-65771533D01*
X131518149Y-65771531D01*
X131485880Y-65708200D01*
X131428077Y-65594754D01*
X131311456Y-65434239D01*
X131171161Y-65293944D01*
X131010646Y-65177323D01*
X130933179Y-65137852D01*
X130833868Y-65087250D01*
X130788596Y-65072540D01*
X130645168Y-65025937D01*
X130645162Y-65025936D01*
X130449209Y-64994900D01*
X130449204Y-64994900D01*
X130250796Y-64994900D01*
X130250791Y-64994900D01*
X130054837Y-65025936D01*
X130054835Y-65025936D01*
X130054832Y-65025937D01*
X129975832Y-65051606D01*
X129866131Y-65087250D01*
X129689352Y-65177324D01*
X129689349Y-65177326D01*
X129603255Y-65239877D01*
X129528839Y-65293944D01*
X129528837Y-65293946D01*
X129528836Y-65293946D01*
X129388546Y-65434236D01*
X129388546Y-65434237D01*
X129388544Y-65434239D01*
X129378884Y-65447535D01*
X129271926Y-65594749D01*
X129271924Y-65594752D01*
X129181850Y-65771531D01*
X129151193Y-65865884D01*
X129120537Y-65960232D01*
X129120536Y-65960235D01*
X129120536Y-65960237D01*
X129089500Y-66156190D01*
X128610500Y-66156190D01*
X128593570Y-66049306D01*
X128579463Y-65960232D01*
X128518151Y-65771536D01*
X128518149Y-65771533D01*
X128518149Y-65771531D01*
X128485880Y-65708200D01*
X128428077Y-65594754D01*
X128311456Y-65434239D01*
X128171161Y-65293944D01*
X128010646Y-65177323D01*
X127933179Y-65137852D01*
X127833868Y-65087250D01*
X127788596Y-65072540D01*
X127645168Y-65025937D01*
X127645162Y-65025936D01*
X127449209Y-64994900D01*
X127449204Y-64994900D01*
X127250796Y-64994900D01*
X127250791Y-64994900D01*
X127054837Y-65025936D01*
X127054835Y-65025936D01*
X127054832Y-65025937D01*
X126975832Y-65051606D01*
X126866131Y-65087250D01*
X126689352Y-65177324D01*
X126689349Y-65177326D01*
X126603255Y-65239877D01*
X126528839Y-65293944D01*
X126528837Y-65293946D01*
X126528836Y-65293946D01*
X126388546Y-65434236D01*
X126388546Y-65434237D01*
X126388544Y-65434239D01*
X126378884Y-65447535D01*
X126271926Y-65594749D01*
X126271924Y-65594752D01*
X126181850Y-65771531D01*
X126151193Y-65865884D01*
X126120537Y-65960232D01*
X126120536Y-65960235D01*
X126120536Y-65960237D01*
X126089500Y-66156190D01*
X125610499Y-66156190D01*
X125610499Y-65447528D01*
X125604091Y-65387917D01*
X125585978Y-65339354D01*
X125553797Y-65253071D01*
X125553793Y-65253064D01*
X125467547Y-65137855D01*
X125467544Y-65137852D01*
X125352335Y-65051606D01*
X125352328Y-65051602D01*
X125217482Y-65001308D01*
X125217483Y-65001308D01*
X125157883Y-64994901D01*
X125157881Y-64994900D01*
X125157873Y-64994900D01*
X125157864Y-64994900D01*
X123542129Y-64994900D01*
X123542123Y-64994901D01*
X123482516Y-65001308D01*
X123347671Y-65051602D01*
X123347664Y-65051606D01*
X123232455Y-65137852D01*
X123232452Y-65137855D01*
X123146206Y-65253064D01*
X123146202Y-65253071D01*
X123095908Y-65387917D01*
X123089501Y-65447516D01*
X123089501Y-65447523D01*
X123089500Y-65447535D01*
X115573198Y-65447535D01*
X115543934Y-65390102D01*
X115518077Y-65339354D01*
X115401456Y-65178839D01*
X115261161Y-65038544D01*
X115100646Y-64921923D01*
X115023179Y-64882452D01*
X114923868Y-64831850D01*
X114878596Y-64817140D01*
X114735168Y-64770537D01*
X114735162Y-64770536D01*
X114539209Y-64739500D01*
X114539204Y-64739500D01*
X114340796Y-64739500D01*
X114340791Y-64739500D01*
X114144837Y-64770536D01*
X114144835Y-64770536D01*
X114144832Y-64770537D01*
X114065832Y-64796206D01*
X113956131Y-64831850D01*
X113779352Y-64921924D01*
X113779349Y-64921926D01*
X113703291Y-64977186D01*
X113618839Y-65038544D01*
X113618837Y-65038546D01*
X113618836Y-65038546D01*
X113478546Y-65178836D01*
X113478546Y-65178837D01*
X113478544Y-65178839D01*
X113468884Y-65192135D01*
X113361926Y-65339349D01*
X113361924Y-65339352D01*
X113271850Y-65516131D01*
X113246306Y-65594749D01*
X113210537Y-65704832D01*
X113210536Y-65704835D01*
X113210536Y-65704837D01*
X113179500Y-65900790D01*
X112700500Y-65900790D01*
X112683570Y-65793906D01*
X112669463Y-65704832D01*
X112608151Y-65516136D01*
X112608149Y-65516133D01*
X112608149Y-65516131D01*
X112543934Y-65390102D01*
X112518077Y-65339354D01*
X112401456Y-65178839D01*
X112261161Y-65038544D01*
X112100646Y-64921923D01*
X112023179Y-64882452D01*
X111923868Y-64831850D01*
X111878596Y-64817140D01*
X111735168Y-64770537D01*
X111735162Y-64770536D01*
X111539209Y-64739500D01*
X111539204Y-64739500D01*
X111340796Y-64739500D01*
X111340791Y-64739500D01*
X111144837Y-64770536D01*
X111144835Y-64770536D01*
X111144832Y-64770537D01*
X111065832Y-64796206D01*
X110956131Y-64831850D01*
X110779352Y-64921924D01*
X110779349Y-64921926D01*
X110703291Y-64977186D01*
X110618839Y-65038544D01*
X110618837Y-65038546D01*
X110618836Y-65038546D01*
X110478546Y-65178836D01*
X110478546Y-65178837D01*
X110478544Y-65178839D01*
X110468884Y-65192135D01*
X110361926Y-65339349D01*
X110361924Y-65339352D01*
X110271850Y-65516131D01*
X110246306Y-65594749D01*
X110210537Y-65704832D01*
X110210536Y-65704835D01*
X110210536Y-65704837D01*
X110179500Y-65900790D01*
X109700500Y-65900790D01*
X109683570Y-65793906D01*
X109669463Y-65704832D01*
X109608151Y-65516136D01*
X109608149Y-65516133D01*
X109608149Y-65516131D01*
X109543934Y-65390102D01*
X109518077Y-65339354D01*
X109401456Y-65178839D01*
X109261161Y-65038544D01*
X109100646Y-64921923D01*
X109023179Y-64882452D01*
X108923868Y-64831850D01*
X108878596Y-64817140D01*
X108735168Y-64770537D01*
X108735162Y-64770536D01*
X108539209Y-64739500D01*
X108539204Y-64739500D01*
X108340796Y-64739500D01*
X108340791Y-64739500D01*
X108144837Y-64770536D01*
X108144835Y-64770536D01*
X108144832Y-64770537D01*
X108065832Y-64796206D01*
X107956131Y-64831850D01*
X107779352Y-64921924D01*
X107779349Y-64921926D01*
X107703291Y-64977186D01*
X107618839Y-65038544D01*
X107618837Y-65038546D01*
X107618836Y-65038546D01*
X107478546Y-65178836D01*
X107478546Y-65178837D01*
X107478544Y-65178839D01*
X107468884Y-65192135D01*
X107361926Y-65339349D01*
X107361924Y-65339352D01*
X107271850Y-65516131D01*
X107246306Y-65594749D01*
X107210537Y-65704832D01*
X107210536Y-65704835D01*
X107210536Y-65704837D01*
X107179500Y-65900790D01*
X106700499Y-65900790D01*
X106700499Y-65192128D01*
X106694665Y-65137854D01*
X106694091Y-65132516D01*
X106643797Y-64997671D01*
X106643793Y-64997664D01*
X106557547Y-64882455D01*
X106557544Y-64882452D01*
X106442335Y-64796206D01*
X106442328Y-64796202D01*
X106307482Y-64745908D01*
X106307483Y-64745908D01*
X106247883Y-64739501D01*
X106247881Y-64739500D01*
X106247873Y-64739500D01*
X106247864Y-64739500D01*
X104632129Y-64739500D01*
X104632123Y-64739501D01*
X104572516Y-64745908D01*
X104437671Y-64796202D01*
X104437664Y-64796206D01*
X104322455Y-64882452D01*
X104322452Y-64882455D01*
X104236206Y-64997664D01*
X104236202Y-64997671D01*
X104185908Y-65132517D01*
X104179501Y-65192116D01*
X104179501Y-65192123D01*
X104179500Y-65192135D01*
X96671116Y-65192135D01*
X96661456Y-65178839D01*
X96521161Y-65038544D01*
X96360646Y-64921923D01*
X96283179Y-64882452D01*
X96183868Y-64831850D01*
X96138596Y-64817140D01*
X95995168Y-64770537D01*
X95995162Y-64770536D01*
X95799209Y-64739500D01*
X95799204Y-64739500D01*
X95600796Y-64739500D01*
X95600791Y-64739500D01*
X95404837Y-64770536D01*
X95404835Y-64770536D01*
X95404832Y-64770537D01*
X95325832Y-64796206D01*
X95216131Y-64831850D01*
X95039352Y-64921924D01*
X95039349Y-64921926D01*
X94963291Y-64977186D01*
X94878839Y-65038544D01*
X94878837Y-65038546D01*
X94878836Y-65038546D01*
X94738546Y-65178836D01*
X94738546Y-65178837D01*
X94738544Y-65178839D01*
X94728884Y-65192135D01*
X94621926Y-65339349D01*
X94621924Y-65339352D01*
X94531850Y-65516131D01*
X94506306Y-65594749D01*
X94470537Y-65704832D01*
X94470536Y-65704835D01*
X94470536Y-65704837D01*
X94439500Y-65900790D01*
X93960499Y-65900790D01*
X93960499Y-65192128D01*
X93954665Y-65137854D01*
X93954091Y-65132516D01*
X93903797Y-64997671D01*
X93903793Y-64997664D01*
X93817547Y-64882455D01*
X93817544Y-64882452D01*
X93702335Y-64796206D01*
X93702328Y-64796202D01*
X93567482Y-64745908D01*
X93567483Y-64745908D01*
X93507883Y-64739501D01*
X93507881Y-64739500D01*
X93507873Y-64739500D01*
X93507864Y-64739500D01*
X91892129Y-64739500D01*
X91892123Y-64739501D01*
X91832516Y-64745908D01*
X91697671Y-64796202D01*
X91697664Y-64796206D01*
X91582455Y-64882452D01*
X91582452Y-64882455D01*
X91496206Y-64997664D01*
X91496202Y-64997671D01*
X91445908Y-65132517D01*
X91439501Y-65192116D01*
X91439501Y-65192123D01*
X91439500Y-65192135D01*
X84611117Y-65192135D01*
X84677186Y-65144133D01*
X84720195Y-65101125D01*
X84844133Y-64977186D01*
X84982914Y-64786171D01*
X85090102Y-64575802D01*
X85163065Y-64351247D01*
X85179102Y-64250000D01*
X84133012Y-64250000D01*
X84165925Y-64192993D01*
X84200000Y-64065826D01*
X84200000Y-63934174D01*
X84165925Y-63807007D01*
X84133012Y-63750000D01*
X85179102Y-63750000D01*
X85163065Y-63648752D01*
X85090102Y-63424197D01*
X84982914Y-63213828D01*
X84844133Y-63022813D01*
X84677186Y-62855866D01*
X84486171Y-62717085D01*
X84275802Y-62609897D01*
X84051247Y-62536934D01*
X84051248Y-62536934D01*
X83818052Y-62500000D01*
X82850000Y-62500000D01*
X82850000Y-63500000D01*
X82350000Y-63500000D01*
X82350000Y-62500000D01*
X81381948Y-62500000D01*
X81148752Y-62536934D01*
X80924197Y-62609897D01*
X80713828Y-62717085D01*
X80522813Y-62855866D01*
X80355866Y-63022813D01*
X80217085Y-63213828D01*
X80109897Y-63424197D01*
X80036934Y-63648752D01*
X80020898Y-63750000D01*
X70000000Y-63750000D01*
X70000000Y-59355778D01*
X71299500Y-59355778D01*
X71299500Y-59644221D01*
X71299501Y-59644238D01*
X71337149Y-59930206D01*
X71337150Y-59930211D01*
X71337151Y-59930217D01*
X71411809Y-60208844D01*
X71411814Y-60208860D01*
X71522191Y-60475336D01*
X71522199Y-60475352D01*
X71666420Y-60725148D01*
X71666431Y-60725164D01*
X71842024Y-60954002D01*
X71842030Y-60954009D01*
X72045990Y-61157969D01*
X72045996Y-61157974D01*
X72274844Y-61333575D01*
X72274851Y-61333579D01*
X72524647Y-61477800D01*
X72524663Y-61477808D01*
X72791139Y-61588185D01*
X72791145Y-61588186D01*
X72791155Y-61588191D01*
X73069783Y-61662849D01*
X73355772Y-61700500D01*
X73355779Y-61700500D01*
X73644221Y-61700500D01*
X73644228Y-61700500D01*
X73930217Y-61662849D01*
X74208845Y-61588191D01*
X74208857Y-61588185D01*
X74208860Y-61588185D01*
X74264211Y-61565258D01*
X92449500Y-61565258D01*
X92449500Y-61794741D01*
X92474446Y-61984215D01*
X92479452Y-62022238D01*
X92538842Y-62243887D01*
X92626650Y-62455876D01*
X92626657Y-62455890D01*
X92741392Y-62654617D01*
X92881081Y-62836661D01*
X92881089Y-62836670D01*
X93043330Y-62998911D01*
X93043338Y-62998918D01*
X93225382Y-63138607D01*
X93225385Y-63138608D01*
X93225388Y-63138611D01*
X93424112Y-63253344D01*
X93424117Y-63253346D01*
X93424123Y-63253349D01*
X93515480Y-63291190D01*
X93636113Y-63341158D01*
X93857762Y-63400548D01*
X94085266Y-63430500D01*
X94085273Y-63430500D01*
X94314727Y-63430500D01*
X94314734Y-63430500D01*
X94542238Y-63400548D01*
X94763887Y-63341158D01*
X94975888Y-63253344D01*
X95174612Y-63138611D01*
X95356661Y-62998919D01*
X95356665Y-62998914D01*
X95356670Y-62998911D01*
X95518911Y-62836670D01*
X95518914Y-62836665D01*
X95518919Y-62836661D01*
X95658611Y-62654612D01*
X95773344Y-62455888D01*
X95861158Y-62243887D01*
X95920548Y-62022238D01*
X95950500Y-61794734D01*
X95950500Y-61565266D01*
X95950499Y-61565258D01*
X105849500Y-61565258D01*
X105849500Y-61794741D01*
X105874446Y-61984215D01*
X105879452Y-62022238D01*
X105938842Y-62243887D01*
X106026650Y-62455876D01*
X106026657Y-62455890D01*
X106141392Y-62654617D01*
X106281081Y-62836661D01*
X106281089Y-62836670D01*
X106443330Y-62998911D01*
X106443338Y-62998918D01*
X106625382Y-63138607D01*
X106625385Y-63138608D01*
X106625388Y-63138611D01*
X106824112Y-63253344D01*
X106824117Y-63253346D01*
X106824123Y-63253349D01*
X106915480Y-63291190D01*
X107036113Y-63341158D01*
X107257762Y-63400548D01*
X107485266Y-63430500D01*
X107485273Y-63430500D01*
X107714727Y-63430500D01*
X107714734Y-63430500D01*
X107942238Y-63400548D01*
X108163887Y-63341158D01*
X108375888Y-63253344D01*
X108574612Y-63138611D01*
X108756661Y-62998919D01*
X108756665Y-62998914D01*
X108756670Y-62998911D01*
X108918911Y-62836670D01*
X108918914Y-62836665D01*
X108918919Y-62836661D01*
X109058611Y-62654612D01*
X109173344Y-62455888D01*
X109261158Y-62243887D01*
X109320548Y-62022238D01*
X109350500Y-61794734D01*
X109350500Y-61565266D01*
X109350499Y-61565258D01*
X110529500Y-61565258D01*
X110529500Y-61794741D01*
X110554446Y-61984215D01*
X110559452Y-62022238D01*
X110618842Y-62243887D01*
X110706650Y-62455876D01*
X110706657Y-62455890D01*
X110821392Y-62654617D01*
X110961081Y-62836661D01*
X110961089Y-62836670D01*
X111123330Y-62998911D01*
X111123338Y-62998918D01*
X111305382Y-63138607D01*
X111305385Y-63138608D01*
X111305388Y-63138611D01*
X111504112Y-63253344D01*
X111504117Y-63253346D01*
X111504123Y-63253349D01*
X111595480Y-63291190D01*
X111716113Y-63341158D01*
X111937762Y-63400548D01*
X112165266Y-63430500D01*
X112165273Y-63430500D01*
X112394727Y-63430500D01*
X112394734Y-63430500D01*
X112622238Y-63400548D01*
X112843887Y-63341158D01*
X113055888Y-63253344D01*
X113254612Y-63138611D01*
X113436661Y-62998919D01*
X113436665Y-62998914D01*
X113436670Y-62998911D01*
X113598911Y-62836670D01*
X113598914Y-62836665D01*
X113598919Y-62836661D01*
X113738611Y-62654612D01*
X113853344Y-62455888D01*
X113941158Y-62243887D01*
X114000548Y-62022238D01*
X114028854Y-61807236D01*
X120244500Y-61807236D01*
X120244500Y-62063563D01*
X120244501Y-62063580D01*
X120277958Y-62317714D01*
X120344305Y-62565324D01*
X120442396Y-62802139D01*
X120442403Y-62802154D01*
X120570571Y-63024149D01*
X120726623Y-63227517D01*
X120726631Y-63227526D01*
X120907874Y-63408769D01*
X120907882Y-63408776D01*
X120907883Y-63408777D01*
X120936193Y-63430500D01*
X121111250Y-63564828D01*
X121333245Y-63692996D01*
X121333260Y-63693003D01*
X121435318Y-63735276D01*
X121570076Y-63791095D01*
X121817682Y-63857441D01*
X122071830Y-63890900D01*
X122071837Y-63890900D01*
X122328163Y-63890900D01*
X122328170Y-63890900D01*
X122582318Y-63857441D01*
X122829924Y-63791095D01*
X123066751Y-63692998D01*
X123288749Y-63564828D01*
X123492117Y-63408777D01*
X123492121Y-63408772D01*
X123492126Y-63408769D01*
X123673369Y-63227526D01*
X123673372Y-63227521D01*
X123673377Y-63227517D01*
X123829428Y-63024149D01*
X123957598Y-62802151D01*
X124055695Y-62565324D01*
X124122041Y-62317718D01*
X124155500Y-62063570D01*
X124155500Y-61807236D01*
X130544500Y-61807236D01*
X130544500Y-62063563D01*
X130544501Y-62063580D01*
X130577958Y-62317714D01*
X130644305Y-62565324D01*
X130742396Y-62802139D01*
X130742403Y-62802154D01*
X130870571Y-63024149D01*
X131026623Y-63227517D01*
X131026631Y-63227526D01*
X131207874Y-63408769D01*
X131207882Y-63408776D01*
X131207883Y-63408777D01*
X131236193Y-63430500D01*
X131411250Y-63564828D01*
X131633245Y-63692996D01*
X131633260Y-63693003D01*
X131735318Y-63735276D01*
X131870076Y-63791095D01*
X132117682Y-63857441D01*
X132371830Y-63890900D01*
X132371837Y-63890900D01*
X132628163Y-63890900D01*
X132628170Y-63890900D01*
X132882318Y-63857441D01*
X133129924Y-63791095D01*
X133366751Y-63692998D01*
X133588749Y-63564828D01*
X133792117Y-63408777D01*
X133792121Y-63408772D01*
X133792126Y-63408769D01*
X133973369Y-63227526D01*
X133973372Y-63227521D01*
X133973377Y-63227517D01*
X134129428Y-63024149D01*
X134257598Y-62802151D01*
X134355695Y-62565324D01*
X134422041Y-62317718D01*
X134455500Y-62063570D01*
X134455500Y-61807230D01*
X134422041Y-61553082D01*
X134355695Y-61305476D01*
X134257598Y-61068649D01*
X134191407Y-60954002D01*
X134129428Y-60846650D01*
X133973376Y-60643282D01*
X133973369Y-60643274D01*
X133792126Y-60462031D01*
X133792117Y-60462023D01*
X133588749Y-60305971D01*
X133366754Y-60177803D01*
X133366739Y-60177796D01*
X133129924Y-60079705D01*
X132882314Y-60013358D01*
X132628180Y-59979901D01*
X132628175Y-59979900D01*
X132628170Y-59979900D01*
X132371830Y-59979900D01*
X132371824Y-59979900D01*
X132371819Y-59979901D01*
X132117685Y-60013358D01*
X131870075Y-60079705D01*
X131633260Y-60177796D01*
X131633245Y-60177803D01*
X131411250Y-60305971D01*
X131207882Y-60462023D01*
X131026623Y-60643282D01*
X130870571Y-60846650D01*
X130742403Y-61068645D01*
X130742396Y-61068660D01*
X130644305Y-61305475D01*
X130577958Y-61553085D01*
X130544501Y-61807219D01*
X130544500Y-61807236D01*
X124155500Y-61807236D01*
X124155500Y-61807230D01*
X124122041Y-61553082D01*
X124055695Y-61305476D01*
X123957598Y-61068649D01*
X123891407Y-60954002D01*
X123829428Y-60846650D01*
X123673376Y-60643282D01*
X123673369Y-60643274D01*
X123492126Y-60462031D01*
X123492117Y-60462023D01*
X123288749Y-60305971D01*
X123066754Y-60177803D01*
X123066739Y-60177796D01*
X122829924Y-60079705D01*
X122582314Y-60013358D01*
X122328180Y-59979901D01*
X122328175Y-59979900D01*
X122328170Y-59979900D01*
X122071830Y-59979900D01*
X122071824Y-59979900D01*
X122071819Y-59979901D01*
X121817685Y-60013358D01*
X121570075Y-60079705D01*
X121333260Y-60177796D01*
X121333245Y-60177803D01*
X121111250Y-60305971D01*
X120907882Y-60462023D01*
X120726623Y-60643282D01*
X120570571Y-60846650D01*
X120442403Y-61068645D01*
X120442396Y-61068660D01*
X120344305Y-61305475D01*
X120277958Y-61553085D01*
X120244501Y-61807219D01*
X120244500Y-61807236D01*
X114028854Y-61807236D01*
X114030500Y-61794734D01*
X114030500Y-61565266D01*
X114000548Y-61337762D01*
X113941158Y-61116113D01*
X113853344Y-60904112D01*
X113738611Y-60705388D01*
X113738608Y-60705385D01*
X113738607Y-60705382D01*
X113598918Y-60523338D01*
X113598911Y-60523330D01*
X113436670Y-60361089D01*
X113436661Y-60361081D01*
X113254617Y-60221392D01*
X113055890Y-60106657D01*
X113055876Y-60106650D01*
X112843887Y-60018842D01*
X112823420Y-60013358D01*
X112622238Y-59959452D01*
X112584215Y-59954446D01*
X112394741Y-59929500D01*
X112394734Y-59929500D01*
X112165266Y-59929500D01*
X112165258Y-59929500D01*
X111948715Y-59958009D01*
X111937762Y-59959452D01*
X111844076Y-59984554D01*
X111716112Y-60018842D01*
X111504123Y-60106650D01*
X111504109Y-60106657D01*
X111305382Y-60221392D01*
X111123338Y-60361081D01*
X110961081Y-60523338D01*
X110821392Y-60705382D01*
X110706657Y-60904109D01*
X110706650Y-60904123D01*
X110618842Y-61116112D01*
X110559453Y-61337759D01*
X110559451Y-61337770D01*
X110529500Y-61565258D01*
X109350499Y-61565258D01*
X109320548Y-61337762D01*
X109261158Y-61116113D01*
X109173344Y-60904112D01*
X109058611Y-60705388D01*
X109058608Y-60705385D01*
X109058607Y-60705382D01*
X108918918Y-60523338D01*
X108918911Y-60523330D01*
X108756670Y-60361089D01*
X108756661Y-60361081D01*
X108574617Y-60221392D01*
X108375890Y-60106657D01*
X108375876Y-60106650D01*
X108163887Y-60018842D01*
X108143420Y-60013358D01*
X107942238Y-59959452D01*
X107904215Y-59954446D01*
X107714741Y-59929500D01*
X107714734Y-59929500D01*
X107485266Y-59929500D01*
X107485258Y-59929500D01*
X107268715Y-59958009D01*
X107257762Y-59959452D01*
X107164076Y-59984554D01*
X107036112Y-60018842D01*
X106824123Y-60106650D01*
X106824109Y-60106657D01*
X106625382Y-60221392D01*
X106443338Y-60361081D01*
X106281081Y-60523338D01*
X106141392Y-60705382D01*
X106026657Y-60904109D01*
X106026650Y-60904123D01*
X105938842Y-61116112D01*
X105879453Y-61337759D01*
X105879451Y-61337770D01*
X105849500Y-61565258D01*
X95950499Y-61565258D01*
X95920548Y-61337762D01*
X95861158Y-61116113D01*
X95773344Y-60904112D01*
X95658611Y-60705388D01*
X95658608Y-60705385D01*
X95658607Y-60705382D01*
X95518918Y-60523338D01*
X95518911Y-60523330D01*
X95356670Y-60361089D01*
X95356661Y-60361081D01*
X95174617Y-60221392D01*
X94975890Y-60106657D01*
X94975876Y-60106650D01*
X94763887Y-60018842D01*
X94743420Y-60013358D01*
X94542238Y-59959452D01*
X94504215Y-59954446D01*
X94314741Y-59929500D01*
X94314734Y-59929500D01*
X94085266Y-59929500D01*
X94085258Y-59929500D01*
X93868715Y-59958009D01*
X93857762Y-59959452D01*
X93764076Y-59984554D01*
X93636112Y-60018842D01*
X93424123Y-60106650D01*
X93424109Y-60106657D01*
X93225382Y-60221392D01*
X93043338Y-60361081D01*
X92881081Y-60523338D01*
X92741392Y-60705382D01*
X92626657Y-60904109D01*
X92626650Y-60904123D01*
X92538842Y-61116112D01*
X92479453Y-61337759D01*
X92479451Y-61337770D01*
X92449500Y-61565258D01*
X74264211Y-61565258D01*
X74475336Y-61477808D01*
X74475337Y-61477806D01*
X74475345Y-61477804D01*
X74725156Y-61333575D01*
X74954004Y-61157974D01*
X75157974Y-60954004D01*
X75333575Y-60725156D01*
X75477804Y-60475345D01*
X75525134Y-60361081D01*
X75588185Y-60208860D01*
X75588185Y-60208857D01*
X75588191Y-60208845D01*
X75662849Y-59930217D01*
X75700500Y-59644228D01*
X75700500Y-59355778D01*
X136499500Y-59355778D01*
X136499500Y-59644221D01*
X136499501Y-59644238D01*
X136537149Y-59930206D01*
X136537150Y-59930211D01*
X136537151Y-59930217D01*
X136611809Y-60208844D01*
X136611814Y-60208860D01*
X136722191Y-60475336D01*
X136722199Y-60475352D01*
X136866420Y-60725148D01*
X136866431Y-60725164D01*
X137042024Y-60954002D01*
X137042030Y-60954009D01*
X137245990Y-61157969D01*
X137245996Y-61157974D01*
X137474844Y-61333575D01*
X137474851Y-61333579D01*
X137724647Y-61477800D01*
X137724663Y-61477808D01*
X137991139Y-61588185D01*
X137991145Y-61588186D01*
X137991155Y-61588191D01*
X138269783Y-61662849D01*
X138555772Y-61700500D01*
X138555779Y-61700500D01*
X138844221Y-61700500D01*
X138844228Y-61700500D01*
X139130217Y-61662849D01*
X139408845Y-61588191D01*
X139408857Y-61588185D01*
X139408860Y-61588185D01*
X139675336Y-61477808D01*
X139675339Y-61477806D01*
X139675345Y-61477804D01*
X139925156Y-61333575D01*
X140154004Y-61157974D01*
X140357974Y-60954004D01*
X140533575Y-60725156D01*
X140677804Y-60475345D01*
X140725134Y-60361081D01*
X140788185Y-60208860D01*
X140788185Y-60208857D01*
X140788191Y-60208845D01*
X140862849Y-59930217D01*
X140900500Y-59644228D01*
X140900500Y-59355772D01*
X140862849Y-59069783D01*
X140788191Y-58791155D01*
X140788186Y-58791145D01*
X140788185Y-58791139D01*
X140677808Y-58524663D01*
X140677800Y-58524647D01*
X140533579Y-58274851D01*
X140533575Y-58274844D01*
X140357974Y-58045996D01*
X140357969Y-58045990D01*
X140154009Y-57842030D01*
X140154002Y-57842024D01*
X139925164Y-57666431D01*
X139925162Y-57666429D01*
X139925156Y-57666425D01*
X139925151Y-57666422D01*
X139925148Y-57666420D01*
X139675352Y-57522199D01*
X139675336Y-57522191D01*
X139408860Y-57411814D01*
X139408848Y-57411810D01*
X139408845Y-57411809D01*
X139130217Y-57337151D01*
X139130211Y-57337150D01*
X139130206Y-57337149D01*
X138844238Y-57299501D01*
X138844233Y-57299500D01*
X138844228Y-57299500D01*
X138555772Y-57299500D01*
X138555766Y-57299500D01*
X138555761Y-57299501D01*
X138269793Y-57337149D01*
X138269786Y-57337150D01*
X138269783Y-57337151D01*
X137991155Y-57411809D01*
X137991139Y-57411814D01*
X137724663Y-57522191D01*
X137724647Y-57522199D01*
X137474851Y-57666420D01*
X137474835Y-57666431D01*
X137245997Y-57842024D01*
X137245990Y-57842030D01*
X137042030Y-58045990D01*
X137042024Y-58045997D01*
X136866431Y-58274835D01*
X136866420Y-58274851D01*
X136722199Y-58524647D01*
X136722191Y-58524663D01*
X136611814Y-58791139D01*
X136611809Y-58791155D01*
X136537152Y-59069780D01*
X136537149Y-59069793D01*
X136499501Y-59355761D01*
X136499500Y-59355778D01*
X75700500Y-59355778D01*
X75700500Y-59355772D01*
X75662849Y-59069783D01*
X75588191Y-58791155D01*
X75588186Y-58791145D01*
X75588185Y-58791139D01*
X75477808Y-58524663D01*
X75477800Y-58524647D01*
X75333579Y-58274851D01*
X75333575Y-58274844D01*
X75157974Y-58045996D01*
X75157969Y-58045990D01*
X74954009Y-57842030D01*
X74954002Y-57842024D01*
X74725164Y-57666431D01*
X74725162Y-57666429D01*
X74725156Y-57666425D01*
X74725151Y-57666422D01*
X74725148Y-57666420D01*
X74475352Y-57522199D01*
X74475336Y-57522191D01*
X74208860Y-57411814D01*
X74208848Y-57411810D01*
X74208845Y-57411809D01*
X73930217Y-57337151D01*
X73930211Y-57337150D01*
X73930206Y-57337149D01*
X73644238Y-57299501D01*
X73644233Y-57299500D01*
X73644228Y-57299500D01*
X73355772Y-57299500D01*
X73355766Y-57299500D01*
X73355761Y-57299501D01*
X73069793Y-57337149D01*
X73069786Y-57337150D01*
X73069783Y-57337151D01*
X72791155Y-57411809D01*
X72791139Y-57411814D01*
X72524663Y-57522191D01*
X72524647Y-57522199D01*
X72274851Y-57666420D01*
X72274835Y-57666431D01*
X72045997Y-57842024D01*
X72045990Y-57842030D01*
X71842030Y-58045990D01*
X71842024Y-58045997D01*
X71666431Y-58274835D01*
X71666420Y-58274851D01*
X71522199Y-58524647D01*
X71522191Y-58524663D01*
X71411814Y-58791139D01*
X71411809Y-58791155D01*
X71337152Y-59069780D01*
X71337149Y-59069793D01*
X71299501Y-59355761D01*
X71299500Y-59355778D01*
X70000000Y-59355778D01*
X70000000Y-56124000D01*
X70019685Y-56056961D01*
X70072489Y-56011206D01*
X70124000Y-56000000D01*
X142076000Y-56000000D01*
X142143039Y-56019685D01*
G37*
%TD.AperFunction*%
%TD*%
M02*
