M48
; DRILL file {KiCad 9.0.7} date 2026-07-10T16:16:15+0200
; FORMAT={-:-/ absolute / metric / decimal}
; #@! TF.CreationDate,2026-07-10T16:16:15+02:00
; #@! TF.GenerationSoftware,Kicad,Pcbnew,9.0.7
; #@! TF.FileFunction,Plated,1,2,PTH
FMAT,2
METRIC
; #@! TA.AperFunction,Plated,PTH,ViaDrill
T1C0.300
; #@! TA.AperFunction,Plated,PTH,ComponentDrill
T2C0.600
; #@! TA.AperFunction,Plated,PTH,ComponentDrill
T3C1.000
; #@! TA.AperFunction,Plated,PTH,ComponentDrill
T4C1.020
; #@! TA.AperFunction,Plated,PTH,ComponentDrill
T5C2.410
%
G90
G05
T1
X71.0Y-58.6
X71.0Y-59.6
X71.049Y-129.538
X71.049Y-130.538
X71.2Y-60.6
X71.249Y-131.538
X71.6Y-57.8
X71.649Y-128.738
X71.951Y-61.462
X72.0Y-132.4
X72.4Y-57.2
X72.449Y-128.138
X72.512Y-109.75
X72.712Y-97.55
X73.0Y-62.0
X73.049Y-132.938
X73.4Y-56.8
X73.449Y-127.738
X73.512Y-109.75
X73.712Y-97.55
X74.2Y-62.0
X74.249Y-132.938
X74.512Y-109.75
X74.6Y-57.0
X74.649Y-127.938
X74.712Y-97.55
X75.2Y-61.6
X75.249Y-132.538
X75.4Y-57.8
X75.449Y-128.738
X75.512Y-109.75
X75.712Y-97.55
X75.8Y-60.8
X75.849Y-131.738
X76.0Y-58.8
X76.049Y-129.738
X76.2Y-59.8
X76.249Y-130.738
X76.512Y-109.75
X76.712Y-97.55
X79.312Y-100.35
X80.312Y-107.95
X84.462Y-105.7
X84.712Y-102.2
X84.912Y-108.75
X87.4Y-99.0
X88.312Y-130.35
X88.312Y-131.95
X88.8Y-83.0
X89.6Y-96.4
X90.512Y-110.95
X91.4Y-83.0
X91.712Y-118.95
X91.712Y-126.95
X92.0Y-84.4
X93.0Y-96.4
X93.2Y-111.8
X93.7Y-74.337
X94.2Y-84.4
X94.3Y-82.0
X95.0Y-108.0
X96.0Y-96.4
X96.112Y-120.75
X97.112Y-129.75
X97.2Y-92.263
X97.3Y-77.537
X98.2Y-83.0
X99.0Y-96.4
X99.512Y-120.75
X99.512Y-121.4
X99.586Y-123.276
X99.586Y-126.276
X100.512Y-120.75
X100.512Y-121.4
X100.8Y-83.0
X101.186Y-123.276
X101.186Y-126.276
X101.2Y-84.4
X101.2Y-96.4
X101.312Y-120.75
X101.312Y-121.4
X102.7Y-74.337
X103.3Y-82.0
X103.4Y-84.4
X103.4Y-130.2
X104.112Y-124.75
X104.712Y-120.15
X105.2Y-95.6
X106.4Y-77.337
X106.4Y-83.0
X106.4Y-92.4
X106.512Y-109.95
X106.712Y-102.35
X108.1Y-99.15
X108.349Y-117.387
X108.512Y-102.35
X108.712Y-104.95
X109.2Y-83.0
X109.441Y-114.159
X109.512Y-126.95
X109.6Y-95.6
X110.0Y-111.4
X110.2Y-84.4
X110.712Y-124.35
X110.712Y-128.15
X110.712Y-130.15
X111.547Y-118.115
X111.938Y-74.581
X112.112Y-122.75
X112.4Y-84.4
X112.5Y-82.0
X112.787Y-107.837
X114.312Y-126.15
X114.8Y-114.0
X115.537Y-77.581
X115.6Y-83.0
X115.6Y-92.4
X116.312Y-126.15
X118.312Y-126.15
X118.4Y-83.0
X119.2Y-84.4
X120.512Y-117.35
X120.9Y-74.337
X120.912Y-106.55
X120.912Y-108.75
X121.4Y-84.4
X121.5Y-82.0
X122.8Y-104.0
X124.4Y-92.263
X124.7Y-77.3
X124.8Y-110.4
X125.0Y-83.0
X126.6Y-83.0
X128.2Y-84.4
X130.4Y-84.4
X133.4Y-92.263
X133.6Y-95.0
X135.2Y-105.02
X136.1Y-129.5
X136.1Y-130.5
X136.2Y-58.6
X136.2Y-59.6
X136.3Y-131.5
X136.4Y-60.6
X136.7Y-128.7
X136.8Y-57.8
X137.051Y-132.362
X137.151Y-61.462
X137.5Y-128.1
X137.6Y-57.2
X138.1Y-132.9
X138.2Y-62.0
X138.5Y-127.7
X138.6Y-56.8
X139.3Y-132.9
X139.4Y-62.0
X139.7Y-127.9
X139.8Y-57.0
X140.3Y-132.5
X140.4Y-61.6
X140.5Y-128.7
X140.6Y-57.8
X140.9Y-131.7
X141.0Y-60.8
X141.1Y-129.7
X141.2Y-58.8
X141.3Y-130.7
X141.4Y-59.8
T4
X92.7Y-66.0
X92.7Y-69.0
X95.7Y-66.0
X95.7Y-69.0
X105.44Y-66.0
X105.44Y-69.0
X108.44Y-66.0
X108.44Y-69.0
X111.44Y-66.0
X111.44Y-69.0
X114.44Y-66.0
X114.44Y-69.0
X124.35Y-66.255
X124.35Y-69.255
X127.35Y-66.255
X127.35Y-69.255
X130.35Y-66.255
X130.35Y-69.255
T5
X122.2Y-61.935
X132.5Y-61.935
T2
G00X73.4Y-99.16
M15
G01X72.6Y-99.16
M16
G05
G00X73.4Y-107.8
M15
G01X72.6Y-107.8
M16
G05
G00X77.73Y-99.16
M15
G01X76.63Y-99.16
M16
G05
G00X77.73Y-107.8
M15
G01X76.63Y-107.8
M16
G05
T3
G00X77.8Y-68.5
M15
G01X77.8Y-66.3
M16
G05
G00X83.7Y-64.0
M15
G01X81.5Y-64.0
M16
G05
G00X83.9Y-70.3
M15
G01X81.3Y-70.3
M16
G05
M30
