%TF.GenerationSoftware,KiCad,Pcbnew,9.0.7*%
%TF.CreationDate,2026-07-10T16:18:20+02:00*%
%TF.ProjectId,forZero,666f725a-6572-46f2-9e6b-696361645f70,rev?*%
%TF.SameCoordinates,Original*%
%TF.FileFunction,Soldermask,Top*%
%TF.FilePolarity,Negative*%
%FSLAX46Y46*%
G04 Gerber Fmt 4.6, Leading zero omitted, Abs format (unit mm)*
G04 Created by KiCad (PCBNEW 9.0.7) date 2026-07-10 16:18:20*
%MOMM*%
%LPD*%
G01*
G04 APERTURE LIST*
G04 Aperture macros list*
%AMRoundRect*
0 Rectangle with rounded corners*
0 $1 Rounding radius*
0 $2 $3 $4 $5 $6 $7 $8 $9 X,Y pos of 4 corners*
0 Add a 4 corners polygon primitive as box body*
4,1,4,$2,$3,$4,$5,$6,$7,$8,$9,$2,$3,0*
0 Add four circle primitives for the rounded corners*
1,1,$1+$1,$2,$3*
1,1,$1+$1,$4,$5*
1,1,$1+$1,$6,$7*
1,1,$1+$1,$8,$9*
0 Add four rect primitives between the rounded corners*
20,1,$1+$1,$2,$3,$4,$5,0*
20,1,$1+$1,$4,$5,$6,$7,0*
20,1,$1+$1,$6,$7,$8,$9,0*
20,1,$1+$1,$8,$9,$2,$3,0*%
G04 Aperture macros list end*
%ADD10C,3.174100*%
%ADD11R,1.520000X1.520000*%
%ADD12C,1.520000*%
%ADD13C,2.910000*%
%ADD14R,1.500000X0.650000*%
%ADD15R,1.000000X0.600000*%
%ADD16R,1.475000X0.300000*%
%ADD17R,0.300000X1.475000*%
%ADD18R,1.475000X0.450000*%
%ADD19R,1.400000X0.450000*%
%ADD20R,1.200000X0.600000*%
%ADD21RoundRect,0.250000X0.450000X-0.350000X0.450000X0.350000X-0.450000X0.350000X-0.450000X-0.350000X0*%
%ADD22RoundRect,0.250000X-0.475000X0.337500X-0.475000X-0.337500X0.475000X-0.337500X0.475000X0.337500X0*%
%ADD23RoundRect,0.250000X-0.450000X0.350000X-0.450000X-0.350000X0.450000X-0.350000X0.450000X0.350000X0*%
%ADD24RoundRect,0.150000X0.150000X-0.587500X0.150000X0.587500X-0.150000X0.587500X-0.150000X-0.587500X0*%
%ADD25RoundRect,0.250000X-0.400000X0.525000X-0.400000X-0.525000X0.400000X-0.525000X0.400000X0.525000X0*%
%ADD26RoundRect,0.250000X0.350000X0.450000X-0.350000X0.450000X-0.350000X-0.450000X0.350000X-0.450000X0*%
%ADD27C,3.000000*%
%ADD28RoundRect,0.250000X0.400000X0.625000X-0.400000X0.625000X-0.400000X-0.625000X0.400000X-0.625000X0*%
%ADD29RoundRect,0.250000X-0.350000X-0.450000X0.350000X-0.450000X0.350000X0.450000X-0.350000X0.450000X0*%
%ADD30RoundRect,0.250000X-0.337500X-0.475000X0.337500X-0.475000X0.337500X0.475000X-0.337500X0.475000X0*%
%ADD31RoundRect,0.237500X-0.287500X-0.237500X0.287500X-0.237500X0.287500X0.237500X-0.287500X0.237500X0*%
%ADD32RoundRect,0.250000X-0.400000X-0.625000X0.400000X-0.625000X0.400000X0.625000X-0.400000X0.625000X0*%
%ADD33RoundRect,0.250000X0.475000X-0.337500X0.475000X0.337500X-0.475000X0.337500X-0.475000X-0.337500X0*%
%ADD34RoundRect,0.250000X0.337500X0.475000X-0.337500X0.475000X-0.337500X-0.475000X0.337500X-0.475000X0*%
%ADD35R,4.600000X2.000000*%
%ADD36O,4.200000X2.000000*%
%ADD37O,2.000000X4.200000*%
%ADD38RoundRect,0.250000X0.350000X-0.450000X0.350000X0.450000X-0.350000X0.450000X-0.350000X-0.450000X0*%
%ADD39C,0.650000*%
%ADD40RoundRect,0.150000X-0.425000X0.150000X-0.425000X-0.150000X0.425000X-0.150000X0.425000X0.150000X0*%
%ADD41RoundRect,0.075000X-0.500000X0.075000X-0.500000X-0.075000X0.500000X-0.075000X0.500000X0.075000X0*%
%ADD42O,2.100000X1.000000*%
%ADD43O,1.800000X1.000000*%
%ADD44RoundRect,0.150000X-0.587500X-0.150000X0.587500X-0.150000X0.587500X0.150000X-0.587500X0.150000X0*%
%ADD45RoundRect,0.250000X-1.450000X0.400000X-1.450000X-0.400000X1.450000X-0.400000X1.450000X0.400000X0*%
%ADD46RoundRect,0.250000X0.400000X-0.525000X0.400000X0.525000X-0.400000X0.525000X-0.400000X-0.525000X0*%
%ADD47RoundRect,0.250000X-0.650000X1.000000X-0.650000X-1.000000X0.650000X-1.000000X0.650000X1.000000X0*%
%ADD48RoundRect,0.250001X0.462499X0.624999X-0.462499X0.624999X-0.462499X-0.624999X0.462499X-0.624999X0*%
G04 APERTURE END LIST*
D10*
X75111150Y-59524100D02*
G75*
G02*
X71937050Y-59524100I-1587050J0D01*
G01*
X71937050Y-59524100D02*
G75*
G02*
X75111150Y-59524100I1587050J0D01*
G01*
X75160262Y-130461891D02*
G75*
G02*
X71986162Y-130461891I-1587050J0D01*
G01*
X71986162Y-130461891D02*
G75*
G02*
X75160262Y-130461891I1587050J0D01*
G01*
X140311150Y-59524100D02*
G75*
G02*
X137137050Y-59524100I-1587050J0D01*
G01*
X137137050Y-59524100D02*
G75*
G02*
X140311150Y-59524100I1587050J0D01*
G01*
X140211150Y-130424100D02*
G75*
G02*
X137037050Y-130424100I-1587050J0D01*
G01*
X137037050Y-130424100D02*
G75*
G02*
X140211150Y-130424100I1587050J0D01*
G01*
D11*
%TO.C,J3*%
X124350000Y-66255400D03*
D12*
X127350000Y-66255400D03*
X130350000Y-66255400D03*
X124350000Y-69255400D03*
X127350000Y-69255400D03*
X130350000Y-69255400D03*
D13*
X122200000Y-61935400D03*
X132500000Y-61935400D03*
%TD*%
D14*
%TO.C,IC5*%
X113412000Y-116845000D03*
X113412000Y-118115000D03*
X113412000Y-119385000D03*
X113412000Y-120655000D03*
X118812000Y-120655000D03*
X118812000Y-119385000D03*
X118812000Y-118115000D03*
X118812000Y-116845000D03*
%TD*%
D15*
%TO.C,IC4*%
X85850000Y-107700000D03*
X85850000Y-108650000D03*
X85850000Y-109600000D03*
X88450000Y-109600000D03*
X88450000Y-107700000D03*
%TD*%
D16*
%TO.C,IC3*%
X110588000Y-109950000D03*
X110588000Y-109450000D03*
X110588000Y-108950000D03*
X110588000Y-108450000D03*
X110588000Y-107950000D03*
X110588000Y-107450000D03*
X110588000Y-106950000D03*
X110588000Y-106450000D03*
X110588000Y-105950000D03*
X110588000Y-105450000D03*
X110588000Y-104950000D03*
X110588000Y-104450000D03*
X110588000Y-103950000D03*
X110588000Y-103450000D03*
X110588000Y-102950000D03*
X110588000Y-102450000D03*
D17*
X108600000Y-100462000D03*
X108100000Y-100462000D03*
X107600000Y-100462000D03*
X107100000Y-100462000D03*
X106600000Y-100462000D03*
X106100000Y-100462000D03*
X105600000Y-100462000D03*
X105100000Y-100462000D03*
X104600000Y-100462000D03*
X104100000Y-100462000D03*
X103600000Y-100462000D03*
X103100000Y-100462000D03*
X102600000Y-100462000D03*
X102100000Y-100462000D03*
X101600000Y-100462000D03*
X101100000Y-100462000D03*
D16*
X99112000Y-102450000D03*
X99112000Y-102950000D03*
X99112000Y-103450000D03*
X99112000Y-103950000D03*
X99112000Y-104450000D03*
X99112000Y-104950000D03*
X99112000Y-105450000D03*
X99112000Y-105950000D03*
X99112000Y-106450000D03*
X99112000Y-106950000D03*
X99112000Y-107450000D03*
X99112000Y-107950000D03*
X99112000Y-108450000D03*
X99112000Y-108950000D03*
X99112000Y-109450000D03*
X99112000Y-109950000D03*
D17*
X101100000Y-111938000D03*
X101600000Y-111938000D03*
X102100000Y-111938000D03*
X102600000Y-111938000D03*
X103100000Y-111938000D03*
X103600000Y-111938000D03*
X104100000Y-111938000D03*
X104600000Y-111938000D03*
X105100000Y-111938000D03*
X105600000Y-111938000D03*
X106100000Y-111938000D03*
X106600000Y-111938000D03*
X107100000Y-111938000D03*
X107600000Y-111938000D03*
X108100000Y-111938000D03*
X108600000Y-111938000D03*
%TD*%
D18*
%TO.C,IC2*%
X97574000Y-118800000D03*
X97574000Y-119450000D03*
X97574000Y-120100000D03*
X97574000Y-120750000D03*
X97574000Y-121400000D03*
X97574000Y-122050000D03*
X97574000Y-122700000D03*
X103450000Y-122700000D03*
X103450000Y-122050000D03*
X103450000Y-121400000D03*
X103450000Y-120750000D03*
X103450000Y-120100000D03*
X103450000Y-119450000D03*
X103450000Y-118800000D03*
%TD*%
D19*
%TO.C,IC1*%
X98112000Y-126775000D03*
X98112000Y-127425000D03*
X98112000Y-128075000D03*
X98112000Y-128725000D03*
X102512000Y-128725000D03*
X102512000Y-128075000D03*
X102512000Y-127425000D03*
X102512000Y-126775000D03*
%TD*%
D20*
%TO.C,D1*%
X85950000Y-103100000D03*
X85950000Y-104050000D03*
X85950000Y-105000000D03*
X88450000Y-105000000D03*
X88450000Y-104050000D03*
X88450000Y-103100000D03*
%TD*%
D21*
%TO.C,R23*%
X110300000Y-80943750D03*
X110300000Y-78943750D03*
%TD*%
D22*
%TO.C,C7*%
X114012000Y-122547500D03*
X114012000Y-124622500D03*
%TD*%
%TO.C,C17*%
X119206250Y-85706250D03*
X119206250Y-87781250D03*
%TD*%
D23*
%TO.C,R17*%
X132606250Y-85800000D03*
X132606250Y-87800000D03*
%TD*%
D21*
%TO.C,R29*%
X101200000Y-91762500D03*
X101200000Y-89762500D03*
%TD*%
D23*
%TO.C,R30*%
X105600000Y-85800000D03*
X105600000Y-87800000D03*
%TD*%
D24*
%TO.C,Q10*%
X121450000Y-91737500D03*
X123350000Y-91737500D03*
X122400000Y-89862500D03*
%TD*%
D21*
%TO.C,R46*%
X94300000Y-80900000D03*
X94300000Y-78900000D03*
%TD*%
D25*
%TO.C,RESET*%
X133500000Y-97020000D03*
X133500000Y-104980000D03*
X129000000Y-97020000D03*
X129000000Y-104980000D03*
%TD*%
D26*
%TO.C,R10*%
X108312000Y-120950000D03*
X106312000Y-120950000D03*
%TD*%
D21*
%TO.C,R27*%
X92006250Y-91762500D03*
X92006250Y-89762500D03*
%TD*%
%TO.C,R22*%
X96500000Y-80900000D03*
X96500000Y-78900000D03*
%TD*%
D24*
%TO.C,Q6*%
X112550000Y-76881250D03*
X114450000Y-76881250D03*
X113500000Y-75006250D03*
%TD*%
D27*
%TO.C,J2*%
X112280000Y-61680000D03*
X107600000Y-61680000D03*
D11*
X105440000Y-66000000D03*
D12*
X108440000Y-66000000D03*
X111440000Y-66000000D03*
X114440000Y-66000000D03*
X105440000Y-69000000D03*
X108440000Y-69000000D03*
X111440000Y-69000000D03*
X114440000Y-69000000D03*
%TD*%
D24*
%TO.C,Q5*%
X94350000Y-76775000D03*
X96250000Y-76775000D03*
X95300000Y-74900000D03*
%TD*%
D26*
%TO.C,R11*%
X94912000Y-118950000D03*
X92912000Y-118950000D03*
%TD*%
D28*
%TO.C,R6*%
X108100000Y-129400000D03*
X105000000Y-129400000D03*
%TD*%
D23*
%TO.C,R26*%
X114600000Y-85800000D03*
X114600000Y-87800000D03*
%TD*%
D29*
%TO.C,R37*%
X72487500Y-90390000D03*
X74487500Y-90390000D03*
%TD*%
D30*
%TO.C,C2*%
X106274500Y-126950000D03*
X108349500Y-126950000D03*
%TD*%
%TO.C,C3*%
X106274500Y-118950000D03*
X108349500Y-118950000D03*
%TD*%
D23*
%TO.C,R48*%
X94200000Y-85800000D03*
X94200000Y-87800000D03*
%TD*%
%TO.C,R49*%
X112400000Y-85800000D03*
X112400000Y-87800000D03*
%TD*%
D30*
%TO.C,C22*%
X111162500Y-114000000D03*
X113237500Y-114000000D03*
%TD*%
D26*
%TO.C,R13*%
X92650000Y-105100000D03*
X90650000Y-105100000D03*
%TD*%
D31*
%TO.C,OK*%
X77012500Y-87800000D03*
X78762500Y-87800000D03*
%TD*%
D21*
%TO.C,R34*%
X124800000Y-113820000D03*
X124800000Y-111820000D03*
%TD*%
D32*
%TO.C,R3*%
X92362000Y-129150000D03*
X95462000Y-129150000D03*
%TD*%
D21*
%TO.C,R24*%
X114700000Y-80943750D03*
X114700000Y-78943750D03*
%TD*%
D26*
%TO.C,R7*%
X99586000Y-116876000D03*
X97586000Y-116876000D03*
%TD*%
D22*
%TO.C,C26*%
X119300000Y-74862500D03*
X119300000Y-76937500D03*
%TD*%
D21*
%TO.C,R18*%
X128206250Y-91762500D03*
X128206250Y-89762500D03*
%TD*%
D29*
%TO.C,R36*%
X72487500Y-85200000D03*
X74487500Y-85200000D03*
%TD*%
D24*
%TO.C,Q11*%
X121500000Y-76700000D03*
X123400000Y-76700000D03*
X122450000Y-74825000D03*
%TD*%
D23*
%TO.C,R51*%
X121400000Y-85800000D03*
X121400000Y-87800000D03*
%TD*%
D24*
%TO.C,Q9*%
X103450000Y-91675000D03*
X105350000Y-91675000D03*
X104400000Y-89800000D03*
%TD*%
D21*
%TO.C,R43*%
X123700000Y-80900000D03*
X123700000Y-78900000D03*
%TD*%
D29*
%TO.C,R1*%
X92912000Y-122950000D03*
X94912000Y-122950000D03*
%TD*%
D23*
%TO.C,R47*%
X103400000Y-85800000D03*
X103400000Y-87800000D03*
%TD*%
D29*
%TO.C,R4*%
X106312000Y-122950000D03*
X108312000Y-122950000D03*
%TD*%
D33*
%TO.C,C11*%
X101100000Y-76937500D03*
X101100000Y-74862500D03*
%TD*%
D34*
%TO.C,C5*%
X83387500Y-107900000D03*
X81312500Y-107900000D03*
%TD*%
D30*
%TO.C,C24*%
X113562500Y-102000000D03*
X115637500Y-102000000D03*
%TD*%
D29*
%TO.C,R41*%
X109712000Y-98350000D03*
X111712000Y-98350000D03*
%TD*%
D22*
%TO.C,C13*%
X110300000Y-74906250D03*
X110300000Y-76981250D03*
%TD*%
D29*
%TO.C,R8*%
X101386000Y-116876000D03*
X103386000Y-116876000D03*
%TD*%
D31*
%TO.C,POWER*%
X77087500Y-85200000D03*
X78837500Y-85200000D03*
%TD*%
D21*
%TO.C,R45*%
X103300000Y-80900000D03*
X103300000Y-78900000D03*
%TD*%
%TO.C,R31*%
X119206250Y-91743750D03*
X119206250Y-89743750D03*
%TD*%
D26*
%TO.C,R14*%
X83350000Y-105700000D03*
X81350000Y-105700000D03*
%TD*%
D22*
%TO.C,C16*%
X101200000Y-85725000D03*
X101200000Y-87800000D03*
%TD*%
D35*
%TO.C,J5*%
X82600000Y-70300000D03*
D36*
X82600000Y-64000000D03*
D37*
X77800000Y-67400000D03*
%TD*%
D21*
%TO.C,R52*%
X121500000Y-80900000D03*
X121500000Y-78900000D03*
%TD*%
D26*
%TO.C,R15*%
X83350000Y-102200000D03*
X81350000Y-102200000D03*
%TD*%
D29*
%TO.C,R9*%
X92912000Y-120950000D03*
X94912000Y-120950000D03*
%TD*%
D27*
%TO.C,J4*%
X94200000Y-61680000D03*
D11*
X92700000Y-66000000D03*
D12*
X95700000Y-66000000D03*
X92700000Y-69000000D03*
X95700000Y-69000000D03*
%TD*%
D24*
%TO.C,Q8*%
X94250000Y-91737500D03*
X96150000Y-91737500D03*
X95200000Y-89862500D03*
%TD*%
D23*
%TO.C,R44*%
X130406250Y-85800000D03*
X130406250Y-87800000D03*
%TD*%
D38*
%TO.C,Y1*%
X115450000Y-108800000D03*
X115450000Y-106600000D03*
X113750000Y-106600000D03*
X113750000Y-108800000D03*
%TD*%
D39*
%TO.C,J1*%
X76680000Y-100590000D03*
X76680000Y-106370000D03*
D40*
X77755000Y-100280000D03*
X77755000Y-101080000D03*
D41*
X77755000Y-102230000D03*
X77755000Y-103230000D03*
X77755000Y-103730000D03*
X77755000Y-104730000D03*
D40*
X77755000Y-105880000D03*
X77755000Y-106680000D03*
X77755000Y-106680000D03*
X77755000Y-105880000D03*
D41*
X77755000Y-105230000D03*
X77755000Y-104230000D03*
X77755000Y-102730000D03*
X77755000Y-101730000D03*
D40*
X77755000Y-101080000D03*
X77755000Y-100280000D03*
D42*
X77180000Y-99160000D03*
D43*
X73000000Y-99160000D03*
D42*
X77180000Y-107800000D03*
D43*
X73000000Y-107800000D03*
%TD*%
D29*
%TO.C,R39*%
X80312000Y-98950000D03*
X82312000Y-98950000D03*
%TD*%
%TO.C,R12*%
X90650000Y-103100000D03*
X92650000Y-103100000D03*
%TD*%
D21*
%TO.C,R50*%
X112500000Y-80943750D03*
X112500000Y-78943750D03*
%TD*%
D22*
%TO.C,C14*%
X110206250Y-85725000D03*
X110206250Y-87800000D03*
%TD*%
D44*
%TO.C,Q1*%
X87374500Y-123000000D03*
X87374500Y-124900000D03*
X89249500Y-123950000D03*
%TD*%
D22*
%TO.C,C25*%
X122800000Y-100562500D03*
X122800000Y-102637500D03*
%TD*%
%TO.C,C10*%
X128206250Y-85725000D03*
X128206250Y-87800000D03*
%TD*%
D30*
%TO.C,C20*%
X99074500Y-97950000D03*
X101149500Y-97950000D03*
%TD*%
D22*
%TO.C,C9*%
X118412000Y-122547500D03*
X118412000Y-124622500D03*
%TD*%
D29*
%TO.C,R5*%
X106312000Y-124950000D03*
X108312000Y-124950000D03*
%TD*%
%TO.C,R38*%
X72487500Y-87800000D03*
X74487500Y-87800000D03*
%TD*%
D21*
%TO.C,R20*%
X105700000Y-80900000D03*
X105700000Y-78900000D03*
%TD*%
D24*
%TO.C,Q7*%
X112450000Y-91675000D03*
X114350000Y-91675000D03*
X113400000Y-89800000D03*
%TD*%
D45*
%TO.C,F2*%
X77200000Y-76000000D03*
X77200000Y-80450000D03*
%TD*%
D24*
%TO.C,Q3*%
X130450000Y-91737500D03*
X132350000Y-91737500D03*
X131400000Y-89862500D03*
%TD*%
D22*
%TO.C,C15*%
X92006250Y-85725000D03*
X92006250Y-87800000D03*
%TD*%
D46*
%TO.C,BOOT*%
X128900000Y-115580000D03*
X128900000Y-107620000D03*
X133400000Y-115580000D03*
X133400000Y-107620000D03*
%TD*%
D21*
%TO.C,R19*%
X101100000Y-80900000D03*
X101100000Y-78900000D03*
%TD*%
%TO.C,R35*%
X125000000Y-102600000D03*
X125000000Y-100600000D03*
%TD*%
D34*
%TO.C,C23*%
X96637500Y-111800000D03*
X94562500Y-111800000D03*
%TD*%
%TO.C,C4*%
X102749500Y-124750000D03*
X100674500Y-124750000D03*
%TD*%
D22*
%TO.C,C12*%
X92100000Y-74862500D03*
X92100000Y-76937500D03*
%TD*%
D47*
%TO.C,D2*%
X81800000Y-76425000D03*
X81800000Y-80425000D03*
%TD*%
D30*
%TO.C,C6*%
X90612500Y-107300000D03*
X92687500Y-107300000D03*
%TD*%
D44*
%TO.C,Q2*%
X112974500Y-127800000D03*
X112974500Y-129700000D03*
X114849500Y-128750000D03*
%TD*%
D30*
%TO.C,C19*%
X117362500Y-106500000D03*
X119437500Y-106500000D03*
%TD*%
D24*
%TO.C,Q4*%
X103350000Y-76775000D03*
X105250000Y-76775000D03*
X104300000Y-74900000D03*
%TD*%
D21*
%TO.C,R42*%
X119300000Y-80900000D03*
X119300000Y-78900000D03*
%TD*%
D23*
%TO.C,R32*%
X123600000Y-85800000D03*
X123600000Y-87800000D03*
%TD*%
D29*
%TO.C,R16*%
X128400000Y-73800000D03*
X130400000Y-73800000D03*
%TD*%
D23*
%TO.C,R28*%
X96400000Y-85800000D03*
X96400000Y-87800000D03*
%TD*%
D31*
%TO.C,ERROR*%
X77212500Y-90400000D03*
X78962500Y-90400000D03*
%TD*%
D29*
%TO.C,R2*%
X92912000Y-124950000D03*
X94912000Y-124950000D03*
%TD*%
D48*
%TO.C,F1*%
X83337500Y-111200000D03*
X80362500Y-111200000D03*
%TD*%
D30*
%TO.C,C18*%
X117362500Y-108700000D03*
X119437500Y-108700000D03*
%TD*%
D29*
%TO.C,R33*%
X113600000Y-104300000D03*
X115600000Y-104300000D03*
%TD*%
D21*
%TO.C,R21*%
X92100000Y-80900000D03*
X92100000Y-78900000D03*
%TD*%
D29*
%TO.C,R40*%
X84112000Y-98950000D03*
X86112000Y-98950000D03*
%TD*%
D22*
%TO.C,C8*%
X116212000Y-122547500D03*
X116212000Y-124622500D03*
%TD*%
D34*
%TO.C,C21*%
X92687500Y-109500000D03*
X90612500Y-109500000D03*
%TD*%
%TO.C,C1*%
X94949500Y-126950000D03*
X92874500Y-126950000D03*
%TD*%
D21*
%TO.C,R25*%
X110206250Y-91762500D03*
X110206250Y-89762500D03*
%TD*%
M02*
