%TF.GenerationSoftware,KiCad,Pcbnew,9.0.7*%
%TF.CreationDate,2026-07-10T16:16:15+02:00*%
%TF.ProjectId,forZero,666f725a-6572-46f2-9e6b-696361645f70,rev?*%
%TF.SameCoordinates,Original*%
%TF.FileFunction,Drillmap*%
%TF.FilePolarity,Positive*%
%FSLAX45Y45*%
G04 Gerber Fmt 4.5, Leading zero omitted, Abs format (unit mm)*
G04 Created by KiCad (PCBNEW 9.0.7) date 2026-07-10 16:16:15*
%MOMM*%
%LPD*%
G01*
G04 APERTURE LIST*
%ADD10C,0.050000*%
%ADD11C,0.200000*%
%ADD12C,0.100000*%
%ADD13C,0.102000*%
%ADD14C,0.241000*%
G04 APERTURE END LIST*
D10*
X7520000Y-5950000D02*
G75*
G02*
X7180000Y-5950000I-170000J0D01*
G01*
X7180000Y-5950000D02*
G75*
G02*
X7520000Y-5950000I170000J0D01*
G01*
X14320000Y-5500000D02*
X14320000Y-13500000D01*
X6900000Y-5500000D02*
X14320000Y-5500000D01*
X14320000Y-13500000D02*
X6900000Y-13500000D01*
X14040000Y-5950000D02*
G75*
G02*
X13700000Y-5950000I-170000J0D01*
G01*
X13700000Y-5950000D02*
G75*
G02*
X14040000Y-5950000I170000J0D01*
G01*
X14030000Y-13040000D02*
G75*
G02*
X13690000Y-13040000I-170000J0D01*
G01*
X13690000Y-13040000D02*
G75*
G02*
X14030000Y-13040000I170000J0D01*
G01*
X7524911Y-13043779D02*
G75*
G02*
X7184911Y-13043779I-170000J0D01*
G01*
X7184911Y-13043779D02*
G75*
G02*
X7524911Y-13043779I170000J0D01*
G01*
X6900000Y-13500000D02*
X6900000Y-5500000D01*
D11*
D12*
X7085000Y-5845000D02*
X7115000Y-5875000D01*
X7115000Y-5845000D02*
X7085000Y-5875000D01*
X7085000Y-5945000D02*
X7115000Y-5975000D01*
X7115000Y-5945000D02*
X7085000Y-5975000D01*
X7089911Y-12938779D02*
X7119911Y-12968779D01*
X7119911Y-12938779D02*
X7089911Y-12968779D01*
X7089911Y-13038779D02*
X7119911Y-13068779D01*
X7119911Y-13038779D02*
X7089911Y-13068779D01*
X7105000Y-6045000D02*
X7135000Y-6075000D01*
X7135000Y-6045000D02*
X7105000Y-6075000D01*
X7109911Y-13138779D02*
X7139911Y-13168779D01*
X7139911Y-13138779D02*
X7109911Y-13168779D01*
X7145000Y-5765000D02*
X7175000Y-5795000D01*
X7175000Y-5765000D02*
X7145000Y-5795000D01*
X7149911Y-12858779D02*
X7179911Y-12888779D01*
X7179911Y-12858779D02*
X7149911Y-12888779D01*
X7180089Y-6131221D02*
X7210089Y-6161221D01*
X7210089Y-6131221D02*
X7180089Y-6161221D01*
X7185000Y-13225000D02*
X7215000Y-13255000D01*
X7215000Y-13225000D02*
X7185000Y-13255000D01*
X7225000Y-5705000D02*
X7255000Y-5735000D01*
X7255000Y-5705000D02*
X7225000Y-5735000D01*
X7229911Y-12798779D02*
X7259911Y-12828779D01*
X7259911Y-12798779D02*
X7229911Y-12828779D01*
X7236200Y-10960000D02*
X7266200Y-10990000D01*
X7266200Y-10960000D02*
X7236200Y-10990000D01*
X7256200Y-9740000D02*
X7286200Y-9770000D01*
X7286200Y-9740000D02*
X7256200Y-9770000D01*
X7285000Y-6185000D02*
X7315000Y-6215000D01*
X7315000Y-6185000D02*
X7285000Y-6215000D01*
X7289911Y-13278779D02*
X7319911Y-13308779D01*
X7319911Y-13278779D02*
X7289911Y-13308779D01*
X7325000Y-5665000D02*
X7355000Y-5695000D01*
X7355000Y-5665000D02*
X7325000Y-5695000D01*
X7329911Y-12758779D02*
X7359911Y-12788779D01*
X7359911Y-12758779D02*
X7329911Y-12788779D01*
X7336200Y-10960000D02*
X7366200Y-10990000D01*
X7366200Y-10960000D02*
X7336200Y-10990000D01*
X7356200Y-9740000D02*
X7386200Y-9770000D01*
X7386200Y-9740000D02*
X7356200Y-9770000D01*
X7405000Y-6185000D02*
X7435000Y-6215000D01*
X7435000Y-6185000D02*
X7405000Y-6215000D01*
X7409911Y-13278779D02*
X7439911Y-13308779D01*
X7439911Y-13278779D02*
X7409911Y-13308779D01*
X7436200Y-10960000D02*
X7466200Y-10990000D01*
X7466200Y-10960000D02*
X7436200Y-10990000D01*
X7445000Y-5685000D02*
X7475000Y-5715000D01*
X7475000Y-5685000D02*
X7445000Y-5715000D01*
X7449911Y-12778779D02*
X7479911Y-12808779D01*
X7479911Y-12778779D02*
X7449911Y-12808779D01*
X7456200Y-9740000D02*
X7486200Y-9770000D01*
X7486200Y-9740000D02*
X7456200Y-9770000D01*
X7505000Y-6145000D02*
X7535000Y-6175000D01*
X7535000Y-6145000D02*
X7505000Y-6175000D01*
X7509911Y-13238779D02*
X7539911Y-13268779D01*
X7539911Y-13238779D02*
X7509911Y-13268779D01*
X7525000Y-5765000D02*
X7555000Y-5795000D01*
X7555000Y-5765000D02*
X7525000Y-5795000D01*
X7529911Y-12858779D02*
X7559911Y-12888779D01*
X7559911Y-12858779D02*
X7529911Y-12888779D01*
X7536200Y-10960000D02*
X7566200Y-10990000D01*
X7566200Y-10960000D02*
X7536200Y-10990000D01*
X7556200Y-9740000D02*
X7586200Y-9770000D01*
X7586200Y-9740000D02*
X7556200Y-9770000D01*
X7565000Y-6065000D02*
X7595000Y-6095000D01*
X7595000Y-6065000D02*
X7565000Y-6095000D01*
X7569911Y-13158779D02*
X7599911Y-13188779D01*
X7599911Y-13158779D02*
X7569911Y-13188779D01*
X7585000Y-5865000D02*
X7615000Y-5895000D01*
X7615000Y-5865000D02*
X7585000Y-5895000D01*
X7589911Y-12958779D02*
X7619911Y-12988779D01*
X7619911Y-12958779D02*
X7589911Y-12988779D01*
X7605000Y-5965000D02*
X7635000Y-5995000D01*
X7635000Y-5965000D02*
X7605000Y-5995000D01*
X7609911Y-13058779D02*
X7639911Y-13088779D01*
X7639911Y-13058779D02*
X7609911Y-13088779D01*
X7636200Y-10960000D02*
X7666200Y-10990000D01*
X7666200Y-10960000D02*
X7636200Y-10990000D01*
X7656200Y-9740000D02*
X7686200Y-9770000D01*
X7686200Y-9740000D02*
X7656200Y-9770000D01*
X7916200Y-10020000D02*
X7946200Y-10050000D01*
X7946200Y-10020000D02*
X7916200Y-10050000D01*
X8016200Y-10780000D02*
X8046200Y-10810000D01*
X8046200Y-10780000D02*
X8016200Y-10810000D01*
X8431200Y-10555000D02*
X8461200Y-10585000D01*
X8461200Y-10555000D02*
X8431200Y-10585000D01*
X8456200Y-10205000D02*
X8486200Y-10235000D01*
X8486200Y-10205000D02*
X8456200Y-10235000D01*
X8476200Y-10860000D02*
X8506200Y-10890000D01*
X8506200Y-10860000D02*
X8476200Y-10890000D01*
X8725000Y-9885000D02*
X8755000Y-9915000D01*
X8755000Y-9885000D02*
X8725000Y-9915000D01*
X8816200Y-13020000D02*
X8846200Y-13050000D01*
X8846200Y-13020000D02*
X8816200Y-13050000D01*
X8816200Y-13180000D02*
X8846200Y-13210000D01*
X8846200Y-13180000D02*
X8816200Y-13210000D01*
X8865000Y-8285000D02*
X8895000Y-8315000D01*
X8895000Y-8285000D02*
X8865000Y-8315000D01*
X8945000Y-9625000D02*
X8975000Y-9655000D01*
X8975000Y-9625000D02*
X8945000Y-9655000D01*
X9036200Y-11080000D02*
X9066200Y-11110000D01*
X9066200Y-11080000D02*
X9036200Y-11110000D01*
X9125000Y-8285000D02*
X9155000Y-8315000D01*
X9155000Y-8285000D02*
X9125000Y-8315000D01*
X9156200Y-11880000D02*
X9186200Y-11910000D01*
X9186200Y-11880000D02*
X9156200Y-11910000D01*
X9156200Y-12680000D02*
X9186200Y-12710000D01*
X9186200Y-12680000D02*
X9156200Y-12710000D01*
X9185000Y-8425000D02*
X9215000Y-8455000D01*
X9215000Y-8425000D02*
X9185000Y-8455000D01*
X9285000Y-9625000D02*
X9315000Y-9655000D01*
X9315000Y-9625000D02*
X9285000Y-9655000D01*
X9305000Y-11165000D02*
X9335000Y-11195000D01*
X9335000Y-11165000D02*
X9305000Y-11195000D01*
X9355000Y-7418750D02*
X9385000Y-7448750D01*
X9385000Y-7418750D02*
X9355000Y-7448750D01*
X9405000Y-8425000D02*
X9435000Y-8455000D01*
X9435000Y-8425000D02*
X9405000Y-8455000D01*
X9415000Y-8185000D02*
X9445000Y-8215000D01*
X9445000Y-8185000D02*
X9415000Y-8215000D01*
X9485000Y-10785000D02*
X9515000Y-10815000D01*
X9515000Y-10785000D02*
X9485000Y-10815000D01*
X9585000Y-9625000D02*
X9615000Y-9655000D01*
X9615000Y-9625000D02*
X9585000Y-9655000D01*
X9596200Y-12060000D02*
X9626200Y-12090000D01*
X9626200Y-12060000D02*
X9596200Y-12090000D01*
X9696200Y-12960000D02*
X9726200Y-12990000D01*
X9726200Y-12960000D02*
X9696200Y-12990000D01*
X9705000Y-9211250D02*
X9735000Y-9241250D01*
X9735000Y-9211250D02*
X9705000Y-9241250D01*
X9715000Y-7738750D02*
X9745000Y-7768750D01*
X9745000Y-7738750D02*
X9715000Y-7768750D01*
X9805000Y-8285000D02*
X9835000Y-8315000D01*
X9835000Y-8285000D02*
X9805000Y-8315000D01*
X9885000Y-9625000D02*
X9915000Y-9655000D01*
X9915000Y-9625000D02*
X9885000Y-9655000D01*
X9936200Y-12060000D02*
X9966200Y-12090000D01*
X9966200Y-12060000D02*
X9936200Y-12090000D01*
X9936200Y-12125000D02*
X9966200Y-12155000D01*
X9966200Y-12125000D02*
X9936200Y-12155000D01*
X9943600Y-12312600D02*
X9973600Y-12342600D01*
X9973600Y-12312600D02*
X9943600Y-12342600D01*
X9943600Y-12612600D02*
X9973600Y-12642600D01*
X9973600Y-12612600D02*
X9943600Y-12642600D01*
X10036200Y-12060000D02*
X10066200Y-12090000D01*
X10066200Y-12060000D02*
X10036200Y-12090000D01*
X10036200Y-12125000D02*
X10066200Y-12155000D01*
X10066200Y-12125000D02*
X10036200Y-12155000D01*
X10065000Y-8285000D02*
X10095000Y-8315000D01*
X10095000Y-8285000D02*
X10065000Y-8315000D01*
X10103600Y-12312600D02*
X10133600Y-12342600D01*
X10133600Y-12312600D02*
X10103600Y-12342600D01*
X10103600Y-12612600D02*
X10133600Y-12642600D01*
X10133600Y-12612600D02*
X10103600Y-12642600D01*
X10105000Y-8425000D02*
X10135000Y-8455000D01*
X10135000Y-8425000D02*
X10105000Y-8455000D01*
X10105000Y-9625000D02*
X10135000Y-9655000D01*
X10135000Y-9625000D02*
X10105000Y-9655000D01*
X10116200Y-12060000D02*
X10146200Y-12090000D01*
X10146200Y-12060000D02*
X10116200Y-12090000D01*
X10116200Y-12125000D02*
X10146200Y-12155000D01*
X10146200Y-12125000D02*
X10116200Y-12155000D01*
X10255000Y-7418750D02*
X10285000Y-7448750D01*
X10285000Y-7418750D02*
X10255000Y-7448750D01*
X10315000Y-8185000D02*
X10345000Y-8215000D01*
X10345000Y-8185000D02*
X10315000Y-8215000D01*
X10325000Y-8425000D02*
X10355000Y-8455000D01*
X10355000Y-8425000D02*
X10325000Y-8455000D01*
X10325000Y-13005000D02*
X10355000Y-13035000D01*
X10355000Y-13005000D02*
X10325000Y-13035000D01*
X10396200Y-12460000D02*
X10426200Y-12490000D01*
X10426200Y-12460000D02*
X10396200Y-12490000D01*
X10456200Y-12000000D02*
X10486200Y-12030000D01*
X10486200Y-12000000D02*
X10456200Y-12030000D01*
X10505000Y-9545000D02*
X10535000Y-9575000D01*
X10535000Y-9545000D02*
X10505000Y-9575000D01*
X10625000Y-7718750D02*
X10655000Y-7748750D01*
X10655000Y-7718750D02*
X10625000Y-7748750D01*
X10625000Y-8285000D02*
X10655000Y-8315000D01*
X10655000Y-8285000D02*
X10625000Y-8315000D01*
X10625000Y-9225000D02*
X10655000Y-9255000D01*
X10655000Y-9225000D02*
X10625000Y-9255000D01*
X10636200Y-10980000D02*
X10666200Y-11010000D01*
X10666200Y-10980000D02*
X10636200Y-11010000D01*
X10656200Y-10220000D02*
X10686200Y-10250000D01*
X10686200Y-10220000D02*
X10656200Y-10250000D01*
X10795000Y-9900000D02*
X10825000Y-9930000D01*
X10825000Y-9900000D02*
X10795000Y-9930000D01*
X10819950Y-11723750D02*
X10849950Y-11753750D01*
X10849950Y-11723750D02*
X10819950Y-11753750D01*
X10836200Y-10220000D02*
X10866200Y-10250000D01*
X10866200Y-10220000D02*
X10836200Y-10250000D01*
X10856200Y-10480000D02*
X10886200Y-10510000D01*
X10886200Y-10480000D02*
X10856200Y-10510000D01*
X10905000Y-8285000D02*
X10935000Y-8315000D01*
X10935000Y-8285000D02*
X10905000Y-8315000D01*
X10929062Y-11400938D02*
X10959062Y-11430938D01*
X10959062Y-11400938D02*
X10929062Y-11430938D01*
X10936200Y-12680000D02*
X10966200Y-12710000D01*
X10966200Y-12680000D02*
X10936200Y-12710000D01*
X10945000Y-9545000D02*
X10975000Y-9575000D01*
X10975000Y-9545000D02*
X10945000Y-9575000D01*
X10985000Y-11125000D02*
X11015000Y-11155000D01*
X11015000Y-11125000D02*
X10985000Y-11155000D01*
X11005000Y-8425000D02*
X11035000Y-8455000D01*
X11035000Y-8425000D02*
X11005000Y-8455000D01*
X11056200Y-12420000D02*
X11086200Y-12450000D01*
X11086200Y-12420000D02*
X11056200Y-12450000D01*
X11056200Y-12800000D02*
X11086200Y-12830000D01*
X11086200Y-12800000D02*
X11056200Y-12830000D01*
X11056200Y-13000000D02*
X11086200Y-13030000D01*
X11086200Y-13000000D02*
X11056200Y-13030000D01*
X11139700Y-11796500D02*
X11169700Y-11826500D01*
X11169700Y-11796500D02*
X11139700Y-11826500D01*
X11178750Y-7443125D02*
X11208750Y-7473125D01*
X11208750Y-7443125D02*
X11178750Y-7473125D01*
X11196200Y-12260000D02*
X11226200Y-12290000D01*
X11226200Y-12260000D02*
X11196200Y-12290000D01*
X11225000Y-8425000D02*
X11255000Y-8455000D01*
X11255000Y-8425000D02*
X11225000Y-8455000D01*
X11235000Y-8185000D02*
X11265000Y-8215000D01*
X11265000Y-8185000D02*
X11235000Y-8215000D01*
X11263698Y-10768699D02*
X11293698Y-10798699D01*
X11293698Y-10768699D02*
X11263698Y-10798699D01*
X11416200Y-12600000D02*
X11446200Y-12630000D01*
X11446200Y-12600000D02*
X11416200Y-12630000D01*
X11465000Y-11385000D02*
X11495000Y-11415000D01*
X11495000Y-11385000D02*
X11465000Y-11415000D01*
X11538750Y-7743125D02*
X11568750Y-7773125D01*
X11568750Y-7743125D02*
X11538750Y-7773125D01*
X11545000Y-8285000D02*
X11575000Y-8315000D01*
X11575000Y-8285000D02*
X11545000Y-8315000D01*
X11545000Y-9225000D02*
X11575000Y-9255000D01*
X11575000Y-9225000D02*
X11545000Y-9255000D01*
X11616200Y-12600000D02*
X11646200Y-12630000D01*
X11646200Y-12600000D02*
X11616200Y-12630000D01*
X11816200Y-12600000D02*
X11846200Y-12630000D01*
X11846200Y-12600000D02*
X11816200Y-12630000D01*
X11825000Y-8285000D02*
X11855000Y-8315000D01*
X11855000Y-8285000D02*
X11825000Y-8315000D01*
X11905000Y-8425000D02*
X11935000Y-8455000D01*
X11935000Y-8425000D02*
X11905000Y-8455000D01*
X12036200Y-11720000D02*
X12066200Y-11750000D01*
X12066200Y-11720000D02*
X12036200Y-11750000D01*
X12075000Y-7418750D02*
X12105000Y-7448750D01*
X12105000Y-7418750D02*
X12075000Y-7448750D01*
X12076200Y-10640000D02*
X12106200Y-10670000D01*
X12106200Y-10640000D02*
X12076200Y-10670000D01*
X12076200Y-10860000D02*
X12106200Y-10890000D01*
X12106200Y-10860000D02*
X12076200Y-10890000D01*
X12125000Y-8425000D02*
X12155000Y-8455000D01*
X12155000Y-8425000D02*
X12125000Y-8455000D01*
X12135000Y-8185000D02*
X12165000Y-8215000D01*
X12165000Y-8185000D02*
X12135000Y-8215000D01*
X12265000Y-10385000D02*
X12295000Y-10415000D01*
X12295000Y-10385000D02*
X12265000Y-10415000D01*
X12425000Y-9211250D02*
X12455000Y-9241250D01*
X12455000Y-9211250D02*
X12425000Y-9241250D01*
X12455000Y-7715000D02*
X12485000Y-7745000D01*
X12485000Y-7715000D02*
X12455000Y-7745000D01*
X12465000Y-11025000D02*
X12495000Y-11055000D01*
X12495000Y-11025000D02*
X12465000Y-11055000D01*
X12485000Y-8285000D02*
X12515000Y-8315000D01*
X12515000Y-8285000D02*
X12485000Y-8315000D01*
X12645000Y-8285000D02*
X12675000Y-8315000D01*
X12675000Y-8285000D02*
X12645000Y-8315000D01*
X12805000Y-8425000D02*
X12835000Y-8455000D01*
X12835000Y-8425000D02*
X12805000Y-8455000D01*
X13025000Y-8425000D02*
X13055000Y-8455000D01*
X13055000Y-8425000D02*
X13025000Y-8455000D01*
X13325000Y-9211250D02*
X13355000Y-9241250D01*
X13355000Y-9211250D02*
X13325000Y-9241250D01*
X13345000Y-9485000D02*
X13375000Y-9515000D01*
X13375000Y-9485000D02*
X13345000Y-9515000D01*
X13505000Y-10487000D02*
X13535000Y-10517000D01*
X13535000Y-10487000D02*
X13505000Y-10517000D01*
X13595000Y-12935000D02*
X13625000Y-12965000D01*
X13625000Y-12935000D02*
X13595000Y-12965000D01*
X13595000Y-13035000D02*
X13625000Y-13065000D01*
X13625000Y-13035000D02*
X13595000Y-13065000D01*
X13605000Y-5845000D02*
X13635000Y-5875000D01*
X13635000Y-5845000D02*
X13605000Y-5875000D01*
X13605000Y-5945000D02*
X13635000Y-5975000D01*
X13635000Y-5945000D02*
X13605000Y-5975000D01*
X13615000Y-13135000D02*
X13645000Y-13165000D01*
X13645000Y-13135000D02*
X13615000Y-13165000D01*
X13625000Y-6045000D02*
X13655000Y-6075000D01*
X13655000Y-6045000D02*
X13625000Y-6075000D01*
X13655000Y-12855000D02*
X13685000Y-12885000D01*
X13685000Y-12855000D02*
X13655000Y-12885000D01*
X13665000Y-5765000D02*
X13695000Y-5795000D01*
X13695000Y-5765000D02*
X13665000Y-5795000D01*
X13690089Y-13221221D02*
X13720089Y-13251221D01*
X13720089Y-13221221D02*
X13690089Y-13251221D01*
X13700089Y-6131221D02*
X13730089Y-6161221D01*
X13730089Y-6131221D02*
X13700089Y-6161221D01*
X13735000Y-12795000D02*
X13765000Y-12825000D01*
X13765000Y-12795000D02*
X13735000Y-12825000D01*
X13745000Y-5705000D02*
X13775000Y-5735000D01*
X13775000Y-5705000D02*
X13745000Y-5735000D01*
X13795000Y-13275000D02*
X13825000Y-13305000D01*
X13825000Y-13275000D02*
X13795000Y-13305000D01*
X13805000Y-6185000D02*
X13835000Y-6215000D01*
X13835000Y-6185000D02*
X13805000Y-6215000D01*
X13835000Y-12755000D02*
X13865000Y-12785000D01*
X13865000Y-12755000D02*
X13835000Y-12785000D01*
X13845000Y-5665000D02*
X13875000Y-5695000D01*
X13875000Y-5665000D02*
X13845000Y-5695000D01*
X13915000Y-13275000D02*
X13945000Y-13305000D01*
X13945000Y-13275000D02*
X13915000Y-13305000D01*
X13925000Y-6185000D02*
X13955000Y-6215000D01*
X13955000Y-6185000D02*
X13925000Y-6215000D01*
X13955000Y-12775000D02*
X13985000Y-12805000D01*
X13985000Y-12775000D02*
X13955000Y-12805000D01*
X13965000Y-5685000D02*
X13995000Y-5715000D01*
X13995000Y-5685000D02*
X13965000Y-5715000D01*
X14015000Y-13235000D02*
X14045000Y-13265000D01*
X14045000Y-13235000D02*
X14015000Y-13265000D01*
X14025000Y-6145000D02*
X14055000Y-6175000D01*
X14055000Y-6145000D02*
X14025000Y-6175000D01*
X14035000Y-12855000D02*
X14065000Y-12885000D01*
X14065000Y-12855000D02*
X14035000Y-12885000D01*
X14045000Y-5765000D02*
X14075000Y-5795000D01*
X14075000Y-5765000D02*
X14045000Y-5795000D01*
X14075000Y-13155000D02*
X14105000Y-13185000D01*
X14105000Y-13155000D02*
X14075000Y-13185000D01*
X14085000Y-6065000D02*
X14115000Y-6095000D01*
X14115000Y-6065000D02*
X14085000Y-6095000D01*
X14095000Y-12955000D02*
X14125000Y-12985000D01*
X14125000Y-12955000D02*
X14095000Y-12985000D01*
X14105000Y-5865000D02*
X14135000Y-5895000D01*
X14135000Y-5865000D02*
X14105000Y-5895000D01*
X14115000Y-13055000D02*
X14145000Y-13085000D01*
X14145000Y-13055000D02*
X14115000Y-13085000D01*
X14125000Y-5965000D02*
X14155000Y-5995000D01*
X14155000Y-5965000D02*
X14125000Y-5995000D01*
X7330000Y-9916000D02*
G75*
G02*
X7270000Y-9916000I-30000J0D01*
G01*
X7270000Y-9916000D02*
G75*
G02*
X7330000Y-9916000I30000J0D01*
G01*
X7340000Y-9886000D02*
X7260000Y-9886000D01*
X7260000Y-9946000D02*
G75*
G02*
X7260000Y-9886000I0J30000D01*
G01*
X7260000Y-9946000D02*
X7340000Y-9946000D01*
X7340000Y-9946000D02*
G75*
G03*
X7340000Y-9886000I0J30000D01*
G01*
X7330000Y-10780000D02*
G75*
G02*
X7270000Y-10780000I-30000J0D01*
G01*
X7270000Y-10780000D02*
G75*
G02*
X7330000Y-10780000I30000J0D01*
G01*
X7340000Y-10750000D02*
X7260000Y-10750000D01*
X7260000Y-10810000D02*
G75*
G02*
X7260000Y-10750000I0J30000D01*
G01*
X7260000Y-10810000D02*
X7340000Y-10810000D01*
X7340000Y-10810000D02*
G75*
G03*
X7340000Y-10750000I0J30000D01*
G01*
X7748000Y-9916000D02*
G75*
G02*
X7688000Y-9916000I-30000J0D01*
G01*
X7688000Y-9916000D02*
G75*
G02*
X7748000Y-9916000I30000J0D01*
G01*
X7773000Y-9886000D02*
X7663000Y-9886000D01*
X7663000Y-9946000D02*
G75*
G02*
X7663000Y-9886000I0J30000D01*
G01*
X7663000Y-9946000D02*
X7773000Y-9946000D01*
X7773000Y-9946000D02*
G75*
G03*
X7773000Y-9886000I0J30000D01*
G01*
X7748000Y-10780000D02*
G75*
G02*
X7688000Y-10780000I-30000J0D01*
G01*
X7688000Y-10780000D02*
G75*
G02*
X7748000Y-10780000I30000J0D01*
G01*
X7773000Y-10750000D02*
X7663000Y-10750000D01*
X7663000Y-10810000D02*
G75*
G02*
X7663000Y-10750000I0J30000D01*
G01*
X7663000Y-10810000D02*
X7773000Y-10810000D01*
X7773000Y-10810000D02*
G75*
G03*
X7773000Y-10750000I0J30000D01*
G01*
X7780000Y-6690000D02*
X7780000Y-6790000D01*
X7730000Y-6740000D02*
X7830000Y-6740000D01*
X7830000Y-6850000D02*
X7830000Y-6630000D01*
X7730000Y-6630000D02*
G75*
G02*
X7830000Y-6630000I50000J0D01*
G01*
X7730000Y-6630000D02*
X7730000Y-6850000D01*
X7730000Y-6850000D02*
G75*
G03*
X7830000Y-6850000I50000J0D01*
G01*
X8260000Y-6350000D02*
X8260000Y-6450000D01*
X8210000Y-6400000D02*
X8310000Y-6400000D01*
X8370000Y-6350000D02*
X8150000Y-6350000D01*
X8150000Y-6450000D02*
G75*
G02*
X8150000Y-6350000I0J50000D01*
G01*
X8150000Y-6450000D02*
X8370000Y-6450000D01*
X8370000Y-6450000D02*
G75*
G03*
X8370000Y-6350000I0J50000D01*
G01*
X8260000Y-6980000D02*
X8260000Y-7080000D01*
X8210000Y-7030000D02*
X8310000Y-7030000D01*
X8390000Y-6980000D02*
X8130000Y-6980000D01*
X8130000Y-7080000D02*
G75*
G02*
X8130000Y-6980000I0J50000D01*
G01*
X8130000Y-7080000D02*
X8390000Y-7080000D01*
X8390000Y-7080000D02*
G75*
G03*
X8390000Y-6980000I0J50000D01*
G01*
D13*
X9306063Y-6636063D02*
X9306063Y-6563937D01*
X9233937Y-6563937D01*
X9233937Y-6636063D01*
X9306063Y-6636063D01*
X9306063Y-6936063D02*
X9306063Y-6863937D01*
X9233937Y-6863937D01*
X9233937Y-6936063D01*
X9306063Y-6936063D01*
X9606063Y-6636063D02*
X9606063Y-6563937D01*
X9533937Y-6563937D01*
X9533937Y-6636063D01*
X9606063Y-6636063D01*
X9606063Y-6936063D02*
X9606063Y-6863937D01*
X9533937Y-6863937D01*
X9533937Y-6936063D01*
X9606063Y-6936063D01*
X10580063Y-6636063D02*
X10580063Y-6563937D01*
X10507937Y-6563937D01*
X10507937Y-6636063D01*
X10580063Y-6636063D01*
X10580063Y-6936063D02*
X10580063Y-6863937D01*
X10507937Y-6863937D01*
X10507937Y-6936063D01*
X10580063Y-6936063D01*
X10880063Y-6636063D02*
X10880063Y-6563937D01*
X10807937Y-6563937D01*
X10807937Y-6636063D01*
X10880063Y-6636063D01*
X10880063Y-6936063D02*
X10880063Y-6863937D01*
X10807937Y-6863937D01*
X10807937Y-6936063D01*
X10880063Y-6936063D01*
X11180063Y-6636063D02*
X11180063Y-6563937D01*
X11107937Y-6563937D01*
X11107937Y-6636063D01*
X11180063Y-6636063D01*
X11180063Y-6936063D02*
X11180063Y-6863937D01*
X11107937Y-6863937D01*
X11107937Y-6936063D01*
X11180063Y-6936063D01*
X11480063Y-6636063D02*
X11480063Y-6563937D01*
X11407937Y-6563937D01*
X11407937Y-6636063D01*
X11480063Y-6636063D01*
X11480063Y-6936063D02*
X11480063Y-6863937D01*
X11407937Y-6863937D01*
X11407937Y-6936063D01*
X11480063Y-6936063D01*
X12471063Y-6661603D02*
X12471063Y-6589477D01*
X12398937Y-6589477D01*
X12398937Y-6661603D01*
X12471063Y-6661603D01*
X12471063Y-6961603D02*
X12471063Y-6889477D01*
X12398937Y-6889477D01*
X12398937Y-6961603D01*
X12471063Y-6961603D01*
X12771063Y-6661603D02*
X12771063Y-6589477D01*
X12698937Y-6589477D01*
X12698937Y-6661603D01*
X12771063Y-6661603D01*
X12771063Y-6961603D02*
X12771063Y-6889477D01*
X12698937Y-6889477D01*
X12698937Y-6961603D01*
X12771063Y-6961603D01*
X13071063Y-6661603D02*
X13071063Y-6589477D01*
X12998937Y-6589477D01*
X12998937Y-6661603D01*
X13071063Y-6661603D01*
X13071063Y-6961603D02*
X13071063Y-6889477D01*
X12998937Y-6889477D01*
X12998937Y-6961603D01*
X13071063Y-6961603D01*
D14*
X12220000Y-6314040D02*
X12340500Y-6193540D01*
X12220000Y-6073040D01*
X12099500Y-6193540D01*
X12220000Y-6314040D01*
X13250000Y-6314040D02*
X13370500Y-6193540D01*
X13250000Y-6073040D01*
X13129500Y-6193540D01*
X13250000Y-6314040D01*
D11*
X7158277Y-13813984D02*
X7158277Y-13613984D01*
X7158277Y-13613984D02*
X7205896Y-13613984D01*
X7205896Y-13613984D02*
X7234467Y-13623508D01*
X7234467Y-13623508D02*
X7253515Y-13642555D01*
X7253515Y-13642555D02*
X7263039Y-13661603D01*
X7263039Y-13661603D02*
X7272562Y-13699698D01*
X7272562Y-13699698D02*
X7272562Y-13728269D01*
X7272562Y-13728269D02*
X7263039Y-13766365D01*
X7263039Y-13766365D02*
X7253515Y-13785412D01*
X7253515Y-13785412D02*
X7234467Y-13804460D01*
X7234467Y-13804460D02*
X7205896Y-13813984D01*
X7205896Y-13813984D02*
X7158277Y-13813984D01*
X7358277Y-13813984D02*
X7358277Y-13680650D01*
X7358277Y-13718746D02*
X7367801Y-13699698D01*
X7367801Y-13699698D02*
X7377324Y-13690174D01*
X7377324Y-13690174D02*
X7396372Y-13680650D01*
X7396372Y-13680650D02*
X7415420Y-13680650D01*
X7482086Y-13813984D02*
X7482086Y-13680650D01*
X7482086Y-13613984D02*
X7472562Y-13623508D01*
X7472562Y-13623508D02*
X7482086Y-13633031D01*
X7482086Y-13633031D02*
X7491610Y-13623508D01*
X7491610Y-13623508D02*
X7482086Y-13613984D01*
X7482086Y-13613984D02*
X7482086Y-13633031D01*
X7605896Y-13813984D02*
X7586848Y-13804460D01*
X7586848Y-13804460D02*
X7577324Y-13785412D01*
X7577324Y-13785412D02*
X7577324Y-13613984D01*
X7710658Y-13813984D02*
X7691610Y-13804460D01*
X7691610Y-13804460D02*
X7682086Y-13785412D01*
X7682086Y-13785412D02*
X7682086Y-13613984D01*
X7939229Y-13813984D02*
X7939229Y-13613984D01*
X7939229Y-13613984D02*
X8005896Y-13756841D01*
X8005896Y-13756841D02*
X8072562Y-13613984D01*
X8072562Y-13613984D02*
X8072562Y-13813984D01*
X8253515Y-13813984D02*
X8253515Y-13709222D01*
X8253515Y-13709222D02*
X8243991Y-13690174D01*
X8243991Y-13690174D02*
X8224943Y-13680650D01*
X8224943Y-13680650D02*
X8186848Y-13680650D01*
X8186848Y-13680650D02*
X8167801Y-13690174D01*
X8253515Y-13804460D02*
X8234467Y-13813984D01*
X8234467Y-13813984D02*
X8186848Y-13813984D01*
X8186848Y-13813984D02*
X8167801Y-13804460D01*
X8167801Y-13804460D02*
X8158277Y-13785412D01*
X8158277Y-13785412D02*
X8158277Y-13766365D01*
X8158277Y-13766365D02*
X8167801Y-13747317D01*
X8167801Y-13747317D02*
X8186848Y-13737793D01*
X8186848Y-13737793D02*
X8234467Y-13737793D01*
X8234467Y-13737793D02*
X8253515Y-13728269D01*
X8348753Y-13680650D02*
X8348753Y-13880650D01*
X8348753Y-13690174D02*
X8367801Y-13680650D01*
X8367801Y-13680650D02*
X8405896Y-13680650D01*
X8405896Y-13680650D02*
X8424944Y-13690174D01*
X8424944Y-13690174D02*
X8434467Y-13699698D01*
X8434467Y-13699698D02*
X8443991Y-13718746D01*
X8443991Y-13718746D02*
X8443991Y-13775888D01*
X8443991Y-13775888D02*
X8434467Y-13794936D01*
X8434467Y-13794936D02*
X8424944Y-13804460D01*
X8424944Y-13804460D02*
X8405896Y-13813984D01*
X8405896Y-13813984D02*
X8367801Y-13813984D01*
X8367801Y-13813984D02*
X8348753Y-13804460D01*
X8529705Y-13794936D02*
X8539229Y-13804460D01*
X8539229Y-13804460D02*
X8529705Y-13813984D01*
X8529705Y-13813984D02*
X8520182Y-13804460D01*
X8520182Y-13804460D02*
X8529705Y-13794936D01*
X8529705Y-13794936D02*
X8529705Y-13813984D01*
X8529705Y-13690174D02*
X8539229Y-13699698D01*
X8539229Y-13699698D02*
X8529705Y-13709222D01*
X8529705Y-13709222D02*
X8520182Y-13699698D01*
X8520182Y-13699698D02*
X8529705Y-13690174D01*
X8529705Y-13690174D02*
X8529705Y-13709222D01*
D12*
X6867500Y-14127500D02*
X6897500Y-14157500D01*
X6897500Y-14127500D02*
X6867500Y-14157500D01*
D11*
X7196372Y-14033984D02*
X7215420Y-14033984D01*
X7215420Y-14033984D02*
X7234467Y-14043508D01*
X7234467Y-14043508D02*
X7243991Y-14053031D01*
X7243991Y-14053031D02*
X7253515Y-14072079D01*
X7253515Y-14072079D02*
X7263039Y-14110174D01*
X7263039Y-14110174D02*
X7263039Y-14157793D01*
X7263039Y-14157793D02*
X7253515Y-14195888D01*
X7253515Y-14195888D02*
X7243991Y-14214936D01*
X7243991Y-14214936D02*
X7234467Y-14224460D01*
X7234467Y-14224460D02*
X7215420Y-14233984D01*
X7215420Y-14233984D02*
X7196372Y-14233984D01*
X7196372Y-14233984D02*
X7177324Y-14224460D01*
X7177324Y-14224460D02*
X7167801Y-14214936D01*
X7167801Y-14214936D02*
X7158277Y-14195888D01*
X7158277Y-14195888D02*
X7148753Y-14157793D01*
X7148753Y-14157793D02*
X7148753Y-14110174D01*
X7148753Y-14110174D02*
X7158277Y-14072079D01*
X7158277Y-14072079D02*
X7167801Y-14053031D01*
X7167801Y-14053031D02*
X7177324Y-14043508D01*
X7177324Y-14043508D02*
X7196372Y-14033984D01*
X7348753Y-14214936D02*
X7358277Y-14224460D01*
X7358277Y-14224460D02*
X7348753Y-14233984D01*
X7348753Y-14233984D02*
X7339229Y-14224460D01*
X7339229Y-14224460D02*
X7348753Y-14214936D01*
X7348753Y-14214936D02*
X7348753Y-14233984D01*
X7424943Y-14033984D02*
X7548753Y-14033984D01*
X7548753Y-14033984D02*
X7482086Y-14110174D01*
X7482086Y-14110174D02*
X7510658Y-14110174D01*
X7510658Y-14110174D02*
X7529705Y-14119698D01*
X7529705Y-14119698D02*
X7539229Y-14129222D01*
X7539229Y-14129222D02*
X7548753Y-14148269D01*
X7548753Y-14148269D02*
X7548753Y-14195888D01*
X7548753Y-14195888D02*
X7539229Y-14214936D01*
X7539229Y-14214936D02*
X7529705Y-14224460D01*
X7529705Y-14224460D02*
X7510658Y-14233984D01*
X7510658Y-14233984D02*
X7453515Y-14233984D01*
X7453515Y-14233984D02*
X7434467Y-14224460D01*
X7434467Y-14224460D02*
X7424943Y-14214936D01*
X7672562Y-14033984D02*
X7691610Y-14033984D01*
X7691610Y-14033984D02*
X7710658Y-14043508D01*
X7710658Y-14043508D02*
X7720182Y-14053031D01*
X7720182Y-14053031D02*
X7729705Y-14072079D01*
X7729705Y-14072079D02*
X7739229Y-14110174D01*
X7739229Y-14110174D02*
X7739229Y-14157793D01*
X7739229Y-14157793D02*
X7729705Y-14195888D01*
X7729705Y-14195888D02*
X7720182Y-14214936D01*
X7720182Y-14214936D02*
X7710658Y-14224460D01*
X7710658Y-14224460D02*
X7691610Y-14233984D01*
X7691610Y-14233984D02*
X7672562Y-14233984D01*
X7672562Y-14233984D02*
X7653515Y-14224460D01*
X7653515Y-14224460D02*
X7643991Y-14214936D01*
X7643991Y-14214936D02*
X7634467Y-14195888D01*
X7634467Y-14195888D02*
X7624943Y-14157793D01*
X7624943Y-14157793D02*
X7624943Y-14110174D01*
X7624943Y-14110174D02*
X7634467Y-14072079D01*
X7634467Y-14072079D02*
X7643991Y-14053031D01*
X7643991Y-14053031D02*
X7653515Y-14043508D01*
X7653515Y-14043508D02*
X7672562Y-14033984D01*
X7863039Y-14033984D02*
X7882086Y-14033984D01*
X7882086Y-14033984D02*
X7901134Y-14043508D01*
X7901134Y-14043508D02*
X7910658Y-14053031D01*
X7910658Y-14053031D02*
X7920182Y-14072079D01*
X7920182Y-14072079D02*
X7929705Y-14110174D01*
X7929705Y-14110174D02*
X7929705Y-14157793D01*
X7929705Y-14157793D02*
X7920182Y-14195888D01*
X7920182Y-14195888D02*
X7910658Y-14214936D01*
X7910658Y-14214936D02*
X7901134Y-14224460D01*
X7901134Y-14224460D02*
X7882086Y-14233984D01*
X7882086Y-14233984D02*
X7863039Y-14233984D01*
X7863039Y-14233984D02*
X7843991Y-14224460D01*
X7843991Y-14224460D02*
X7834467Y-14214936D01*
X7834467Y-14214936D02*
X7824943Y-14195888D01*
X7824943Y-14195888D02*
X7815420Y-14157793D01*
X7815420Y-14157793D02*
X7815420Y-14110174D01*
X7815420Y-14110174D02*
X7824943Y-14072079D01*
X7824943Y-14072079D02*
X7834467Y-14053031D01*
X7834467Y-14053031D02*
X7843991Y-14043508D01*
X7843991Y-14043508D02*
X7863039Y-14033984D01*
X8015420Y-14233984D02*
X8015420Y-14100650D01*
X8015420Y-14119698D02*
X8024943Y-14110174D01*
X8024943Y-14110174D02*
X8043991Y-14100650D01*
X8043991Y-14100650D02*
X8072563Y-14100650D01*
X8072563Y-14100650D02*
X8091610Y-14110174D01*
X8091610Y-14110174D02*
X8101134Y-14129222D01*
X8101134Y-14129222D02*
X8101134Y-14233984D01*
X8101134Y-14129222D02*
X8110658Y-14110174D01*
X8110658Y-14110174D02*
X8129705Y-14100650D01*
X8129705Y-14100650D02*
X8158277Y-14100650D01*
X8158277Y-14100650D02*
X8177324Y-14110174D01*
X8177324Y-14110174D02*
X8186848Y-14129222D01*
X8186848Y-14129222D02*
X8186848Y-14233984D01*
X8282086Y-14233984D02*
X8282086Y-14100650D01*
X8282086Y-14119698D02*
X8291610Y-14110174D01*
X8291610Y-14110174D02*
X8310658Y-14100650D01*
X8310658Y-14100650D02*
X8339229Y-14100650D01*
X8339229Y-14100650D02*
X8358277Y-14110174D01*
X8358277Y-14110174D02*
X8367801Y-14129222D01*
X8367801Y-14129222D02*
X8367801Y-14233984D01*
X8367801Y-14129222D02*
X8377324Y-14110174D01*
X8377324Y-14110174D02*
X8396372Y-14100650D01*
X8396372Y-14100650D02*
X8424944Y-14100650D01*
X8424944Y-14100650D02*
X8443991Y-14110174D01*
X8443991Y-14110174D02*
X8453515Y-14129222D01*
X8453515Y-14129222D02*
X8453515Y-14233984D01*
X8843991Y-14024460D02*
X8672563Y-14281603D01*
X9101134Y-14033984D02*
X9120182Y-14033984D01*
X9120182Y-14033984D02*
X9139229Y-14043508D01*
X9139229Y-14043508D02*
X9148753Y-14053031D01*
X9148753Y-14053031D02*
X9158277Y-14072079D01*
X9158277Y-14072079D02*
X9167801Y-14110174D01*
X9167801Y-14110174D02*
X9167801Y-14157793D01*
X9167801Y-14157793D02*
X9158277Y-14195888D01*
X9158277Y-14195888D02*
X9148753Y-14214936D01*
X9148753Y-14214936D02*
X9139229Y-14224460D01*
X9139229Y-14224460D02*
X9120182Y-14233984D01*
X9120182Y-14233984D02*
X9101134Y-14233984D01*
X9101134Y-14233984D02*
X9082087Y-14224460D01*
X9082087Y-14224460D02*
X9072563Y-14214936D01*
X9072563Y-14214936D02*
X9063039Y-14195888D01*
X9063039Y-14195888D02*
X9053515Y-14157793D01*
X9053515Y-14157793D02*
X9053515Y-14110174D01*
X9053515Y-14110174D02*
X9063039Y-14072079D01*
X9063039Y-14072079D02*
X9072563Y-14053031D01*
X9072563Y-14053031D02*
X9082087Y-14043508D01*
X9082087Y-14043508D02*
X9101134Y-14033984D01*
X9253515Y-14214936D02*
X9263039Y-14224460D01*
X9263039Y-14224460D02*
X9253515Y-14233984D01*
X9253515Y-14233984D02*
X9243991Y-14224460D01*
X9243991Y-14224460D02*
X9253515Y-14214936D01*
X9253515Y-14214936D02*
X9253515Y-14233984D01*
X9386848Y-14033984D02*
X9405896Y-14033984D01*
X9405896Y-14033984D02*
X9424944Y-14043508D01*
X9424944Y-14043508D02*
X9434468Y-14053031D01*
X9434468Y-14053031D02*
X9443991Y-14072079D01*
X9443991Y-14072079D02*
X9453515Y-14110174D01*
X9453515Y-14110174D02*
X9453515Y-14157793D01*
X9453515Y-14157793D02*
X9443991Y-14195888D01*
X9443991Y-14195888D02*
X9434468Y-14214936D01*
X9434468Y-14214936D02*
X9424944Y-14224460D01*
X9424944Y-14224460D02*
X9405896Y-14233984D01*
X9405896Y-14233984D02*
X9386848Y-14233984D01*
X9386848Y-14233984D02*
X9367801Y-14224460D01*
X9367801Y-14224460D02*
X9358277Y-14214936D01*
X9358277Y-14214936D02*
X9348753Y-14195888D01*
X9348753Y-14195888D02*
X9339229Y-14157793D01*
X9339229Y-14157793D02*
X9339229Y-14110174D01*
X9339229Y-14110174D02*
X9348753Y-14072079D01*
X9348753Y-14072079D02*
X9358277Y-14053031D01*
X9358277Y-14053031D02*
X9367801Y-14043508D01*
X9367801Y-14043508D02*
X9386848Y-14033984D01*
X9643991Y-14233984D02*
X9529706Y-14233984D01*
X9586848Y-14233984D02*
X9586848Y-14033984D01*
X9586848Y-14033984D02*
X9567801Y-14062555D01*
X9567801Y-14062555D02*
X9548753Y-14081603D01*
X9548753Y-14081603D02*
X9529706Y-14091127D01*
X9834468Y-14233984D02*
X9720182Y-14233984D01*
X9777325Y-14233984D02*
X9777325Y-14033984D01*
X9777325Y-14033984D02*
X9758277Y-14062555D01*
X9758277Y-14062555D02*
X9739229Y-14081603D01*
X9739229Y-14081603D02*
X9720182Y-14091127D01*
X9948753Y-14119698D02*
X9929706Y-14110174D01*
X9929706Y-14110174D02*
X9920182Y-14100650D01*
X9920182Y-14100650D02*
X9910658Y-14081603D01*
X9910658Y-14081603D02*
X9910658Y-14072079D01*
X9910658Y-14072079D02*
X9920182Y-14053031D01*
X9920182Y-14053031D02*
X9929706Y-14043508D01*
X9929706Y-14043508D02*
X9948753Y-14033984D01*
X9948753Y-14033984D02*
X9986849Y-14033984D01*
X9986849Y-14033984D02*
X10005896Y-14043508D01*
X10005896Y-14043508D02*
X10015420Y-14053031D01*
X10015420Y-14053031D02*
X10024944Y-14072079D01*
X10024944Y-14072079D02*
X10024944Y-14081603D01*
X10024944Y-14081603D02*
X10015420Y-14100650D01*
X10015420Y-14100650D02*
X10005896Y-14110174D01*
X10005896Y-14110174D02*
X9986849Y-14119698D01*
X9986849Y-14119698D02*
X9948753Y-14119698D01*
X9948753Y-14119698D02*
X9929706Y-14129222D01*
X9929706Y-14129222D02*
X9920182Y-14138746D01*
X9920182Y-14138746D02*
X9910658Y-14157793D01*
X9910658Y-14157793D02*
X9910658Y-14195888D01*
X9910658Y-14195888D02*
X9920182Y-14214936D01*
X9920182Y-14214936D02*
X9929706Y-14224460D01*
X9929706Y-14224460D02*
X9948753Y-14233984D01*
X9948753Y-14233984D02*
X9986849Y-14233984D01*
X9986849Y-14233984D02*
X10005896Y-14224460D01*
X10005896Y-14224460D02*
X10015420Y-14214936D01*
X10015420Y-14214936D02*
X10024944Y-14195888D01*
X10024944Y-14195888D02*
X10024944Y-14157793D01*
X10024944Y-14157793D02*
X10015420Y-14138746D01*
X10015420Y-14138746D02*
X10005896Y-14129222D01*
X10005896Y-14129222D02*
X9986849Y-14119698D01*
X10101134Y-14033984D02*
X10101134Y-14072079D01*
X10177325Y-14033984D02*
X10177325Y-14072079D01*
X10472563Y-14310174D02*
X10463039Y-14300650D01*
X10463039Y-14300650D02*
X10443991Y-14272079D01*
X10443991Y-14272079D02*
X10434468Y-14253031D01*
X10434468Y-14253031D02*
X10424944Y-14224460D01*
X10424944Y-14224460D02*
X10415420Y-14176841D01*
X10415420Y-14176841D02*
X10415420Y-14138746D01*
X10415420Y-14138746D02*
X10424944Y-14091127D01*
X10424944Y-14091127D02*
X10434468Y-14062555D01*
X10434468Y-14062555D02*
X10443991Y-14043508D01*
X10443991Y-14043508D02*
X10463039Y-14014936D01*
X10463039Y-14014936D02*
X10472563Y-14005412D01*
X10653515Y-14233984D02*
X10539230Y-14233984D01*
X10596372Y-14233984D02*
X10596372Y-14033984D01*
X10596372Y-14033984D02*
X10577325Y-14062555D01*
X10577325Y-14062555D02*
X10558277Y-14081603D01*
X10558277Y-14081603D02*
X10539230Y-14091127D01*
X10824944Y-14033984D02*
X10786849Y-14033984D01*
X10786849Y-14033984D02*
X10767801Y-14043508D01*
X10767801Y-14043508D02*
X10758277Y-14053031D01*
X10758277Y-14053031D02*
X10739230Y-14081603D01*
X10739230Y-14081603D02*
X10729706Y-14119698D01*
X10729706Y-14119698D02*
X10729706Y-14195888D01*
X10729706Y-14195888D02*
X10739230Y-14214936D01*
X10739230Y-14214936D02*
X10748753Y-14224460D01*
X10748753Y-14224460D02*
X10767801Y-14233984D01*
X10767801Y-14233984D02*
X10805896Y-14233984D01*
X10805896Y-14233984D02*
X10824944Y-14224460D01*
X10824944Y-14224460D02*
X10834468Y-14214936D01*
X10834468Y-14214936D02*
X10843991Y-14195888D01*
X10843991Y-14195888D02*
X10843991Y-14148269D01*
X10843991Y-14148269D02*
X10834468Y-14129222D01*
X10834468Y-14129222D02*
X10824944Y-14119698D01*
X10824944Y-14119698D02*
X10805896Y-14110174D01*
X10805896Y-14110174D02*
X10767801Y-14110174D01*
X10767801Y-14110174D02*
X10748753Y-14119698D01*
X10748753Y-14119698D02*
X10739230Y-14129222D01*
X10739230Y-14129222D02*
X10729706Y-14148269D01*
X10958277Y-14119698D02*
X10939230Y-14110174D01*
X10939230Y-14110174D02*
X10929706Y-14100650D01*
X10929706Y-14100650D02*
X10920182Y-14081603D01*
X10920182Y-14081603D02*
X10920182Y-14072079D01*
X10920182Y-14072079D02*
X10929706Y-14053031D01*
X10929706Y-14053031D02*
X10939230Y-14043508D01*
X10939230Y-14043508D02*
X10958277Y-14033984D01*
X10958277Y-14033984D02*
X10996372Y-14033984D01*
X10996372Y-14033984D02*
X11015420Y-14043508D01*
X11015420Y-14043508D02*
X11024944Y-14053031D01*
X11024944Y-14053031D02*
X11034468Y-14072079D01*
X11034468Y-14072079D02*
X11034468Y-14081603D01*
X11034468Y-14081603D02*
X11024944Y-14100650D01*
X11024944Y-14100650D02*
X11015420Y-14110174D01*
X11015420Y-14110174D02*
X10996372Y-14119698D01*
X10996372Y-14119698D02*
X10958277Y-14119698D01*
X10958277Y-14119698D02*
X10939230Y-14129222D01*
X10939230Y-14129222D02*
X10929706Y-14138746D01*
X10929706Y-14138746D02*
X10920182Y-14157793D01*
X10920182Y-14157793D02*
X10920182Y-14195888D01*
X10920182Y-14195888D02*
X10929706Y-14214936D01*
X10929706Y-14214936D02*
X10939230Y-14224460D01*
X10939230Y-14224460D02*
X10958277Y-14233984D01*
X10958277Y-14233984D02*
X10996372Y-14233984D01*
X10996372Y-14233984D02*
X11015420Y-14224460D01*
X11015420Y-14224460D02*
X11024944Y-14214936D01*
X11024944Y-14214936D02*
X11034468Y-14195888D01*
X11034468Y-14195888D02*
X11034468Y-14157793D01*
X11034468Y-14157793D02*
X11024944Y-14138746D01*
X11024944Y-14138746D02*
X11015420Y-14129222D01*
X11015420Y-14129222D02*
X10996372Y-14119698D01*
X11272563Y-14233984D02*
X11272563Y-14033984D01*
X11358277Y-14233984D02*
X11358277Y-14129222D01*
X11358277Y-14129222D02*
X11348753Y-14110174D01*
X11348753Y-14110174D02*
X11329706Y-14100650D01*
X11329706Y-14100650D02*
X11301134Y-14100650D01*
X11301134Y-14100650D02*
X11282087Y-14110174D01*
X11282087Y-14110174D02*
X11272563Y-14119698D01*
X11482087Y-14233984D02*
X11463039Y-14224460D01*
X11463039Y-14224460D02*
X11453515Y-14214936D01*
X11453515Y-14214936D02*
X11443991Y-14195888D01*
X11443991Y-14195888D02*
X11443991Y-14138746D01*
X11443991Y-14138746D02*
X11453515Y-14119698D01*
X11453515Y-14119698D02*
X11463039Y-14110174D01*
X11463039Y-14110174D02*
X11482087Y-14100650D01*
X11482087Y-14100650D02*
X11510658Y-14100650D01*
X11510658Y-14100650D02*
X11529706Y-14110174D01*
X11529706Y-14110174D02*
X11539230Y-14119698D01*
X11539230Y-14119698D02*
X11548753Y-14138746D01*
X11548753Y-14138746D02*
X11548753Y-14195888D01*
X11548753Y-14195888D02*
X11539230Y-14214936D01*
X11539230Y-14214936D02*
X11529706Y-14224460D01*
X11529706Y-14224460D02*
X11510658Y-14233984D01*
X11510658Y-14233984D02*
X11482087Y-14233984D01*
X11663039Y-14233984D02*
X11643991Y-14224460D01*
X11643991Y-14224460D02*
X11634468Y-14205412D01*
X11634468Y-14205412D02*
X11634468Y-14033984D01*
X11815420Y-14224460D02*
X11796372Y-14233984D01*
X11796372Y-14233984D02*
X11758277Y-14233984D01*
X11758277Y-14233984D02*
X11739230Y-14224460D01*
X11739230Y-14224460D02*
X11729706Y-14205412D01*
X11729706Y-14205412D02*
X11729706Y-14129222D01*
X11729706Y-14129222D02*
X11739230Y-14110174D01*
X11739230Y-14110174D02*
X11758277Y-14100650D01*
X11758277Y-14100650D02*
X11796372Y-14100650D01*
X11796372Y-14100650D02*
X11815420Y-14110174D01*
X11815420Y-14110174D02*
X11824944Y-14129222D01*
X11824944Y-14129222D02*
X11824944Y-14148269D01*
X11824944Y-14148269D02*
X11729706Y-14167317D01*
X11901134Y-14224460D02*
X11920182Y-14233984D01*
X11920182Y-14233984D02*
X11958277Y-14233984D01*
X11958277Y-14233984D02*
X11977325Y-14224460D01*
X11977325Y-14224460D02*
X11986849Y-14205412D01*
X11986849Y-14205412D02*
X11986849Y-14195888D01*
X11986849Y-14195888D02*
X11977325Y-14176841D01*
X11977325Y-14176841D02*
X11958277Y-14167317D01*
X11958277Y-14167317D02*
X11929706Y-14167317D01*
X11929706Y-14167317D02*
X11910658Y-14157793D01*
X11910658Y-14157793D02*
X11901134Y-14138746D01*
X11901134Y-14138746D02*
X11901134Y-14129222D01*
X11901134Y-14129222D02*
X11910658Y-14110174D01*
X11910658Y-14110174D02*
X11929706Y-14100650D01*
X11929706Y-14100650D02*
X11958277Y-14100650D01*
X11958277Y-14100650D02*
X11977325Y-14110174D01*
X12053515Y-14310174D02*
X12063039Y-14300650D01*
X12063039Y-14300650D02*
X12082087Y-14272079D01*
X12082087Y-14272079D02*
X12091611Y-14253031D01*
X12091611Y-14253031D02*
X12101134Y-14224460D01*
X12101134Y-14224460D02*
X12110658Y-14176841D01*
X12110658Y-14176841D02*
X12110658Y-14138746D01*
X12110658Y-14138746D02*
X12101134Y-14091127D01*
X12101134Y-14091127D02*
X12091611Y-14062555D01*
X12091611Y-14062555D02*
X12082087Y-14043508D01*
X12082087Y-14043508D02*
X12063039Y-14014936D01*
X12063039Y-14014936D02*
X12053515Y-14005412D01*
D12*
X6897500Y-14406500D02*
G75*
G02*
X6837500Y-14406500I-30000J0D01*
G01*
X6837500Y-14406500D02*
G75*
G02*
X6897500Y-14406500I30000J0D01*
G01*
D11*
X7196372Y-14297984D02*
X7215420Y-14297984D01*
X7215420Y-14297984D02*
X7234467Y-14307508D01*
X7234467Y-14307508D02*
X7243991Y-14317031D01*
X7243991Y-14317031D02*
X7253515Y-14336079D01*
X7253515Y-14336079D02*
X7263039Y-14374174D01*
X7263039Y-14374174D02*
X7263039Y-14421793D01*
X7263039Y-14421793D02*
X7253515Y-14459888D01*
X7253515Y-14459888D02*
X7243991Y-14478936D01*
X7243991Y-14478936D02*
X7234467Y-14488460D01*
X7234467Y-14488460D02*
X7215420Y-14497984D01*
X7215420Y-14497984D02*
X7196372Y-14497984D01*
X7196372Y-14497984D02*
X7177324Y-14488460D01*
X7177324Y-14488460D02*
X7167801Y-14478936D01*
X7167801Y-14478936D02*
X7158277Y-14459888D01*
X7158277Y-14459888D02*
X7148753Y-14421793D01*
X7148753Y-14421793D02*
X7148753Y-14374174D01*
X7148753Y-14374174D02*
X7158277Y-14336079D01*
X7158277Y-14336079D02*
X7167801Y-14317031D01*
X7167801Y-14317031D02*
X7177324Y-14307508D01*
X7177324Y-14307508D02*
X7196372Y-14297984D01*
X7348753Y-14478936D02*
X7358277Y-14488460D01*
X7358277Y-14488460D02*
X7348753Y-14497984D01*
X7348753Y-14497984D02*
X7339229Y-14488460D01*
X7339229Y-14488460D02*
X7348753Y-14478936D01*
X7348753Y-14478936D02*
X7348753Y-14497984D01*
X7529705Y-14297984D02*
X7491610Y-14297984D01*
X7491610Y-14297984D02*
X7472562Y-14307508D01*
X7472562Y-14307508D02*
X7463039Y-14317031D01*
X7463039Y-14317031D02*
X7443991Y-14345603D01*
X7443991Y-14345603D02*
X7434467Y-14383698D01*
X7434467Y-14383698D02*
X7434467Y-14459888D01*
X7434467Y-14459888D02*
X7443991Y-14478936D01*
X7443991Y-14478936D02*
X7453515Y-14488460D01*
X7453515Y-14488460D02*
X7472562Y-14497984D01*
X7472562Y-14497984D02*
X7510658Y-14497984D01*
X7510658Y-14497984D02*
X7529705Y-14488460D01*
X7529705Y-14488460D02*
X7539229Y-14478936D01*
X7539229Y-14478936D02*
X7548753Y-14459888D01*
X7548753Y-14459888D02*
X7548753Y-14412269D01*
X7548753Y-14412269D02*
X7539229Y-14393222D01*
X7539229Y-14393222D02*
X7529705Y-14383698D01*
X7529705Y-14383698D02*
X7510658Y-14374174D01*
X7510658Y-14374174D02*
X7472562Y-14374174D01*
X7472562Y-14374174D02*
X7453515Y-14383698D01*
X7453515Y-14383698D02*
X7443991Y-14393222D01*
X7443991Y-14393222D02*
X7434467Y-14412269D01*
X7672562Y-14297984D02*
X7691610Y-14297984D01*
X7691610Y-14297984D02*
X7710658Y-14307508D01*
X7710658Y-14307508D02*
X7720182Y-14317031D01*
X7720182Y-14317031D02*
X7729705Y-14336079D01*
X7729705Y-14336079D02*
X7739229Y-14374174D01*
X7739229Y-14374174D02*
X7739229Y-14421793D01*
X7739229Y-14421793D02*
X7729705Y-14459888D01*
X7729705Y-14459888D02*
X7720182Y-14478936D01*
X7720182Y-14478936D02*
X7710658Y-14488460D01*
X7710658Y-14488460D02*
X7691610Y-14497984D01*
X7691610Y-14497984D02*
X7672562Y-14497984D01*
X7672562Y-14497984D02*
X7653515Y-14488460D01*
X7653515Y-14488460D02*
X7643991Y-14478936D01*
X7643991Y-14478936D02*
X7634467Y-14459888D01*
X7634467Y-14459888D02*
X7624943Y-14421793D01*
X7624943Y-14421793D02*
X7624943Y-14374174D01*
X7624943Y-14374174D02*
X7634467Y-14336079D01*
X7634467Y-14336079D02*
X7643991Y-14317031D01*
X7643991Y-14317031D02*
X7653515Y-14307508D01*
X7653515Y-14307508D02*
X7672562Y-14297984D01*
X7863039Y-14297984D02*
X7882086Y-14297984D01*
X7882086Y-14297984D02*
X7901134Y-14307508D01*
X7901134Y-14307508D02*
X7910658Y-14317031D01*
X7910658Y-14317031D02*
X7920182Y-14336079D01*
X7920182Y-14336079D02*
X7929705Y-14374174D01*
X7929705Y-14374174D02*
X7929705Y-14421793D01*
X7929705Y-14421793D02*
X7920182Y-14459888D01*
X7920182Y-14459888D02*
X7910658Y-14478936D01*
X7910658Y-14478936D02*
X7901134Y-14488460D01*
X7901134Y-14488460D02*
X7882086Y-14497984D01*
X7882086Y-14497984D02*
X7863039Y-14497984D01*
X7863039Y-14497984D02*
X7843991Y-14488460D01*
X7843991Y-14488460D02*
X7834467Y-14478936D01*
X7834467Y-14478936D02*
X7824943Y-14459888D01*
X7824943Y-14459888D02*
X7815420Y-14421793D01*
X7815420Y-14421793D02*
X7815420Y-14374174D01*
X7815420Y-14374174D02*
X7824943Y-14336079D01*
X7824943Y-14336079D02*
X7834467Y-14317031D01*
X7834467Y-14317031D02*
X7843991Y-14307508D01*
X7843991Y-14307508D02*
X7863039Y-14297984D01*
X8015420Y-14497984D02*
X8015420Y-14364650D01*
X8015420Y-14383698D02*
X8024943Y-14374174D01*
X8024943Y-14374174D02*
X8043991Y-14364650D01*
X8043991Y-14364650D02*
X8072563Y-14364650D01*
X8072563Y-14364650D02*
X8091610Y-14374174D01*
X8091610Y-14374174D02*
X8101134Y-14393222D01*
X8101134Y-14393222D02*
X8101134Y-14497984D01*
X8101134Y-14393222D02*
X8110658Y-14374174D01*
X8110658Y-14374174D02*
X8129705Y-14364650D01*
X8129705Y-14364650D02*
X8158277Y-14364650D01*
X8158277Y-14364650D02*
X8177324Y-14374174D01*
X8177324Y-14374174D02*
X8186848Y-14393222D01*
X8186848Y-14393222D02*
X8186848Y-14497984D01*
X8282086Y-14497984D02*
X8282086Y-14364650D01*
X8282086Y-14383698D02*
X8291610Y-14374174D01*
X8291610Y-14374174D02*
X8310658Y-14364650D01*
X8310658Y-14364650D02*
X8339229Y-14364650D01*
X8339229Y-14364650D02*
X8358277Y-14374174D01*
X8358277Y-14374174D02*
X8367801Y-14393222D01*
X8367801Y-14393222D02*
X8367801Y-14497984D01*
X8367801Y-14393222D02*
X8377324Y-14374174D01*
X8377324Y-14374174D02*
X8396372Y-14364650D01*
X8396372Y-14364650D02*
X8424944Y-14364650D01*
X8424944Y-14364650D02*
X8443991Y-14374174D01*
X8443991Y-14374174D02*
X8453515Y-14393222D01*
X8453515Y-14393222D02*
X8453515Y-14497984D01*
X8843991Y-14288460D02*
X8672563Y-14545603D01*
X9101134Y-14297984D02*
X9120182Y-14297984D01*
X9120182Y-14297984D02*
X9139229Y-14307508D01*
X9139229Y-14307508D02*
X9148753Y-14317031D01*
X9148753Y-14317031D02*
X9158277Y-14336079D01*
X9158277Y-14336079D02*
X9167801Y-14374174D01*
X9167801Y-14374174D02*
X9167801Y-14421793D01*
X9167801Y-14421793D02*
X9158277Y-14459888D01*
X9158277Y-14459888D02*
X9148753Y-14478936D01*
X9148753Y-14478936D02*
X9139229Y-14488460D01*
X9139229Y-14488460D02*
X9120182Y-14497984D01*
X9120182Y-14497984D02*
X9101134Y-14497984D01*
X9101134Y-14497984D02*
X9082087Y-14488460D01*
X9082087Y-14488460D02*
X9072563Y-14478936D01*
X9072563Y-14478936D02*
X9063039Y-14459888D01*
X9063039Y-14459888D02*
X9053515Y-14421793D01*
X9053515Y-14421793D02*
X9053515Y-14374174D01*
X9053515Y-14374174D02*
X9063039Y-14336079D01*
X9063039Y-14336079D02*
X9072563Y-14317031D01*
X9072563Y-14317031D02*
X9082087Y-14307508D01*
X9082087Y-14307508D02*
X9101134Y-14297984D01*
X9253515Y-14478936D02*
X9263039Y-14488460D01*
X9263039Y-14488460D02*
X9253515Y-14497984D01*
X9253515Y-14497984D02*
X9243991Y-14488460D01*
X9243991Y-14488460D02*
X9253515Y-14478936D01*
X9253515Y-14478936D02*
X9253515Y-14497984D01*
X9386848Y-14297984D02*
X9405896Y-14297984D01*
X9405896Y-14297984D02*
X9424944Y-14307508D01*
X9424944Y-14307508D02*
X9434468Y-14317031D01*
X9434468Y-14317031D02*
X9443991Y-14336079D01*
X9443991Y-14336079D02*
X9453515Y-14374174D01*
X9453515Y-14374174D02*
X9453515Y-14421793D01*
X9453515Y-14421793D02*
X9443991Y-14459888D01*
X9443991Y-14459888D02*
X9434468Y-14478936D01*
X9434468Y-14478936D02*
X9424944Y-14488460D01*
X9424944Y-14488460D02*
X9405896Y-14497984D01*
X9405896Y-14497984D02*
X9386848Y-14497984D01*
X9386848Y-14497984D02*
X9367801Y-14488460D01*
X9367801Y-14488460D02*
X9358277Y-14478936D01*
X9358277Y-14478936D02*
X9348753Y-14459888D01*
X9348753Y-14459888D02*
X9339229Y-14421793D01*
X9339229Y-14421793D02*
X9339229Y-14374174D01*
X9339229Y-14374174D02*
X9348753Y-14336079D01*
X9348753Y-14336079D02*
X9358277Y-14317031D01*
X9358277Y-14317031D02*
X9367801Y-14307508D01*
X9367801Y-14307508D02*
X9386848Y-14297984D01*
X9529706Y-14317031D02*
X9539229Y-14307508D01*
X9539229Y-14307508D02*
X9558277Y-14297984D01*
X9558277Y-14297984D02*
X9605896Y-14297984D01*
X9605896Y-14297984D02*
X9624944Y-14307508D01*
X9624944Y-14307508D02*
X9634468Y-14317031D01*
X9634468Y-14317031D02*
X9643991Y-14336079D01*
X9643991Y-14336079D02*
X9643991Y-14355127D01*
X9643991Y-14355127D02*
X9634468Y-14383698D01*
X9634468Y-14383698D02*
X9520182Y-14497984D01*
X9520182Y-14497984D02*
X9643991Y-14497984D01*
X9710658Y-14297984D02*
X9834468Y-14297984D01*
X9834468Y-14297984D02*
X9767801Y-14374174D01*
X9767801Y-14374174D02*
X9796372Y-14374174D01*
X9796372Y-14374174D02*
X9815420Y-14383698D01*
X9815420Y-14383698D02*
X9824944Y-14393222D01*
X9824944Y-14393222D02*
X9834468Y-14412269D01*
X9834468Y-14412269D02*
X9834468Y-14459888D01*
X9834468Y-14459888D02*
X9824944Y-14478936D01*
X9824944Y-14478936D02*
X9815420Y-14488460D01*
X9815420Y-14488460D02*
X9796372Y-14497984D01*
X9796372Y-14497984D02*
X9739229Y-14497984D01*
X9739229Y-14497984D02*
X9720182Y-14488460D01*
X9720182Y-14488460D02*
X9710658Y-14478936D01*
X10005896Y-14297984D02*
X9967801Y-14297984D01*
X9967801Y-14297984D02*
X9948753Y-14307508D01*
X9948753Y-14307508D02*
X9939229Y-14317031D01*
X9939229Y-14317031D02*
X9920182Y-14345603D01*
X9920182Y-14345603D02*
X9910658Y-14383698D01*
X9910658Y-14383698D02*
X9910658Y-14459888D01*
X9910658Y-14459888D02*
X9920182Y-14478936D01*
X9920182Y-14478936D02*
X9929706Y-14488460D01*
X9929706Y-14488460D02*
X9948753Y-14497984D01*
X9948753Y-14497984D02*
X9986849Y-14497984D01*
X9986849Y-14497984D02*
X10005896Y-14488460D01*
X10005896Y-14488460D02*
X10015420Y-14478936D01*
X10015420Y-14478936D02*
X10024944Y-14459888D01*
X10024944Y-14459888D02*
X10024944Y-14412269D01*
X10024944Y-14412269D02*
X10015420Y-14393222D01*
X10015420Y-14393222D02*
X10005896Y-14383698D01*
X10005896Y-14383698D02*
X9986849Y-14374174D01*
X9986849Y-14374174D02*
X9948753Y-14374174D01*
X9948753Y-14374174D02*
X9929706Y-14383698D01*
X9929706Y-14383698D02*
X9920182Y-14393222D01*
X9920182Y-14393222D02*
X9910658Y-14412269D01*
X10101134Y-14297984D02*
X10101134Y-14336079D01*
X10177325Y-14297984D02*
X10177325Y-14336079D01*
X10472563Y-14574174D02*
X10463039Y-14564650D01*
X10463039Y-14564650D02*
X10443991Y-14536079D01*
X10443991Y-14536079D02*
X10434468Y-14517031D01*
X10434468Y-14517031D02*
X10424944Y-14488460D01*
X10424944Y-14488460D02*
X10415420Y-14440841D01*
X10415420Y-14440841D02*
X10415420Y-14402746D01*
X10415420Y-14402746D02*
X10424944Y-14355127D01*
X10424944Y-14355127D02*
X10434468Y-14326555D01*
X10434468Y-14326555D02*
X10443991Y-14307508D01*
X10443991Y-14307508D02*
X10463039Y-14278936D01*
X10463039Y-14278936D02*
X10472563Y-14269412D01*
X10586849Y-14297984D02*
X10605896Y-14297984D01*
X10605896Y-14297984D02*
X10624944Y-14307508D01*
X10624944Y-14307508D02*
X10634468Y-14317031D01*
X10634468Y-14317031D02*
X10643991Y-14336079D01*
X10643991Y-14336079D02*
X10653515Y-14374174D01*
X10653515Y-14374174D02*
X10653515Y-14421793D01*
X10653515Y-14421793D02*
X10643991Y-14459888D01*
X10643991Y-14459888D02*
X10634468Y-14478936D01*
X10634468Y-14478936D02*
X10624944Y-14488460D01*
X10624944Y-14488460D02*
X10605896Y-14497984D01*
X10605896Y-14497984D02*
X10586849Y-14497984D01*
X10586849Y-14497984D02*
X10567801Y-14488460D01*
X10567801Y-14488460D02*
X10558277Y-14478936D01*
X10558277Y-14478936D02*
X10548753Y-14459888D01*
X10548753Y-14459888D02*
X10539230Y-14421793D01*
X10539230Y-14421793D02*
X10539230Y-14374174D01*
X10539230Y-14374174D02*
X10548753Y-14336079D01*
X10548753Y-14336079D02*
X10558277Y-14317031D01*
X10558277Y-14317031D02*
X10567801Y-14307508D01*
X10567801Y-14307508D02*
X10586849Y-14297984D01*
X10891611Y-14497984D02*
X10891611Y-14297984D01*
X10977325Y-14497984D02*
X10977325Y-14393222D01*
X10977325Y-14393222D02*
X10967801Y-14374174D01*
X10967801Y-14374174D02*
X10948753Y-14364650D01*
X10948753Y-14364650D02*
X10920182Y-14364650D01*
X10920182Y-14364650D02*
X10901134Y-14374174D01*
X10901134Y-14374174D02*
X10891611Y-14383698D01*
X11101134Y-14497984D02*
X11082087Y-14488460D01*
X11082087Y-14488460D02*
X11072563Y-14478936D01*
X11072563Y-14478936D02*
X11063039Y-14459888D01*
X11063039Y-14459888D02*
X11063039Y-14402746D01*
X11063039Y-14402746D02*
X11072563Y-14383698D01*
X11072563Y-14383698D02*
X11082087Y-14374174D01*
X11082087Y-14374174D02*
X11101134Y-14364650D01*
X11101134Y-14364650D02*
X11129706Y-14364650D01*
X11129706Y-14364650D02*
X11148753Y-14374174D01*
X11148753Y-14374174D02*
X11158277Y-14383698D01*
X11158277Y-14383698D02*
X11167801Y-14402746D01*
X11167801Y-14402746D02*
X11167801Y-14459888D01*
X11167801Y-14459888D02*
X11158277Y-14478936D01*
X11158277Y-14478936D02*
X11148753Y-14488460D01*
X11148753Y-14488460D02*
X11129706Y-14497984D01*
X11129706Y-14497984D02*
X11101134Y-14497984D01*
X11282087Y-14497984D02*
X11263039Y-14488460D01*
X11263039Y-14488460D02*
X11253515Y-14469412D01*
X11253515Y-14469412D02*
X11253515Y-14297984D01*
X11434468Y-14488460D02*
X11415420Y-14497984D01*
X11415420Y-14497984D02*
X11377325Y-14497984D01*
X11377325Y-14497984D02*
X11358277Y-14488460D01*
X11358277Y-14488460D02*
X11348753Y-14469412D01*
X11348753Y-14469412D02*
X11348753Y-14393222D01*
X11348753Y-14393222D02*
X11358277Y-14374174D01*
X11358277Y-14374174D02*
X11377325Y-14364650D01*
X11377325Y-14364650D02*
X11415420Y-14364650D01*
X11415420Y-14364650D02*
X11434468Y-14374174D01*
X11434468Y-14374174D02*
X11443991Y-14393222D01*
X11443991Y-14393222D02*
X11443991Y-14412269D01*
X11443991Y-14412269D02*
X11348753Y-14431317D01*
X11520182Y-14488460D02*
X11539230Y-14497984D01*
X11539230Y-14497984D02*
X11577325Y-14497984D01*
X11577325Y-14497984D02*
X11596372Y-14488460D01*
X11596372Y-14488460D02*
X11605896Y-14469412D01*
X11605896Y-14469412D02*
X11605896Y-14459888D01*
X11605896Y-14459888D02*
X11596372Y-14440841D01*
X11596372Y-14440841D02*
X11577325Y-14431317D01*
X11577325Y-14431317D02*
X11548753Y-14431317D01*
X11548753Y-14431317D02*
X11529706Y-14421793D01*
X11529706Y-14421793D02*
X11520182Y-14402746D01*
X11520182Y-14402746D02*
X11520182Y-14393222D01*
X11520182Y-14393222D02*
X11529706Y-14374174D01*
X11529706Y-14374174D02*
X11548753Y-14364650D01*
X11548753Y-14364650D02*
X11577325Y-14364650D01*
X11577325Y-14364650D02*
X11596372Y-14374174D01*
X11843992Y-14421793D02*
X11996373Y-14421793D01*
X11920182Y-14497984D02*
X11920182Y-14345603D01*
X12329706Y-14364650D02*
X12329706Y-14497984D01*
X12282087Y-14288460D02*
X12234468Y-14431317D01*
X12234468Y-14431317D02*
X12358277Y-14431317D01*
X12577325Y-14488460D02*
X12596373Y-14497984D01*
X12596373Y-14497984D02*
X12634468Y-14497984D01*
X12634468Y-14497984D02*
X12653515Y-14488460D01*
X12653515Y-14488460D02*
X12663039Y-14469412D01*
X12663039Y-14469412D02*
X12663039Y-14459888D01*
X12663039Y-14459888D02*
X12653515Y-14440841D01*
X12653515Y-14440841D02*
X12634468Y-14431317D01*
X12634468Y-14431317D02*
X12605896Y-14431317D01*
X12605896Y-14431317D02*
X12586849Y-14421793D01*
X12586849Y-14421793D02*
X12577325Y-14402746D01*
X12577325Y-14402746D02*
X12577325Y-14393222D01*
X12577325Y-14393222D02*
X12586849Y-14374174D01*
X12586849Y-14374174D02*
X12605896Y-14364650D01*
X12605896Y-14364650D02*
X12634468Y-14364650D01*
X12634468Y-14364650D02*
X12653515Y-14374174D01*
X12777325Y-14497984D02*
X12758277Y-14488460D01*
X12758277Y-14488460D02*
X12748754Y-14469412D01*
X12748754Y-14469412D02*
X12748754Y-14297984D01*
X12882087Y-14497984D02*
X12863039Y-14488460D01*
X12863039Y-14488460D02*
X12853515Y-14478936D01*
X12853515Y-14478936D02*
X12843992Y-14459888D01*
X12843992Y-14459888D02*
X12843992Y-14402746D01*
X12843992Y-14402746D02*
X12853515Y-14383698D01*
X12853515Y-14383698D02*
X12863039Y-14374174D01*
X12863039Y-14374174D02*
X12882087Y-14364650D01*
X12882087Y-14364650D02*
X12910658Y-14364650D01*
X12910658Y-14364650D02*
X12929706Y-14374174D01*
X12929706Y-14374174D02*
X12939230Y-14383698D01*
X12939230Y-14383698D02*
X12948754Y-14402746D01*
X12948754Y-14402746D02*
X12948754Y-14459888D01*
X12948754Y-14459888D02*
X12939230Y-14478936D01*
X12939230Y-14478936D02*
X12929706Y-14488460D01*
X12929706Y-14488460D02*
X12910658Y-14497984D01*
X12910658Y-14497984D02*
X12882087Y-14497984D01*
X13005896Y-14364650D02*
X13082087Y-14364650D01*
X13034468Y-14297984D02*
X13034468Y-14469412D01*
X13034468Y-14469412D02*
X13043992Y-14488460D01*
X13043992Y-14488460D02*
X13063039Y-14497984D01*
X13063039Y-14497984D02*
X13082087Y-14497984D01*
X13139230Y-14488460D02*
X13158277Y-14497984D01*
X13158277Y-14497984D02*
X13196373Y-14497984D01*
X13196373Y-14497984D02*
X13215420Y-14488460D01*
X13215420Y-14488460D02*
X13224944Y-14469412D01*
X13224944Y-14469412D02*
X13224944Y-14459888D01*
X13224944Y-14459888D02*
X13215420Y-14440841D01*
X13215420Y-14440841D02*
X13196373Y-14431317D01*
X13196373Y-14431317D02*
X13167801Y-14431317D01*
X13167801Y-14431317D02*
X13148754Y-14421793D01*
X13148754Y-14421793D02*
X13139230Y-14402746D01*
X13139230Y-14402746D02*
X13139230Y-14393222D01*
X13139230Y-14393222D02*
X13148754Y-14374174D01*
X13148754Y-14374174D02*
X13167801Y-14364650D01*
X13167801Y-14364650D02*
X13196373Y-14364650D01*
X13196373Y-14364650D02*
X13215420Y-14374174D01*
X13291611Y-14574174D02*
X13301135Y-14564650D01*
X13301135Y-14564650D02*
X13320182Y-14536079D01*
X13320182Y-14536079D02*
X13329706Y-14517031D01*
X13329706Y-14517031D02*
X13339230Y-14488460D01*
X13339230Y-14488460D02*
X13348754Y-14440841D01*
X13348754Y-14440841D02*
X13348754Y-14402746D01*
X13348754Y-14402746D02*
X13339230Y-14355127D01*
X13339230Y-14355127D02*
X13329706Y-14326555D01*
X13329706Y-14326555D02*
X13320182Y-14307508D01*
X13320182Y-14307508D02*
X13301135Y-14278936D01*
X13301135Y-14278936D02*
X13291611Y-14269412D01*
D12*
X6847500Y-14620500D02*
X6847500Y-14720500D01*
X6797500Y-14670500D02*
X6897500Y-14670500D01*
D11*
X7263039Y-14761984D02*
X7148753Y-14761984D01*
X7205896Y-14761984D02*
X7205896Y-14561984D01*
X7205896Y-14561984D02*
X7186848Y-14590555D01*
X7186848Y-14590555D02*
X7167801Y-14609603D01*
X7167801Y-14609603D02*
X7148753Y-14619127D01*
X7348753Y-14742936D02*
X7358277Y-14752460D01*
X7358277Y-14752460D02*
X7348753Y-14761984D01*
X7348753Y-14761984D02*
X7339229Y-14752460D01*
X7339229Y-14752460D02*
X7348753Y-14742936D01*
X7348753Y-14742936D02*
X7348753Y-14761984D01*
X7482086Y-14561984D02*
X7501134Y-14561984D01*
X7501134Y-14561984D02*
X7520182Y-14571508D01*
X7520182Y-14571508D02*
X7529705Y-14581031D01*
X7529705Y-14581031D02*
X7539229Y-14600079D01*
X7539229Y-14600079D02*
X7548753Y-14638174D01*
X7548753Y-14638174D02*
X7548753Y-14685793D01*
X7548753Y-14685793D02*
X7539229Y-14723888D01*
X7539229Y-14723888D02*
X7529705Y-14742936D01*
X7529705Y-14742936D02*
X7520182Y-14752460D01*
X7520182Y-14752460D02*
X7501134Y-14761984D01*
X7501134Y-14761984D02*
X7482086Y-14761984D01*
X7482086Y-14761984D02*
X7463039Y-14752460D01*
X7463039Y-14752460D02*
X7453515Y-14742936D01*
X7453515Y-14742936D02*
X7443991Y-14723888D01*
X7443991Y-14723888D02*
X7434467Y-14685793D01*
X7434467Y-14685793D02*
X7434467Y-14638174D01*
X7434467Y-14638174D02*
X7443991Y-14600079D01*
X7443991Y-14600079D02*
X7453515Y-14581031D01*
X7453515Y-14581031D02*
X7463039Y-14571508D01*
X7463039Y-14571508D02*
X7482086Y-14561984D01*
X7672562Y-14561984D02*
X7691610Y-14561984D01*
X7691610Y-14561984D02*
X7710658Y-14571508D01*
X7710658Y-14571508D02*
X7720182Y-14581031D01*
X7720182Y-14581031D02*
X7729705Y-14600079D01*
X7729705Y-14600079D02*
X7739229Y-14638174D01*
X7739229Y-14638174D02*
X7739229Y-14685793D01*
X7739229Y-14685793D02*
X7729705Y-14723888D01*
X7729705Y-14723888D02*
X7720182Y-14742936D01*
X7720182Y-14742936D02*
X7710658Y-14752460D01*
X7710658Y-14752460D02*
X7691610Y-14761984D01*
X7691610Y-14761984D02*
X7672562Y-14761984D01*
X7672562Y-14761984D02*
X7653515Y-14752460D01*
X7653515Y-14752460D02*
X7643991Y-14742936D01*
X7643991Y-14742936D02*
X7634467Y-14723888D01*
X7634467Y-14723888D02*
X7624943Y-14685793D01*
X7624943Y-14685793D02*
X7624943Y-14638174D01*
X7624943Y-14638174D02*
X7634467Y-14600079D01*
X7634467Y-14600079D02*
X7643991Y-14581031D01*
X7643991Y-14581031D02*
X7653515Y-14571508D01*
X7653515Y-14571508D02*
X7672562Y-14561984D01*
X7863039Y-14561984D02*
X7882086Y-14561984D01*
X7882086Y-14561984D02*
X7901134Y-14571508D01*
X7901134Y-14571508D02*
X7910658Y-14581031D01*
X7910658Y-14581031D02*
X7920182Y-14600079D01*
X7920182Y-14600079D02*
X7929705Y-14638174D01*
X7929705Y-14638174D02*
X7929705Y-14685793D01*
X7929705Y-14685793D02*
X7920182Y-14723888D01*
X7920182Y-14723888D02*
X7910658Y-14742936D01*
X7910658Y-14742936D02*
X7901134Y-14752460D01*
X7901134Y-14752460D02*
X7882086Y-14761984D01*
X7882086Y-14761984D02*
X7863039Y-14761984D01*
X7863039Y-14761984D02*
X7843991Y-14752460D01*
X7843991Y-14752460D02*
X7834467Y-14742936D01*
X7834467Y-14742936D02*
X7824943Y-14723888D01*
X7824943Y-14723888D02*
X7815420Y-14685793D01*
X7815420Y-14685793D02*
X7815420Y-14638174D01*
X7815420Y-14638174D02*
X7824943Y-14600079D01*
X7824943Y-14600079D02*
X7834467Y-14581031D01*
X7834467Y-14581031D02*
X7843991Y-14571508D01*
X7843991Y-14571508D02*
X7863039Y-14561984D01*
X8015420Y-14761984D02*
X8015420Y-14628650D01*
X8015420Y-14647698D02*
X8024943Y-14638174D01*
X8024943Y-14638174D02*
X8043991Y-14628650D01*
X8043991Y-14628650D02*
X8072563Y-14628650D01*
X8072563Y-14628650D02*
X8091610Y-14638174D01*
X8091610Y-14638174D02*
X8101134Y-14657222D01*
X8101134Y-14657222D02*
X8101134Y-14761984D01*
X8101134Y-14657222D02*
X8110658Y-14638174D01*
X8110658Y-14638174D02*
X8129705Y-14628650D01*
X8129705Y-14628650D02*
X8158277Y-14628650D01*
X8158277Y-14628650D02*
X8177324Y-14638174D01*
X8177324Y-14638174D02*
X8186848Y-14657222D01*
X8186848Y-14657222D02*
X8186848Y-14761984D01*
X8282086Y-14761984D02*
X8282086Y-14628650D01*
X8282086Y-14647698D02*
X8291610Y-14638174D01*
X8291610Y-14638174D02*
X8310658Y-14628650D01*
X8310658Y-14628650D02*
X8339229Y-14628650D01*
X8339229Y-14628650D02*
X8358277Y-14638174D01*
X8358277Y-14638174D02*
X8367801Y-14657222D01*
X8367801Y-14657222D02*
X8367801Y-14761984D01*
X8367801Y-14657222D02*
X8377324Y-14638174D01*
X8377324Y-14638174D02*
X8396372Y-14628650D01*
X8396372Y-14628650D02*
X8424944Y-14628650D01*
X8424944Y-14628650D02*
X8443991Y-14638174D01*
X8443991Y-14638174D02*
X8453515Y-14657222D01*
X8453515Y-14657222D02*
X8453515Y-14761984D01*
X8843991Y-14552460D02*
X8672563Y-14809603D01*
X9101134Y-14561984D02*
X9120182Y-14561984D01*
X9120182Y-14561984D02*
X9139229Y-14571508D01*
X9139229Y-14571508D02*
X9148753Y-14581031D01*
X9148753Y-14581031D02*
X9158277Y-14600079D01*
X9158277Y-14600079D02*
X9167801Y-14638174D01*
X9167801Y-14638174D02*
X9167801Y-14685793D01*
X9167801Y-14685793D02*
X9158277Y-14723888D01*
X9158277Y-14723888D02*
X9148753Y-14742936D01*
X9148753Y-14742936D02*
X9139229Y-14752460D01*
X9139229Y-14752460D02*
X9120182Y-14761984D01*
X9120182Y-14761984D02*
X9101134Y-14761984D01*
X9101134Y-14761984D02*
X9082087Y-14752460D01*
X9082087Y-14752460D02*
X9072563Y-14742936D01*
X9072563Y-14742936D02*
X9063039Y-14723888D01*
X9063039Y-14723888D02*
X9053515Y-14685793D01*
X9053515Y-14685793D02*
X9053515Y-14638174D01*
X9053515Y-14638174D02*
X9063039Y-14600079D01*
X9063039Y-14600079D02*
X9072563Y-14581031D01*
X9072563Y-14581031D02*
X9082087Y-14571508D01*
X9082087Y-14571508D02*
X9101134Y-14561984D01*
X9253515Y-14742936D02*
X9263039Y-14752460D01*
X9263039Y-14752460D02*
X9253515Y-14761984D01*
X9253515Y-14761984D02*
X9243991Y-14752460D01*
X9243991Y-14752460D02*
X9253515Y-14742936D01*
X9253515Y-14742936D02*
X9253515Y-14761984D01*
X9386848Y-14561984D02*
X9405896Y-14561984D01*
X9405896Y-14561984D02*
X9424944Y-14571508D01*
X9424944Y-14571508D02*
X9434468Y-14581031D01*
X9434468Y-14581031D02*
X9443991Y-14600079D01*
X9443991Y-14600079D02*
X9453515Y-14638174D01*
X9453515Y-14638174D02*
X9453515Y-14685793D01*
X9453515Y-14685793D02*
X9443991Y-14723888D01*
X9443991Y-14723888D02*
X9434468Y-14742936D01*
X9434468Y-14742936D02*
X9424944Y-14752460D01*
X9424944Y-14752460D02*
X9405896Y-14761984D01*
X9405896Y-14761984D02*
X9386848Y-14761984D01*
X9386848Y-14761984D02*
X9367801Y-14752460D01*
X9367801Y-14752460D02*
X9358277Y-14742936D01*
X9358277Y-14742936D02*
X9348753Y-14723888D01*
X9348753Y-14723888D02*
X9339229Y-14685793D01*
X9339229Y-14685793D02*
X9339229Y-14638174D01*
X9339229Y-14638174D02*
X9348753Y-14600079D01*
X9348753Y-14600079D02*
X9358277Y-14581031D01*
X9358277Y-14581031D02*
X9367801Y-14571508D01*
X9367801Y-14571508D02*
X9386848Y-14561984D01*
X9520182Y-14561984D02*
X9643991Y-14561984D01*
X9643991Y-14561984D02*
X9577325Y-14638174D01*
X9577325Y-14638174D02*
X9605896Y-14638174D01*
X9605896Y-14638174D02*
X9624944Y-14647698D01*
X9624944Y-14647698D02*
X9634468Y-14657222D01*
X9634468Y-14657222D02*
X9643991Y-14676269D01*
X9643991Y-14676269D02*
X9643991Y-14723888D01*
X9643991Y-14723888D02*
X9634468Y-14742936D01*
X9634468Y-14742936D02*
X9624944Y-14752460D01*
X9624944Y-14752460D02*
X9605896Y-14761984D01*
X9605896Y-14761984D02*
X9548753Y-14761984D01*
X9548753Y-14761984D02*
X9529706Y-14752460D01*
X9529706Y-14752460D02*
X9520182Y-14742936D01*
X9739229Y-14761984D02*
X9777325Y-14761984D01*
X9777325Y-14761984D02*
X9796372Y-14752460D01*
X9796372Y-14752460D02*
X9805896Y-14742936D01*
X9805896Y-14742936D02*
X9824944Y-14714365D01*
X9824944Y-14714365D02*
X9834468Y-14676269D01*
X9834468Y-14676269D02*
X9834468Y-14600079D01*
X9834468Y-14600079D02*
X9824944Y-14581031D01*
X9824944Y-14581031D02*
X9815420Y-14571508D01*
X9815420Y-14571508D02*
X9796372Y-14561984D01*
X9796372Y-14561984D02*
X9758277Y-14561984D01*
X9758277Y-14561984D02*
X9739229Y-14571508D01*
X9739229Y-14571508D02*
X9729706Y-14581031D01*
X9729706Y-14581031D02*
X9720182Y-14600079D01*
X9720182Y-14600079D02*
X9720182Y-14647698D01*
X9720182Y-14647698D02*
X9729706Y-14666746D01*
X9729706Y-14666746D02*
X9739229Y-14676269D01*
X9739229Y-14676269D02*
X9758277Y-14685793D01*
X9758277Y-14685793D02*
X9796372Y-14685793D01*
X9796372Y-14685793D02*
X9815420Y-14676269D01*
X9815420Y-14676269D02*
X9824944Y-14666746D01*
X9824944Y-14666746D02*
X9834468Y-14647698D01*
X10005896Y-14628650D02*
X10005896Y-14761984D01*
X9958277Y-14552460D02*
X9910658Y-14695317D01*
X9910658Y-14695317D02*
X10034468Y-14695317D01*
X10101134Y-14561984D02*
X10101134Y-14600079D01*
X10177325Y-14561984D02*
X10177325Y-14600079D01*
X10472563Y-14838174D02*
X10463039Y-14828650D01*
X10463039Y-14828650D02*
X10443991Y-14800079D01*
X10443991Y-14800079D02*
X10434468Y-14781031D01*
X10434468Y-14781031D02*
X10424944Y-14752460D01*
X10424944Y-14752460D02*
X10415420Y-14704841D01*
X10415420Y-14704841D02*
X10415420Y-14666746D01*
X10415420Y-14666746D02*
X10424944Y-14619127D01*
X10424944Y-14619127D02*
X10434468Y-14590555D01*
X10434468Y-14590555D02*
X10443991Y-14571508D01*
X10443991Y-14571508D02*
X10463039Y-14542936D01*
X10463039Y-14542936D02*
X10472563Y-14533412D01*
X10586849Y-14561984D02*
X10605896Y-14561984D01*
X10605896Y-14561984D02*
X10624944Y-14571508D01*
X10624944Y-14571508D02*
X10634468Y-14581031D01*
X10634468Y-14581031D02*
X10643991Y-14600079D01*
X10643991Y-14600079D02*
X10653515Y-14638174D01*
X10653515Y-14638174D02*
X10653515Y-14685793D01*
X10653515Y-14685793D02*
X10643991Y-14723888D01*
X10643991Y-14723888D02*
X10634468Y-14742936D01*
X10634468Y-14742936D02*
X10624944Y-14752460D01*
X10624944Y-14752460D02*
X10605896Y-14761984D01*
X10605896Y-14761984D02*
X10586849Y-14761984D01*
X10586849Y-14761984D02*
X10567801Y-14752460D01*
X10567801Y-14752460D02*
X10558277Y-14742936D01*
X10558277Y-14742936D02*
X10548753Y-14723888D01*
X10548753Y-14723888D02*
X10539230Y-14685793D01*
X10539230Y-14685793D02*
X10539230Y-14638174D01*
X10539230Y-14638174D02*
X10548753Y-14600079D01*
X10548753Y-14600079D02*
X10558277Y-14581031D01*
X10558277Y-14581031D02*
X10567801Y-14571508D01*
X10567801Y-14571508D02*
X10586849Y-14561984D01*
X10891611Y-14761984D02*
X10891611Y-14561984D01*
X10977325Y-14761984D02*
X10977325Y-14657222D01*
X10977325Y-14657222D02*
X10967801Y-14638174D01*
X10967801Y-14638174D02*
X10948753Y-14628650D01*
X10948753Y-14628650D02*
X10920182Y-14628650D01*
X10920182Y-14628650D02*
X10901134Y-14638174D01*
X10901134Y-14638174D02*
X10891611Y-14647698D01*
X11101134Y-14761984D02*
X11082087Y-14752460D01*
X11082087Y-14752460D02*
X11072563Y-14742936D01*
X11072563Y-14742936D02*
X11063039Y-14723888D01*
X11063039Y-14723888D02*
X11063039Y-14666746D01*
X11063039Y-14666746D02*
X11072563Y-14647698D01*
X11072563Y-14647698D02*
X11082087Y-14638174D01*
X11082087Y-14638174D02*
X11101134Y-14628650D01*
X11101134Y-14628650D02*
X11129706Y-14628650D01*
X11129706Y-14628650D02*
X11148753Y-14638174D01*
X11148753Y-14638174D02*
X11158277Y-14647698D01*
X11158277Y-14647698D02*
X11167801Y-14666746D01*
X11167801Y-14666746D02*
X11167801Y-14723888D01*
X11167801Y-14723888D02*
X11158277Y-14742936D01*
X11158277Y-14742936D02*
X11148753Y-14752460D01*
X11148753Y-14752460D02*
X11129706Y-14761984D01*
X11129706Y-14761984D02*
X11101134Y-14761984D01*
X11282087Y-14761984D02*
X11263039Y-14752460D01*
X11263039Y-14752460D02*
X11253515Y-14733412D01*
X11253515Y-14733412D02*
X11253515Y-14561984D01*
X11434468Y-14752460D02*
X11415420Y-14761984D01*
X11415420Y-14761984D02*
X11377325Y-14761984D01*
X11377325Y-14761984D02*
X11358277Y-14752460D01*
X11358277Y-14752460D02*
X11348753Y-14733412D01*
X11348753Y-14733412D02*
X11348753Y-14657222D01*
X11348753Y-14657222D02*
X11358277Y-14638174D01*
X11358277Y-14638174D02*
X11377325Y-14628650D01*
X11377325Y-14628650D02*
X11415420Y-14628650D01*
X11415420Y-14628650D02*
X11434468Y-14638174D01*
X11434468Y-14638174D02*
X11443991Y-14657222D01*
X11443991Y-14657222D02*
X11443991Y-14676269D01*
X11443991Y-14676269D02*
X11348753Y-14695317D01*
X11520182Y-14752460D02*
X11539230Y-14761984D01*
X11539230Y-14761984D02*
X11577325Y-14761984D01*
X11577325Y-14761984D02*
X11596372Y-14752460D01*
X11596372Y-14752460D02*
X11605896Y-14733412D01*
X11605896Y-14733412D02*
X11605896Y-14723888D01*
X11605896Y-14723888D02*
X11596372Y-14704841D01*
X11596372Y-14704841D02*
X11577325Y-14695317D01*
X11577325Y-14695317D02*
X11548753Y-14695317D01*
X11548753Y-14695317D02*
X11529706Y-14685793D01*
X11529706Y-14685793D02*
X11520182Y-14666746D01*
X11520182Y-14666746D02*
X11520182Y-14657222D01*
X11520182Y-14657222D02*
X11529706Y-14638174D01*
X11529706Y-14638174D02*
X11548753Y-14628650D01*
X11548753Y-14628650D02*
X11577325Y-14628650D01*
X11577325Y-14628650D02*
X11596372Y-14638174D01*
X11843992Y-14685793D02*
X11996373Y-14685793D01*
X11920182Y-14761984D02*
X11920182Y-14609603D01*
X12224944Y-14561984D02*
X12348753Y-14561984D01*
X12348753Y-14561984D02*
X12282087Y-14638174D01*
X12282087Y-14638174D02*
X12310658Y-14638174D01*
X12310658Y-14638174D02*
X12329706Y-14647698D01*
X12329706Y-14647698D02*
X12339230Y-14657222D01*
X12339230Y-14657222D02*
X12348753Y-14676269D01*
X12348753Y-14676269D02*
X12348753Y-14723888D01*
X12348753Y-14723888D02*
X12339230Y-14742936D01*
X12339230Y-14742936D02*
X12329706Y-14752460D01*
X12329706Y-14752460D02*
X12310658Y-14761984D01*
X12310658Y-14761984D02*
X12253515Y-14761984D01*
X12253515Y-14761984D02*
X12234468Y-14752460D01*
X12234468Y-14752460D02*
X12224944Y-14742936D01*
X12577325Y-14752460D02*
X12596373Y-14761984D01*
X12596373Y-14761984D02*
X12634468Y-14761984D01*
X12634468Y-14761984D02*
X12653515Y-14752460D01*
X12653515Y-14752460D02*
X12663039Y-14733412D01*
X12663039Y-14733412D02*
X12663039Y-14723888D01*
X12663039Y-14723888D02*
X12653515Y-14704841D01*
X12653515Y-14704841D02*
X12634468Y-14695317D01*
X12634468Y-14695317D02*
X12605896Y-14695317D01*
X12605896Y-14695317D02*
X12586849Y-14685793D01*
X12586849Y-14685793D02*
X12577325Y-14666746D01*
X12577325Y-14666746D02*
X12577325Y-14657222D01*
X12577325Y-14657222D02*
X12586849Y-14638174D01*
X12586849Y-14638174D02*
X12605896Y-14628650D01*
X12605896Y-14628650D02*
X12634468Y-14628650D01*
X12634468Y-14628650D02*
X12653515Y-14638174D01*
X12777325Y-14761984D02*
X12758277Y-14752460D01*
X12758277Y-14752460D02*
X12748754Y-14733412D01*
X12748754Y-14733412D02*
X12748754Y-14561984D01*
X12882087Y-14761984D02*
X12863039Y-14752460D01*
X12863039Y-14752460D02*
X12853515Y-14742936D01*
X12853515Y-14742936D02*
X12843992Y-14723888D01*
X12843992Y-14723888D02*
X12843992Y-14666746D01*
X12843992Y-14666746D02*
X12853515Y-14647698D01*
X12853515Y-14647698D02*
X12863039Y-14638174D01*
X12863039Y-14638174D02*
X12882087Y-14628650D01*
X12882087Y-14628650D02*
X12910658Y-14628650D01*
X12910658Y-14628650D02*
X12929706Y-14638174D01*
X12929706Y-14638174D02*
X12939230Y-14647698D01*
X12939230Y-14647698D02*
X12948754Y-14666746D01*
X12948754Y-14666746D02*
X12948754Y-14723888D01*
X12948754Y-14723888D02*
X12939230Y-14742936D01*
X12939230Y-14742936D02*
X12929706Y-14752460D01*
X12929706Y-14752460D02*
X12910658Y-14761984D01*
X12910658Y-14761984D02*
X12882087Y-14761984D01*
X13005896Y-14628650D02*
X13082087Y-14628650D01*
X13034468Y-14561984D02*
X13034468Y-14733412D01*
X13034468Y-14733412D02*
X13043992Y-14752460D01*
X13043992Y-14752460D02*
X13063039Y-14761984D01*
X13063039Y-14761984D02*
X13082087Y-14761984D01*
X13139230Y-14752460D02*
X13158277Y-14761984D01*
X13158277Y-14761984D02*
X13196373Y-14761984D01*
X13196373Y-14761984D02*
X13215420Y-14752460D01*
X13215420Y-14752460D02*
X13224944Y-14733412D01*
X13224944Y-14733412D02*
X13224944Y-14723888D01*
X13224944Y-14723888D02*
X13215420Y-14704841D01*
X13215420Y-14704841D02*
X13196373Y-14695317D01*
X13196373Y-14695317D02*
X13167801Y-14695317D01*
X13167801Y-14695317D02*
X13148754Y-14685793D01*
X13148754Y-14685793D02*
X13139230Y-14666746D01*
X13139230Y-14666746D02*
X13139230Y-14657222D01*
X13139230Y-14657222D02*
X13148754Y-14638174D01*
X13148754Y-14638174D02*
X13167801Y-14628650D01*
X13167801Y-14628650D02*
X13196373Y-14628650D01*
X13196373Y-14628650D02*
X13215420Y-14638174D01*
X13291611Y-14838174D02*
X13301135Y-14828650D01*
X13301135Y-14828650D02*
X13320182Y-14800079D01*
X13320182Y-14800079D02*
X13329706Y-14781031D01*
X13329706Y-14781031D02*
X13339230Y-14752460D01*
X13339230Y-14752460D02*
X13348754Y-14704841D01*
X13348754Y-14704841D02*
X13348754Y-14666746D01*
X13348754Y-14666746D02*
X13339230Y-14619127D01*
X13339230Y-14619127D02*
X13329706Y-14590555D01*
X13329706Y-14590555D02*
X13320182Y-14571508D01*
X13320182Y-14571508D02*
X13301135Y-14542936D01*
X13301135Y-14542936D02*
X13291611Y-14533412D01*
D13*
X6882563Y-14970563D02*
X6882563Y-14898437D01*
X6810437Y-14898437D01*
X6810437Y-14970563D01*
X6882563Y-14970563D01*
D11*
X7263039Y-15025984D02*
X7148753Y-15025984D01*
X7205896Y-15025984D02*
X7205896Y-14825984D01*
X7205896Y-14825984D02*
X7186848Y-14854555D01*
X7186848Y-14854555D02*
X7167801Y-14873603D01*
X7167801Y-14873603D02*
X7148753Y-14883127D01*
X7348753Y-15006936D02*
X7358277Y-15016460D01*
X7358277Y-15016460D02*
X7348753Y-15025984D01*
X7348753Y-15025984D02*
X7339229Y-15016460D01*
X7339229Y-15016460D02*
X7348753Y-15006936D01*
X7348753Y-15006936D02*
X7348753Y-15025984D01*
X7482086Y-14825984D02*
X7501134Y-14825984D01*
X7501134Y-14825984D02*
X7520182Y-14835508D01*
X7520182Y-14835508D02*
X7529705Y-14845031D01*
X7529705Y-14845031D02*
X7539229Y-14864079D01*
X7539229Y-14864079D02*
X7548753Y-14902174D01*
X7548753Y-14902174D02*
X7548753Y-14949793D01*
X7548753Y-14949793D02*
X7539229Y-14987888D01*
X7539229Y-14987888D02*
X7529705Y-15006936D01*
X7529705Y-15006936D02*
X7520182Y-15016460D01*
X7520182Y-15016460D02*
X7501134Y-15025984D01*
X7501134Y-15025984D02*
X7482086Y-15025984D01*
X7482086Y-15025984D02*
X7463039Y-15016460D01*
X7463039Y-15016460D02*
X7453515Y-15006936D01*
X7453515Y-15006936D02*
X7443991Y-14987888D01*
X7443991Y-14987888D02*
X7434467Y-14949793D01*
X7434467Y-14949793D02*
X7434467Y-14902174D01*
X7434467Y-14902174D02*
X7443991Y-14864079D01*
X7443991Y-14864079D02*
X7453515Y-14845031D01*
X7453515Y-14845031D02*
X7463039Y-14835508D01*
X7463039Y-14835508D02*
X7482086Y-14825984D01*
X7624943Y-14845031D02*
X7634467Y-14835508D01*
X7634467Y-14835508D02*
X7653515Y-14825984D01*
X7653515Y-14825984D02*
X7701134Y-14825984D01*
X7701134Y-14825984D02*
X7720182Y-14835508D01*
X7720182Y-14835508D02*
X7729705Y-14845031D01*
X7729705Y-14845031D02*
X7739229Y-14864079D01*
X7739229Y-14864079D02*
X7739229Y-14883127D01*
X7739229Y-14883127D02*
X7729705Y-14911698D01*
X7729705Y-14911698D02*
X7615420Y-15025984D01*
X7615420Y-15025984D02*
X7739229Y-15025984D01*
X7863039Y-14825984D02*
X7882086Y-14825984D01*
X7882086Y-14825984D02*
X7901134Y-14835508D01*
X7901134Y-14835508D02*
X7910658Y-14845031D01*
X7910658Y-14845031D02*
X7920182Y-14864079D01*
X7920182Y-14864079D02*
X7929705Y-14902174D01*
X7929705Y-14902174D02*
X7929705Y-14949793D01*
X7929705Y-14949793D02*
X7920182Y-14987888D01*
X7920182Y-14987888D02*
X7910658Y-15006936D01*
X7910658Y-15006936D02*
X7901134Y-15016460D01*
X7901134Y-15016460D02*
X7882086Y-15025984D01*
X7882086Y-15025984D02*
X7863039Y-15025984D01*
X7863039Y-15025984D02*
X7843991Y-15016460D01*
X7843991Y-15016460D02*
X7834467Y-15006936D01*
X7834467Y-15006936D02*
X7824943Y-14987888D01*
X7824943Y-14987888D02*
X7815420Y-14949793D01*
X7815420Y-14949793D02*
X7815420Y-14902174D01*
X7815420Y-14902174D02*
X7824943Y-14864079D01*
X7824943Y-14864079D02*
X7834467Y-14845031D01*
X7834467Y-14845031D02*
X7843991Y-14835508D01*
X7843991Y-14835508D02*
X7863039Y-14825984D01*
X8015420Y-15025984D02*
X8015420Y-14892650D01*
X8015420Y-14911698D02*
X8024943Y-14902174D01*
X8024943Y-14902174D02*
X8043991Y-14892650D01*
X8043991Y-14892650D02*
X8072563Y-14892650D01*
X8072563Y-14892650D02*
X8091610Y-14902174D01*
X8091610Y-14902174D02*
X8101134Y-14921222D01*
X8101134Y-14921222D02*
X8101134Y-15025984D01*
X8101134Y-14921222D02*
X8110658Y-14902174D01*
X8110658Y-14902174D02*
X8129705Y-14892650D01*
X8129705Y-14892650D02*
X8158277Y-14892650D01*
X8158277Y-14892650D02*
X8177324Y-14902174D01*
X8177324Y-14902174D02*
X8186848Y-14921222D01*
X8186848Y-14921222D02*
X8186848Y-15025984D01*
X8282086Y-15025984D02*
X8282086Y-14892650D01*
X8282086Y-14911698D02*
X8291610Y-14902174D01*
X8291610Y-14902174D02*
X8310658Y-14892650D01*
X8310658Y-14892650D02*
X8339229Y-14892650D01*
X8339229Y-14892650D02*
X8358277Y-14902174D01*
X8358277Y-14902174D02*
X8367801Y-14921222D01*
X8367801Y-14921222D02*
X8367801Y-15025984D01*
X8367801Y-14921222D02*
X8377324Y-14902174D01*
X8377324Y-14902174D02*
X8396372Y-14892650D01*
X8396372Y-14892650D02*
X8424944Y-14892650D01*
X8424944Y-14892650D02*
X8443991Y-14902174D01*
X8443991Y-14902174D02*
X8453515Y-14921222D01*
X8453515Y-14921222D02*
X8453515Y-15025984D01*
X8843991Y-14816460D02*
X8672563Y-15073603D01*
X9101134Y-14825984D02*
X9120182Y-14825984D01*
X9120182Y-14825984D02*
X9139229Y-14835508D01*
X9139229Y-14835508D02*
X9148753Y-14845031D01*
X9148753Y-14845031D02*
X9158277Y-14864079D01*
X9158277Y-14864079D02*
X9167801Y-14902174D01*
X9167801Y-14902174D02*
X9167801Y-14949793D01*
X9167801Y-14949793D02*
X9158277Y-14987888D01*
X9158277Y-14987888D02*
X9148753Y-15006936D01*
X9148753Y-15006936D02*
X9139229Y-15016460D01*
X9139229Y-15016460D02*
X9120182Y-15025984D01*
X9120182Y-15025984D02*
X9101134Y-15025984D01*
X9101134Y-15025984D02*
X9082087Y-15016460D01*
X9082087Y-15016460D02*
X9072563Y-15006936D01*
X9072563Y-15006936D02*
X9063039Y-14987888D01*
X9063039Y-14987888D02*
X9053515Y-14949793D01*
X9053515Y-14949793D02*
X9053515Y-14902174D01*
X9053515Y-14902174D02*
X9063039Y-14864079D01*
X9063039Y-14864079D02*
X9072563Y-14845031D01*
X9072563Y-14845031D02*
X9082087Y-14835508D01*
X9082087Y-14835508D02*
X9101134Y-14825984D01*
X9253515Y-15006936D02*
X9263039Y-15016460D01*
X9263039Y-15016460D02*
X9253515Y-15025984D01*
X9253515Y-15025984D02*
X9243991Y-15016460D01*
X9243991Y-15016460D02*
X9253515Y-15006936D01*
X9253515Y-15006936D02*
X9253515Y-15025984D01*
X9386848Y-14825984D02*
X9405896Y-14825984D01*
X9405896Y-14825984D02*
X9424944Y-14835508D01*
X9424944Y-14835508D02*
X9434468Y-14845031D01*
X9434468Y-14845031D02*
X9443991Y-14864079D01*
X9443991Y-14864079D02*
X9453515Y-14902174D01*
X9453515Y-14902174D02*
X9453515Y-14949793D01*
X9453515Y-14949793D02*
X9443991Y-14987888D01*
X9443991Y-14987888D02*
X9434468Y-15006936D01*
X9434468Y-15006936D02*
X9424944Y-15016460D01*
X9424944Y-15016460D02*
X9405896Y-15025984D01*
X9405896Y-15025984D02*
X9386848Y-15025984D01*
X9386848Y-15025984D02*
X9367801Y-15016460D01*
X9367801Y-15016460D02*
X9358277Y-15006936D01*
X9358277Y-15006936D02*
X9348753Y-14987888D01*
X9348753Y-14987888D02*
X9339229Y-14949793D01*
X9339229Y-14949793D02*
X9339229Y-14902174D01*
X9339229Y-14902174D02*
X9348753Y-14864079D01*
X9348753Y-14864079D02*
X9358277Y-14845031D01*
X9358277Y-14845031D02*
X9367801Y-14835508D01*
X9367801Y-14835508D02*
X9386848Y-14825984D01*
X9624944Y-14892650D02*
X9624944Y-15025984D01*
X9577325Y-14816460D02*
X9529706Y-14959317D01*
X9529706Y-14959317D02*
X9653515Y-14959317D01*
X9767801Y-14825984D02*
X9786849Y-14825984D01*
X9786849Y-14825984D02*
X9805896Y-14835508D01*
X9805896Y-14835508D02*
X9815420Y-14845031D01*
X9815420Y-14845031D02*
X9824944Y-14864079D01*
X9824944Y-14864079D02*
X9834468Y-14902174D01*
X9834468Y-14902174D02*
X9834468Y-14949793D01*
X9834468Y-14949793D02*
X9824944Y-14987888D01*
X9824944Y-14987888D02*
X9815420Y-15006936D01*
X9815420Y-15006936D02*
X9805896Y-15016460D01*
X9805896Y-15016460D02*
X9786849Y-15025984D01*
X9786849Y-15025984D02*
X9767801Y-15025984D01*
X9767801Y-15025984D02*
X9748753Y-15016460D01*
X9748753Y-15016460D02*
X9739229Y-15006936D01*
X9739229Y-15006936D02*
X9729706Y-14987888D01*
X9729706Y-14987888D02*
X9720182Y-14949793D01*
X9720182Y-14949793D02*
X9720182Y-14902174D01*
X9720182Y-14902174D02*
X9729706Y-14864079D01*
X9729706Y-14864079D02*
X9739229Y-14845031D01*
X9739229Y-14845031D02*
X9748753Y-14835508D01*
X9748753Y-14835508D02*
X9767801Y-14825984D01*
X9910658Y-14845031D02*
X9920182Y-14835508D01*
X9920182Y-14835508D02*
X9939229Y-14825984D01*
X9939229Y-14825984D02*
X9986849Y-14825984D01*
X9986849Y-14825984D02*
X10005896Y-14835508D01*
X10005896Y-14835508D02*
X10015420Y-14845031D01*
X10015420Y-14845031D02*
X10024944Y-14864079D01*
X10024944Y-14864079D02*
X10024944Y-14883127D01*
X10024944Y-14883127D02*
X10015420Y-14911698D01*
X10015420Y-14911698D02*
X9901134Y-15025984D01*
X9901134Y-15025984D02*
X10024944Y-15025984D01*
X10101134Y-14825984D02*
X10101134Y-14864079D01*
X10177325Y-14825984D02*
X10177325Y-14864079D01*
X10472563Y-15102174D02*
X10463039Y-15092650D01*
X10463039Y-15092650D02*
X10443991Y-15064079D01*
X10443991Y-15064079D02*
X10434468Y-15045031D01*
X10434468Y-15045031D02*
X10424944Y-15016460D01*
X10424944Y-15016460D02*
X10415420Y-14968841D01*
X10415420Y-14968841D02*
X10415420Y-14930746D01*
X10415420Y-14930746D02*
X10424944Y-14883127D01*
X10424944Y-14883127D02*
X10434468Y-14854555D01*
X10434468Y-14854555D02*
X10443991Y-14835508D01*
X10443991Y-14835508D02*
X10463039Y-14806936D01*
X10463039Y-14806936D02*
X10472563Y-14797412D01*
X10653515Y-15025984D02*
X10539230Y-15025984D01*
X10596372Y-15025984D02*
X10596372Y-14825984D01*
X10596372Y-14825984D02*
X10577325Y-14854555D01*
X10577325Y-14854555D02*
X10558277Y-14873603D01*
X10558277Y-14873603D02*
X10539230Y-14883127D01*
X10767801Y-14911698D02*
X10748753Y-14902174D01*
X10748753Y-14902174D02*
X10739230Y-14892650D01*
X10739230Y-14892650D02*
X10729706Y-14873603D01*
X10729706Y-14873603D02*
X10729706Y-14864079D01*
X10729706Y-14864079D02*
X10739230Y-14845031D01*
X10739230Y-14845031D02*
X10748753Y-14835508D01*
X10748753Y-14835508D02*
X10767801Y-14825984D01*
X10767801Y-14825984D02*
X10805896Y-14825984D01*
X10805896Y-14825984D02*
X10824944Y-14835508D01*
X10824944Y-14835508D02*
X10834468Y-14845031D01*
X10834468Y-14845031D02*
X10843991Y-14864079D01*
X10843991Y-14864079D02*
X10843991Y-14873603D01*
X10843991Y-14873603D02*
X10834468Y-14892650D01*
X10834468Y-14892650D02*
X10824944Y-14902174D01*
X10824944Y-14902174D02*
X10805896Y-14911698D01*
X10805896Y-14911698D02*
X10767801Y-14911698D01*
X10767801Y-14911698D02*
X10748753Y-14921222D01*
X10748753Y-14921222D02*
X10739230Y-14930746D01*
X10739230Y-14930746D02*
X10729706Y-14949793D01*
X10729706Y-14949793D02*
X10729706Y-14987888D01*
X10729706Y-14987888D02*
X10739230Y-15006936D01*
X10739230Y-15006936D02*
X10748753Y-15016460D01*
X10748753Y-15016460D02*
X10767801Y-15025984D01*
X10767801Y-15025984D02*
X10805896Y-15025984D01*
X10805896Y-15025984D02*
X10824944Y-15016460D01*
X10824944Y-15016460D02*
X10834468Y-15006936D01*
X10834468Y-15006936D02*
X10843991Y-14987888D01*
X10843991Y-14987888D02*
X10843991Y-14949793D01*
X10843991Y-14949793D02*
X10834468Y-14930746D01*
X10834468Y-14930746D02*
X10824944Y-14921222D01*
X10824944Y-14921222D02*
X10805896Y-14911698D01*
X11082087Y-15025984D02*
X11082087Y-14825984D01*
X11167801Y-15025984D02*
X11167801Y-14921222D01*
X11167801Y-14921222D02*
X11158277Y-14902174D01*
X11158277Y-14902174D02*
X11139230Y-14892650D01*
X11139230Y-14892650D02*
X11110658Y-14892650D01*
X11110658Y-14892650D02*
X11091611Y-14902174D01*
X11091611Y-14902174D02*
X11082087Y-14911698D01*
X11291610Y-15025984D02*
X11272563Y-15016460D01*
X11272563Y-15016460D02*
X11263039Y-15006936D01*
X11263039Y-15006936D02*
X11253515Y-14987888D01*
X11253515Y-14987888D02*
X11253515Y-14930746D01*
X11253515Y-14930746D02*
X11263039Y-14911698D01*
X11263039Y-14911698D02*
X11272563Y-14902174D01*
X11272563Y-14902174D02*
X11291610Y-14892650D01*
X11291610Y-14892650D02*
X11320182Y-14892650D01*
X11320182Y-14892650D02*
X11339230Y-14902174D01*
X11339230Y-14902174D02*
X11348753Y-14911698D01*
X11348753Y-14911698D02*
X11358277Y-14930746D01*
X11358277Y-14930746D02*
X11358277Y-14987888D01*
X11358277Y-14987888D02*
X11348753Y-15006936D01*
X11348753Y-15006936D02*
X11339230Y-15016460D01*
X11339230Y-15016460D02*
X11320182Y-15025984D01*
X11320182Y-15025984D02*
X11291610Y-15025984D01*
X11472563Y-15025984D02*
X11453515Y-15016460D01*
X11453515Y-15016460D02*
X11443991Y-14997412D01*
X11443991Y-14997412D02*
X11443991Y-14825984D01*
X11624944Y-15016460D02*
X11605896Y-15025984D01*
X11605896Y-15025984D02*
X11567801Y-15025984D01*
X11567801Y-15025984D02*
X11548753Y-15016460D01*
X11548753Y-15016460D02*
X11539230Y-14997412D01*
X11539230Y-14997412D02*
X11539230Y-14921222D01*
X11539230Y-14921222D02*
X11548753Y-14902174D01*
X11548753Y-14902174D02*
X11567801Y-14892650D01*
X11567801Y-14892650D02*
X11605896Y-14892650D01*
X11605896Y-14892650D02*
X11624944Y-14902174D01*
X11624944Y-14902174D02*
X11634468Y-14921222D01*
X11634468Y-14921222D02*
X11634468Y-14940269D01*
X11634468Y-14940269D02*
X11539230Y-14959317D01*
X11710658Y-15016460D02*
X11729706Y-15025984D01*
X11729706Y-15025984D02*
X11767801Y-15025984D01*
X11767801Y-15025984D02*
X11786849Y-15016460D01*
X11786849Y-15016460D02*
X11796372Y-14997412D01*
X11796372Y-14997412D02*
X11796372Y-14987888D01*
X11796372Y-14987888D02*
X11786849Y-14968841D01*
X11786849Y-14968841D02*
X11767801Y-14959317D01*
X11767801Y-14959317D02*
X11739230Y-14959317D01*
X11739230Y-14959317D02*
X11720182Y-14949793D01*
X11720182Y-14949793D02*
X11710658Y-14930746D01*
X11710658Y-14930746D02*
X11710658Y-14921222D01*
X11710658Y-14921222D02*
X11720182Y-14902174D01*
X11720182Y-14902174D02*
X11739230Y-14892650D01*
X11739230Y-14892650D02*
X11767801Y-14892650D01*
X11767801Y-14892650D02*
X11786849Y-14902174D01*
X11863039Y-15102174D02*
X11872563Y-15092650D01*
X11872563Y-15092650D02*
X11891611Y-15064079D01*
X11891611Y-15064079D02*
X11901134Y-15045031D01*
X11901134Y-15045031D02*
X11910658Y-15016460D01*
X11910658Y-15016460D02*
X11920182Y-14968841D01*
X11920182Y-14968841D02*
X11920182Y-14930746D01*
X11920182Y-14930746D02*
X11910658Y-14883127D01*
X11910658Y-14883127D02*
X11901134Y-14854555D01*
X11901134Y-14854555D02*
X11891611Y-14835508D01*
X11891611Y-14835508D02*
X11872563Y-14806936D01*
X11872563Y-14806936D02*
X11863039Y-14797412D01*
X6797500Y-15298500D02*
X6897500Y-15198500D01*
X6797500Y-15098500D01*
X6697500Y-15198500D01*
X6797500Y-15298500D01*
X7148753Y-15109031D02*
X7158277Y-15099508D01*
X7158277Y-15099508D02*
X7177324Y-15089984D01*
X7177324Y-15089984D02*
X7224943Y-15089984D01*
X7224943Y-15089984D02*
X7243991Y-15099508D01*
X7243991Y-15099508D02*
X7253515Y-15109031D01*
X7253515Y-15109031D02*
X7263039Y-15128079D01*
X7263039Y-15128079D02*
X7263039Y-15147127D01*
X7263039Y-15147127D02*
X7253515Y-15175698D01*
X7253515Y-15175698D02*
X7139229Y-15289984D01*
X7139229Y-15289984D02*
X7263039Y-15289984D01*
X7348753Y-15270936D02*
X7358277Y-15280460D01*
X7358277Y-15280460D02*
X7348753Y-15289984D01*
X7348753Y-15289984D02*
X7339229Y-15280460D01*
X7339229Y-15280460D02*
X7348753Y-15270936D01*
X7348753Y-15270936D02*
X7348753Y-15289984D01*
X7529705Y-15156650D02*
X7529705Y-15289984D01*
X7482086Y-15080460D02*
X7434467Y-15223317D01*
X7434467Y-15223317D02*
X7558277Y-15223317D01*
X7739229Y-15289984D02*
X7624943Y-15289984D01*
X7682086Y-15289984D02*
X7682086Y-15089984D01*
X7682086Y-15089984D02*
X7663039Y-15118555D01*
X7663039Y-15118555D02*
X7643991Y-15137603D01*
X7643991Y-15137603D02*
X7624943Y-15147127D01*
X7863039Y-15089984D02*
X7882086Y-15089984D01*
X7882086Y-15089984D02*
X7901134Y-15099508D01*
X7901134Y-15099508D02*
X7910658Y-15109031D01*
X7910658Y-15109031D02*
X7920182Y-15128079D01*
X7920182Y-15128079D02*
X7929705Y-15166174D01*
X7929705Y-15166174D02*
X7929705Y-15213793D01*
X7929705Y-15213793D02*
X7920182Y-15251888D01*
X7920182Y-15251888D02*
X7910658Y-15270936D01*
X7910658Y-15270936D02*
X7901134Y-15280460D01*
X7901134Y-15280460D02*
X7882086Y-15289984D01*
X7882086Y-15289984D02*
X7863039Y-15289984D01*
X7863039Y-15289984D02*
X7843991Y-15280460D01*
X7843991Y-15280460D02*
X7834467Y-15270936D01*
X7834467Y-15270936D02*
X7824943Y-15251888D01*
X7824943Y-15251888D02*
X7815420Y-15213793D01*
X7815420Y-15213793D02*
X7815420Y-15166174D01*
X7815420Y-15166174D02*
X7824943Y-15128079D01*
X7824943Y-15128079D02*
X7834467Y-15109031D01*
X7834467Y-15109031D02*
X7843991Y-15099508D01*
X7843991Y-15099508D02*
X7863039Y-15089984D01*
X8015420Y-15289984D02*
X8015420Y-15156650D01*
X8015420Y-15175698D02*
X8024943Y-15166174D01*
X8024943Y-15166174D02*
X8043991Y-15156650D01*
X8043991Y-15156650D02*
X8072563Y-15156650D01*
X8072563Y-15156650D02*
X8091610Y-15166174D01*
X8091610Y-15166174D02*
X8101134Y-15185222D01*
X8101134Y-15185222D02*
X8101134Y-15289984D01*
X8101134Y-15185222D02*
X8110658Y-15166174D01*
X8110658Y-15166174D02*
X8129705Y-15156650D01*
X8129705Y-15156650D02*
X8158277Y-15156650D01*
X8158277Y-15156650D02*
X8177324Y-15166174D01*
X8177324Y-15166174D02*
X8186848Y-15185222D01*
X8186848Y-15185222D02*
X8186848Y-15289984D01*
X8282086Y-15289984D02*
X8282086Y-15156650D01*
X8282086Y-15175698D02*
X8291610Y-15166174D01*
X8291610Y-15166174D02*
X8310658Y-15156650D01*
X8310658Y-15156650D02*
X8339229Y-15156650D01*
X8339229Y-15156650D02*
X8358277Y-15166174D01*
X8358277Y-15166174D02*
X8367801Y-15185222D01*
X8367801Y-15185222D02*
X8367801Y-15289984D01*
X8367801Y-15185222D02*
X8377324Y-15166174D01*
X8377324Y-15166174D02*
X8396372Y-15156650D01*
X8396372Y-15156650D02*
X8424944Y-15156650D01*
X8424944Y-15156650D02*
X8443991Y-15166174D01*
X8443991Y-15166174D02*
X8453515Y-15185222D01*
X8453515Y-15185222D02*
X8453515Y-15289984D01*
X8843991Y-15080460D02*
X8672563Y-15337603D01*
X9101134Y-15089984D02*
X9120182Y-15089984D01*
X9120182Y-15089984D02*
X9139229Y-15099508D01*
X9139229Y-15099508D02*
X9148753Y-15109031D01*
X9148753Y-15109031D02*
X9158277Y-15128079D01*
X9158277Y-15128079D02*
X9167801Y-15166174D01*
X9167801Y-15166174D02*
X9167801Y-15213793D01*
X9167801Y-15213793D02*
X9158277Y-15251888D01*
X9158277Y-15251888D02*
X9148753Y-15270936D01*
X9148753Y-15270936D02*
X9139229Y-15280460D01*
X9139229Y-15280460D02*
X9120182Y-15289984D01*
X9120182Y-15289984D02*
X9101134Y-15289984D01*
X9101134Y-15289984D02*
X9082087Y-15280460D01*
X9082087Y-15280460D02*
X9072563Y-15270936D01*
X9072563Y-15270936D02*
X9063039Y-15251888D01*
X9063039Y-15251888D02*
X9053515Y-15213793D01*
X9053515Y-15213793D02*
X9053515Y-15166174D01*
X9053515Y-15166174D02*
X9063039Y-15128079D01*
X9063039Y-15128079D02*
X9072563Y-15109031D01*
X9072563Y-15109031D02*
X9082087Y-15099508D01*
X9082087Y-15099508D02*
X9101134Y-15089984D01*
X9253515Y-15270936D02*
X9263039Y-15280460D01*
X9263039Y-15280460D02*
X9253515Y-15289984D01*
X9253515Y-15289984D02*
X9243991Y-15280460D01*
X9243991Y-15280460D02*
X9253515Y-15270936D01*
X9253515Y-15270936D02*
X9253515Y-15289984D01*
X9386848Y-15089984D02*
X9405896Y-15089984D01*
X9405896Y-15089984D02*
X9424944Y-15099508D01*
X9424944Y-15099508D02*
X9434468Y-15109031D01*
X9434468Y-15109031D02*
X9443991Y-15128079D01*
X9443991Y-15128079D02*
X9453515Y-15166174D01*
X9453515Y-15166174D02*
X9453515Y-15213793D01*
X9453515Y-15213793D02*
X9443991Y-15251888D01*
X9443991Y-15251888D02*
X9434468Y-15270936D01*
X9434468Y-15270936D02*
X9424944Y-15280460D01*
X9424944Y-15280460D02*
X9405896Y-15289984D01*
X9405896Y-15289984D02*
X9386848Y-15289984D01*
X9386848Y-15289984D02*
X9367801Y-15280460D01*
X9367801Y-15280460D02*
X9358277Y-15270936D01*
X9358277Y-15270936D02*
X9348753Y-15251888D01*
X9348753Y-15251888D02*
X9339229Y-15213793D01*
X9339229Y-15213793D02*
X9339229Y-15166174D01*
X9339229Y-15166174D02*
X9348753Y-15128079D01*
X9348753Y-15128079D02*
X9358277Y-15109031D01*
X9358277Y-15109031D02*
X9367801Y-15099508D01*
X9367801Y-15099508D02*
X9386848Y-15089984D01*
X9548753Y-15289984D02*
X9586848Y-15289984D01*
X9586848Y-15289984D02*
X9605896Y-15280460D01*
X9605896Y-15280460D02*
X9615420Y-15270936D01*
X9615420Y-15270936D02*
X9634468Y-15242365D01*
X9634468Y-15242365D02*
X9643991Y-15204269D01*
X9643991Y-15204269D02*
X9643991Y-15128079D01*
X9643991Y-15128079D02*
X9634468Y-15109031D01*
X9634468Y-15109031D02*
X9624944Y-15099508D01*
X9624944Y-15099508D02*
X9605896Y-15089984D01*
X9605896Y-15089984D02*
X9567801Y-15089984D01*
X9567801Y-15089984D02*
X9548753Y-15099508D01*
X9548753Y-15099508D02*
X9539229Y-15109031D01*
X9539229Y-15109031D02*
X9529706Y-15128079D01*
X9529706Y-15128079D02*
X9529706Y-15175698D01*
X9529706Y-15175698D02*
X9539229Y-15194746D01*
X9539229Y-15194746D02*
X9548753Y-15204269D01*
X9548753Y-15204269D02*
X9567801Y-15213793D01*
X9567801Y-15213793D02*
X9605896Y-15213793D01*
X9605896Y-15213793D02*
X9624944Y-15204269D01*
X9624944Y-15204269D02*
X9634468Y-15194746D01*
X9634468Y-15194746D02*
X9643991Y-15175698D01*
X9815420Y-15156650D02*
X9815420Y-15289984D01*
X9767801Y-15080460D02*
X9720182Y-15223317D01*
X9720182Y-15223317D02*
X9843991Y-15223317D01*
X9929706Y-15289984D02*
X9967801Y-15289984D01*
X9967801Y-15289984D02*
X9986849Y-15280460D01*
X9986849Y-15280460D02*
X9996372Y-15270936D01*
X9996372Y-15270936D02*
X10015420Y-15242365D01*
X10015420Y-15242365D02*
X10024944Y-15204269D01*
X10024944Y-15204269D02*
X10024944Y-15128079D01*
X10024944Y-15128079D02*
X10015420Y-15109031D01*
X10015420Y-15109031D02*
X10005896Y-15099508D01*
X10005896Y-15099508D02*
X9986849Y-15089984D01*
X9986849Y-15089984D02*
X9948753Y-15089984D01*
X9948753Y-15089984D02*
X9929706Y-15099508D01*
X9929706Y-15099508D02*
X9920182Y-15109031D01*
X9920182Y-15109031D02*
X9910658Y-15128079D01*
X9910658Y-15128079D02*
X9910658Y-15175698D01*
X9910658Y-15175698D02*
X9920182Y-15194746D01*
X9920182Y-15194746D02*
X9929706Y-15204269D01*
X9929706Y-15204269D02*
X9948753Y-15213793D01*
X9948753Y-15213793D02*
X9986849Y-15213793D01*
X9986849Y-15213793D02*
X10005896Y-15204269D01*
X10005896Y-15204269D02*
X10015420Y-15194746D01*
X10015420Y-15194746D02*
X10024944Y-15175698D01*
X10101134Y-15089984D02*
X10101134Y-15128079D01*
X10177325Y-15089984D02*
X10177325Y-15128079D01*
X10472563Y-15366174D02*
X10463039Y-15356650D01*
X10463039Y-15356650D02*
X10443991Y-15328079D01*
X10443991Y-15328079D02*
X10434468Y-15309031D01*
X10434468Y-15309031D02*
X10424944Y-15280460D01*
X10424944Y-15280460D02*
X10415420Y-15232841D01*
X10415420Y-15232841D02*
X10415420Y-15194746D01*
X10415420Y-15194746D02*
X10424944Y-15147127D01*
X10424944Y-15147127D02*
X10434468Y-15118555D01*
X10434468Y-15118555D02*
X10443991Y-15099508D01*
X10443991Y-15099508D02*
X10463039Y-15070936D01*
X10463039Y-15070936D02*
X10472563Y-15061412D01*
X10539230Y-15109031D02*
X10548753Y-15099508D01*
X10548753Y-15099508D02*
X10567801Y-15089984D01*
X10567801Y-15089984D02*
X10615420Y-15089984D01*
X10615420Y-15089984D02*
X10634468Y-15099508D01*
X10634468Y-15099508D02*
X10643991Y-15109031D01*
X10643991Y-15109031D02*
X10653515Y-15128079D01*
X10653515Y-15128079D02*
X10653515Y-15147127D01*
X10653515Y-15147127D02*
X10643991Y-15175698D01*
X10643991Y-15175698D02*
X10529706Y-15289984D01*
X10529706Y-15289984D02*
X10653515Y-15289984D01*
X10891611Y-15289984D02*
X10891611Y-15089984D01*
X10977325Y-15289984D02*
X10977325Y-15185222D01*
X10977325Y-15185222D02*
X10967801Y-15166174D01*
X10967801Y-15166174D02*
X10948753Y-15156650D01*
X10948753Y-15156650D02*
X10920182Y-15156650D01*
X10920182Y-15156650D02*
X10901134Y-15166174D01*
X10901134Y-15166174D02*
X10891611Y-15175698D01*
X11101134Y-15289984D02*
X11082087Y-15280460D01*
X11082087Y-15280460D02*
X11072563Y-15270936D01*
X11072563Y-15270936D02*
X11063039Y-15251888D01*
X11063039Y-15251888D02*
X11063039Y-15194746D01*
X11063039Y-15194746D02*
X11072563Y-15175698D01*
X11072563Y-15175698D02*
X11082087Y-15166174D01*
X11082087Y-15166174D02*
X11101134Y-15156650D01*
X11101134Y-15156650D02*
X11129706Y-15156650D01*
X11129706Y-15156650D02*
X11148753Y-15166174D01*
X11148753Y-15166174D02*
X11158277Y-15175698D01*
X11158277Y-15175698D02*
X11167801Y-15194746D01*
X11167801Y-15194746D02*
X11167801Y-15251888D01*
X11167801Y-15251888D02*
X11158277Y-15270936D01*
X11158277Y-15270936D02*
X11148753Y-15280460D01*
X11148753Y-15280460D02*
X11129706Y-15289984D01*
X11129706Y-15289984D02*
X11101134Y-15289984D01*
X11282087Y-15289984D02*
X11263039Y-15280460D01*
X11263039Y-15280460D02*
X11253515Y-15261412D01*
X11253515Y-15261412D02*
X11253515Y-15089984D01*
X11434468Y-15280460D02*
X11415420Y-15289984D01*
X11415420Y-15289984D02*
X11377325Y-15289984D01*
X11377325Y-15289984D02*
X11358277Y-15280460D01*
X11358277Y-15280460D02*
X11348753Y-15261412D01*
X11348753Y-15261412D02*
X11348753Y-15185222D01*
X11348753Y-15185222D02*
X11358277Y-15166174D01*
X11358277Y-15166174D02*
X11377325Y-15156650D01*
X11377325Y-15156650D02*
X11415420Y-15156650D01*
X11415420Y-15156650D02*
X11434468Y-15166174D01*
X11434468Y-15166174D02*
X11443991Y-15185222D01*
X11443991Y-15185222D02*
X11443991Y-15204269D01*
X11443991Y-15204269D02*
X11348753Y-15223317D01*
X11520182Y-15280460D02*
X11539230Y-15289984D01*
X11539230Y-15289984D02*
X11577325Y-15289984D01*
X11577325Y-15289984D02*
X11596372Y-15280460D01*
X11596372Y-15280460D02*
X11605896Y-15261412D01*
X11605896Y-15261412D02*
X11605896Y-15251888D01*
X11605896Y-15251888D02*
X11596372Y-15232841D01*
X11596372Y-15232841D02*
X11577325Y-15223317D01*
X11577325Y-15223317D02*
X11548753Y-15223317D01*
X11548753Y-15223317D02*
X11529706Y-15213793D01*
X11529706Y-15213793D02*
X11520182Y-15194746D01*
X11520182Y-15194746D02*
X11520182Y-15185222D01*
X11520182Y-15185222D02*
X11529706Y-15166174D01*
X11529706Y-15166174D02*
X11548753Y-15156650D01*
X11548753Y-15156650D02*
X11577325Y-15156650D01*
X11577325Y-15156650D02*
X11596372Y-15166174D01*
X11672563Y-15366174D02*
X11682087Y-15356650D01*
X11682087Y-15356650D02*
X11701134Y-15328079D01*
X11701134Y-15328079D02*
X11710658Y-15309031D01*
X11710658Y-15309031D02*
X11720182Y-15280460D01*
X11720182Y-15280460D02*
X11729706Y-15232841D01*
X11729706Y-15232841D02*
X11729706Y-15194746D01*
X11729706Y-15194746D02*
X11720182Y-15147127D01*
X11720182Y-15147127D02*
X11710658Y-15118555D01*
X11710658Y-15118555D02*
X11701134Y-15099508D01*
X11701134Y-15099508D02*
X11682087Y-15070936D01*
X11682087Y-15070936D02*
X11672563Y-15061412D01*
M02*
